<svg width="331" height="200" viewBox="0 0 331 200" fill="none" xmlns="http://www.w3.org/2000/svg">
<path d="M316.493 197.75H312.48C315.158 196.849 317.627 195.764 319.829 194.522C321.489 193.568 322.988 192.531 324.306 191.423V194.012C322.344 194.422 317.35 195.661 316.493 197.75ZM7.69011 194.012V191.423C9.00869 192.531 10.5075 193.568 12.1673 194.522C14.3695 195.764 16.838 196.849 19.5164 197.75H15.503C14.6467 195.661 9.65224 194.422 7.69011 194.012ZM2.78479 178.537C3.65055 178.347 4.39996 178.021 4.94314 177.598C5.12987 177.456 5.30256 177.31 5.46042 177.158V186.794C3.71235 184.151 2.8067 181.356 2.78479 178.537ZM15.503 1.24956H19.9802C14.1473 2.99894 9.9198 6.39775 7.69011 8.62696V4.99824C9.65224 4.58839 14.6467 3.34882 15.503 1.25956V1.24956ZM324.306 4.99824V8.62696C322.076 6.39775 317.849 2.99894 312.016 1.24956H316.493C317.35 3.33883 322.344 4.57839 324.306 4.98824V4.99824ZM324.306 184.625C323.358 180.829 322.851 177.002 322.79 173.169V9.19676C323.503 9.88652 324.003 10.4463 324.306 10.7962V184.625ZM7.69011 188.124C9.17626 183.168 9.9754 178.154 10.0803 173.129V8.34706C13.0414 5.678 18.2856 1.9993 25.2244 1.24956H306.772C313.693 1.96931 318.955 5.688 321.898 8.35706V173.169C322.01 178.195 322.815 183.208 324.306 188.164V189.533C322.762 191.1 320.848 192.542 318.616 193.822C315.746 195.483 312.362 196.838 308.627 197.82H23.3693C16.7378 196.044 11.2578 193.155 7.69011 189.553V188.124ZM7.69011 10.7862C7.97551 10.4463 8.4928 9.88652 9.18847 9.18677V173.129C9.13378 176.962 8.63327 180.789 7.69011 184.585V10.7862ZM326.982 177.598C327.523 178.018 328.265 178.343 329.122 178.537C329.107 181.352 328.207 184.144 326.465 186.784V177.158C326.622 177.31 326.795 177.456 326.982 177.598ZM330.924 178.137V177.667H330.086C330.086 177.667 327.303 177.508 326.518 173.669V4.08856L325.751 3.99859C323.753 3.64872 318.616 2.36917 318.616 0.679761V0H13.4873V0.629778C13.4873 2.31918 8.33227 3.62872 6.3523 3.94861L5.56745 4.08856V173.629C4.76476 177.478 1.99994 177.628 1.99994 177.628H1.00104V178.127C0.884769 181.989 2.41353 185.81 5.46042 189.273V194.931L6.24528 195.071C8.24308 195.421 13.3803 196.691 13.3803 198.39V199.02H318.58V198.39C318.58 196.691 323.735 195.391 325.715 195.071L326.5 194.931V189.303C329.556 185.834 331.097 182.006 330.995 178.137" fill="#333333"/>
</svg>
