<svg width="54" height="62" viewBox="0 0 54 62" fill="none" xmlns="http://www.w3.org/2000/svg">
<g clip-path="url(#clip0_121_4286)">
<path d="M0.76001 20.47C2.08241 27.5656 2.5857 34.7896 2.26001 42C2.26001 42 -0.86999 45.13 2.51001 50.19L2.23001 55.66H51L50.72 50.19C54.12 45.1 51 42 51 42C50.6766 34.7996 51.1799 27.5858 52.5 20.5L51.07 19.44C51.5068 18.1278 51.8707 16.7924 52.16 15.44L51.2 3.84001C48.35 5.00001 46.51 0.700012 46.51 0.700012H6.74001C6.74001 0.700012 4.90001 5.00001 2.05001 3.84001L1.10001 15.38C1.38872 16.7336 1.75601 18.0692 2.20001 19.38L0.76001 20.47Z" fill="#1F1F1F"/>
<path d="M26.6299 43.53C33.3599 43.53 38.8299 47.22 38.8299 51.77C38.8299 56.32 33.3599 60 26.6299 60C19.8999 60 14.4199 56.3 14.4199 51.76C14.4199 47.22 19.8899 43.52 26.6299 43.52" fill="#1F1F1F"/>
<path d="M26.6299 61.26C34.0599 61.26 40.0799 57.01 40.0799 51.77C40.0799 46.53 34.0799 42.28 26.6299 42.28C19.1799 42.28 13.1699 46.53 13.1699 51.77C13.1699 57.01 19.1699 61.26 26.6299 61.26ZM26.6299 58.76C20.6899 58.76 15.6299 55.56 15.6299 51.76C15.6299 47.96 20.6299 44.76 26.6299 44.76C32.6299 44.76 37.6299 47.96 37.6299 51.76C37.6299 55.56 32.6299 58.76 26.6799 58.76" fill="#1F1F1F"/>
<path d="M51.05 20.12C51.3166 20.3627 51.5971 20.5897 51.89 20.8C51.3 22.94 50.83 28.55 50.48 32.28C50.4075 28.2186 50.5979 24.1568 51.05 20.12ZM45.77 55.12C47.1499 54.2175 48.6972 53.602 50.32 53.31C50.38 54.07 50.44 54.69 50.48 55.12H45.77ZM50.18 51.41C50.18 51.75 50.18 52.08 50.25 52.41C49.848 52.4511 49.4501 52.5247 49.06 52.63C49.43 52.27 49.81 51.87 50.18 51.43V51.41ZM49.05 15C48.9069 15.6709 48.9124 16.365 49.0662 17.0336C49.2199 17.7022 49.5182 18.329 49.94 18.87C48.86 24.96 49.94 46.69 50.05 49.22C50.5463 48.5111 50.9496 47.7415 51.25 46.93C51.25 45.62 51.17 44.2 51.15 42.72C51.7295 43.6409 51.9929 44.7258 51.9 45.81C51.7398 47.0904 51.2695 48.3125 50.53 49.37L50.43 49.52L50.13 49.94C49.0458 51.3434 47.7777 52.5946 46.36 53.66C45.5485 54.0944 44.7607 54.5717 44 55.09L43.84 55.21C43.32 55.57 42.84 55.93 42.33 56.3L42.21 56.38C42.21 56.38 41.04 57.21 41.81 58.09C41.81 58.09 41.59 57.15 43.52 56.38H51.89L51.81 55.67C51.81 55.62 51.71 54.67 51.59 53.18C51.7765 53.17 51.9634 53.17 52.15 53.18H52.4C52.51 53.23 52.6 53.32 52.49 53.52C52.3714 53.7415 52.2038 53.9331 52 54.08C52.2311 54.0435 52.4513 53.9565 52.6449 53.8251C52.8385 53.6937 53.0007 53.5213 53.12 53.32C53.54 52.64 52.68 52.09 51.71 52.17H51.52C51.52 51.44 51.42 50.61 51.37 49.7C52.1585 48.5496 52.656 47.225 52.82 45.84C52.8868 44.9717 52.77 44.099 52.4771 43.2789C52.1841 42.4587 51.7217 41.7095 51.12 41.08C51.12 40.83 51.12 40.57 51.12 40.31C51.12 40.31 52.02 23.39 52.85 20.68L52.96 20.33L52.65 20.14C52.1398 19.8125 51.667 19.4302 51.24 19C50.8053 18.5872 50.4643 18.0859 50.24 17.53C49.9022 16.8452 49.807 16.066 49.97 15.32C49.97 15.24 50.35 14.42 50.7 13.32L50.87 15.19C50.7 15.71 50.55 16.26 50.41 16.83C50.6273 17.3497 50.971 17.8069 51.41 18.16C51.5882 17.2522 51.8254 16.3569 52.12 15.48V15.35L51.31 6.34998C51.1572 7.80782 50.8522 9.24565 50.4 10.64C50.0906 12.1332 49.6385 13.5932 49.05 15Z" fill="#666666"/>
<path d="M3.26005 4.8C4.33005 4.41 6.92005 3.27 7.40005 1.29H45.85C46.33 3.29 48.93 4.41 49.9901 4.8L50.28 9C50.7682 7.42512 51.0867 5.80257 51.23 4.16V3.89L50.82 3.76C49.82 3.46 47.1 2.25 47.1 0.7V0H6.19005V0.65C6.19005 2.2 3.43005 3.41 2.46005 3.71L2.05005 3.84V4.11C2.18796 5.7697 2.50651 7.40939 3.00005 9L3.26005 4.8Z" fill="#666666"/>
<path d="M1.36001 20.8C1.65293 20.5898 1.9334 20.3627 2.20001 20.12C2.65522 24.1566 2.84896 28.2184 2.78001 32.28C2.42001 28.55 2.00001 22.94 1.36001 20.8ZM2.93001 53.28C4.55539 53.5736 6.10573 54.189 7.49001 55.09H2.78001C2.78001 54.66 2.87001 54.04 2.93001 53.28ZM3.07001 51.38C3.44001 51.82 3.82001 52.22 4.19001 52.58C3.79992 52.4748 3.40196 52.4012 3.00001 52.36C3.00001 52.05 3.00001 51.72 3.07001 51.36V51.38ZM0.0700137 53.36C0.189285 53.5613 0.351507 53.7338 0.545106 53.8651C0.738705 53.9965 0.958911 54.0835 1.19001 54.12C0.986171 53.9731 0.818576 53.7816 0.700014 53.56C0.590014 53.36 0.700014 53.27 0.790014 53.22H1.05001C1.23321 53.2099 1.41682 53.2099 1.60001 53.22C1.48001 54.74 1.39001 55.66 1.38001 55.71L1.30001 56.42H9.72001C11.64 57.19 11.42 58.13 11.42 58.13C12.19 57.25 11.03 56.42 11.03 56.42L10.92 56.34C10.43 55.97 9.92001 55.61 9.41001 55.25L9.24001 55.13C8.49001 54.63 7.72001 54.13 6.95001 53.75C5.52003 52.6805 4.24464 51.4186 3.16001 50C3.04668 49.86 2.94668 49.72 2.86001 49.58L2.76001 49.43C2.0133 48.3754 1.53921 47.1524 1.38001 45.87C1.28712 44.7858 1.55044 43.701 2.13001 42.78C2.13001 44.26 2.08001 45.68 2.03001 46.99C2.33443 47.7997 2.73747 48.5689 3.23001 49.28C3.37001 46.75 4.43001 25.02 3.34001 18.93C3.76529 18.3794 4.06303 17.7413 4.21175 17.0617C4.36047 16.3821 4.35646 15.6779 4.20001 15C3.60489 13.5861 3.14289 12.1197 2.82001 10.62C2.36779 9.2257 2.06279 7.78786 1.91001 6.33002L1.10001 15.38V15.51C1.38652 16.3886 1.62026 17.2835 1.80001 18.19C2.23542 17.8335 2.57845 17.3773 2.80001 16.86C2.66001 16.29 2.51001 15.74 2.33001 15.22L2.50001 13.35C2.85001 14.4 3.20001 15.22 3.23001 15.35C3.39386 16.0757 3.31299 16.8351 3.00001 17.51C2.77819 18.0731 2.43704 18.5814 2.00001 19C1.57232 19.455 1.09232 19.8578 0.570014 20.2L0.260014 20.39L0.370014 20.74C1.20001 23.45 2.11001 40.37 2.11001 40.37V41.14C1.50824 41.7695 1.04584 42.5188 0.752929 43.3389C0.460021 44.1591 0.343179 45.0317 0.410014 45.9C0.578574 47.2839 1.07574 48.6074 1.86001 49.76C1.81001 50.67 1.76001 51.5 1.71001 52.23H1.53001C0.530014 52.15 -0.309986 52.7 0.110014 53.38" fill="#666666"/>
<path d="M40.15 58C39.6552 57.7127 39.1897 57.3778 38.76 57C38.9343 56.7988 39.0979 56.5885 39.25 56.37H40.66C40.3135 56.8333 40.1369 57.4018 40.16 57.98L40.15 58ZM13.16 57.98C13.1831 57.4018 13.0066 56.8333 12.66 56.37H14C14.1556 56.5886 14.3225 56.7989 14.5 57C14.0727 57.3808 13.6069 57.7159 13.11 58L13.16 57.98ZM26.63 43C33.63 43 39.38 46.94 39.38 51.79C39.3617 52.9681 39.0154 54.1178 38.38 55.11C38.2583 55.3175 38.1248 55.5179 37.98 55.71L37.93 55.78C37.77 55.99 37.6 56.2 37.42 56.4C36.5198 57.3742 35.4531 58.1802 34.27 58.78L34.13 58.85C33.7472 59.0521 33.3532 59.2323 32.95 59.39H32.84C32.3819 59.5739 31.9146 59.7341 31.44 59.87H31.36C30.94 59.99 30.5 60.08 30.06 60.17L29.65 60.24C29.29 60.31 28.92 60.36 28.55 60.4H28.12C27.62 60.45 27.12 60.47 26.59 60.47C26.06 60.47 25.59 60.47 25.06 60.4H24.62C24.25 60.4 23.88 60.31 23.52 60.24L23.11 60.17C22.67 60.08 22.24 59.99 21.82 59.87H21.73C21.25 59.73 20.78 59.57 20.33 59.39H20.22C19.8176 59.2304 19.4238 59.0502 19.04 58.85L18.9 58.78C17.7169 58.1802 16.6502 57.3742 15.75 56.4C15.57 56.2 15.4 55.99 15.24 55.78V55.72C15.0908 55.5254 14.9539 55.3216 14.83 55.11C14.199 54.1158 13.8531 52.9674 13.83 51.79C13.83 46.94 19.55 43 26.59 43H26.63ZM41.2 58.51C41.13 58.45 40.2 57.63 41.48 56.38L43.11 55.09H41.59C41.8995 54.2086 42.0945 53.2911 42.17 52.36C42.5158 52.9244 43.0472 53.3508 43.6731 53.5661C44.2989 53.7814 44.9802 53.7722 45.6 53.54C45.2 53.65 43.6 53.88 42.15 50.85C42.0485 49.5203 41.4611 48.2745 40.5 47.35C41.5938 49.4323 41.8168 51.8635 41.12 54.11C41.0165 54.2416 40.8844 54.3478 40.7336 54.4206C40.5828 54.4934 40.4174 54.5308 40.25 54.53C40.6076 53.6465 40.7943 52.7031 40.8 51.75C40.8 46.13 34.44 41.56 26.64 41.56C18.84 41.56 12.47 46.15 12.47 51.77C12.4692 52.7219 12.649 53.6652 13 54.55C12.8329 54.5494 12.668 54.5113 12.5174 54.4386C12.3669 54.3659 12.2345 54.2605 12.13 54.13C11.4374 51.8821 11.664 49.4512 12.76 47.37C11.7937 48.2918 11.2024 49.5384 11.1 50.87C9.65002 53.87 8.04002 53.67 7.65002 53.56C8.26836 53.7915 8.94806 53.8004 9.57223 53.585C10.1964 53.3697 10.726 52.9436 11.07 52.38C11.1504 53.3104 11.3452 54.2273 11.65 55.11H10.14L11.77 56.4C13.08 57.65 12.12 58.47 12.05 58.53C11.0635 58.9769 9.99301 59.208 8.91002 59.208C7.82703 59.208 6.75652 58.9769 5.77002 58.53C6.37662 59.3863 7.23725 60.03 8.23002 60.37C9.36408 59.9356 10.5777 59.7481 11.79 59.82C11.79 59.82 13.79 57.24 15.79 58.3L16.1 58.54L16.17 58.6C12.23 59.14 12.52 61.87 12.52 61.87C12.91 60.67 14.52 60.8 14.52 60.8C14.87 59.48 16.89 59.68 16.91 59.68C17.1266 59.7358 17.3402 59.8025 17.55 59.88L17.73 59.96C17.8979 60.0265 18.0616 60.1033 18.22 60.19C18.3495 60.2675 18.4732 60.3544 18.59 60.45C18.68 60.52 18.78 60.57 18.87 60.65C19.0839 60.8313 19.2693 61.0436 19.42 61.28L24.61 61.87L25.61 61.96C25.99 61.96 26.38 61.96 26.77 61.96C27.16 61.96 27.54 61.96 27.92 61.96L28.92 61.87L34.11 61.28C34.7201 60.4546 35.6143 59.8846 36.62 59.68C36.62 59.68 38.62 59.47 39.01 60.8C39.01 60.8 40.6 60.67 41.01 61.87C41.01 61.87 41.3 59.14 37.35 58.6L37.43 58.54L37.73 58.3C39.65 57.24 41.73 59.82 41.73 59.82C42.9423 59.7481 44.156 59.9356 45.29 60.37C46.2861 60.0362 47.1484 59.3912 47.75 58.53C46.7635 58.9769 45.693 59.208 44.61 59.208C43.527 59.208 42.4565 58.9769 41.47 58.53" fill="#666666"/>
</g>
<defs>
<clipPath id="clip0_121_4286">
<rect width="53.25" height="61.96" fill="white"/>
</clipPath>
</defs>
</svg>
