<svg width="82" height="95" viewBox="0 0 82 95" fill="none" xmlns="http://www.w3.org/2000/svg">
<path d="M1.17029 31.4875C3.20666 42.239 3.98169 53.185 3.48015 64.1105C3.48015 64.1105 -1.33976 68.8532 3.86512 76.5203L3.43395 84.8086H78.5352L78.104 76.5203C83.3397 68.8077 78.5352 64.1105 78.5352 64.1105C78.0372 53.2001 78.8122 42.2696 80.845 31.5329L78.643 29.9268C79.3156 27.9384 79.8759 25.915 80.3215 23.8658L78.8432 6.28909C74.4544 8.04677 71.621 1.53125 71.621 1.53125H10.3789C10.3789 1.53125 7.5455 8.04677 3.15677 6.28909L1.69386 23.7749C2.13845 25.8259 2.70404 27.8496 3.38775 29.8359L1.17029 31.4875Z" fill="#1F1F1F"/>
<path d="M41.0077 66.4287C51.3713 66.4287 59.7946 72.0199 59.7946 78.9143C59.7946 85.8086 51.3713 91.3847 41.0077 91.3847C30.6441 91.3847 22.2054 85.7783 22.2054 78.8991C22.2054 72.0199 30.6441 66.4136 41.0077 66.4136" fill="#1F1F1F"/>
<path d="M41.0077 93.2938C52.4492 93.2938 61.7194 86.8541 61.7194 78.9143C61.7194 70.9744 52.48 64.5347 41.0077 64.5347C29.5354 64.5347 20.2805 70.9744 20.2805 78.9143C20.2805 86.8541 29.52 93.2938 41.0077 93.2938ZM41.0077 89.5058C31.8606 89.5058 24.0687 84.657 24.0687 78.8991C24.0687 73.1412 31.7682 68.2925 41.0077 68.2925C50.2471 68.2925 57.9466 73.1412 57.9466 78.8991C57.9466 84.657 50.2471 89.5058 41.0847 89.5058" fill="#1F1F1F"/>
<path d="M2.0942 31.9876C2.54851 31.6678 2.98065 31.3185 3.38772 30.9421C4.08838 37.0636 4.38671 43.2232 4.28087 49.3825C3.7265 43.7307 3.07974 35.2302 2.0942 31.9876ZM4.51185 81.2025C7.01558 81.6446 9.4035 82.5773 11.5338 83.9451H4.28087C4.28087 83.2935 4.41946 82.3541 4.51185 81.2025V81.2025ZM4.72744 78.3236C5.3126 78.9903 5.89777 79.5964 6.45213 80.1418C5.85143 79.9823 5.2386 79.8709 4.61965 79.8085C4.61965 79.3388 4.61965 78.8387 4.72744 78.2933V78.3236ZM0.107722 81.3237C0.291388 81.6287 0.541194 81.8901 0.839319 82.0891C1.13744 82.2882 1.47654 82.42 1.83242 82.4753C1.51852 82.2527 1.26044 81.9625 1.07786 81.6268C0.908473 81.3237 1.07786 81.1874 1.21645 81.1116H1.60143C1.88353 81.0963 2.16628 81.0963 2.44838 81.1116C2.26359 83.4148 2.125 84.8088 2.1096 84.8845L2.00181 85.9603H14.8754C15.9842 86.7634 16.7233 87.612 15.7686 88.0362C15.0822 88.2906 14.3376 88.3531 13.6173 88.2167C12.8971 88.0803 12.2292 87.7504 11.6878 87.2634C13.6435 89.7636 17.6165 90.0212 18.2786 88.8696C18.9408 87.718 16.9389 85.8997 16.9389 85.8997L16.7541 85.7785C16.015 85.2179 15.2142 84.6724 14.4442 84.1269L14.1825 83.9451C13.0275 83.1875 11.8418 82.4298 10.6561 81.8541C8.47284 80.2508 6.52451 78.3591 4.86603 76.2325V76.2325C4.69151 76.0204 4.53752 75.8083 4.40406 75.5961L4.25007 75.3688C3.10021 73.7709 2.37014 71.9177 2.125 69.9746C1.98195 68.3318 2.38744 66.688 3.27993 65.2925C3.27993 67.5351 3.20293 69.6867 3.12594 71.6717C3.58845 72.9013 4.20949 74.0675 4.97382 75.1416C5.18941 71.308 6.80631 38.3819 5.14321 29.1541C5.7981 28.3199 6.25659 27.3529 6.48561 26.3232C6.71463 25.2934 6.70845 24.2264 6.46753 23.1993C5.55109 21.0568 4.83966 18.8349 4.34246 16.5625C3.64608 14.4498 3.17641 12.2711 2.94115 10.0622L1.69382 23.775V23.972C2.14746 25.3008 2.51268 26.6573 2.78716 28.0329C3.45764 27.4927 3.98587 26.8014 4.32706 26.0176C4.11148 25.1539 3.88049 24.3205 3.60331 23.5326L3.86509 20.6991C4.40406 22.2901 4.94303 23.5326 4.98922 23.6387C5.26315 24.7684 5.13261 25.9565 4.61965 27.0025C4.27677 27.855 3.7516 28.625 3.07974 29.2602C2.41873 29.9471 1.67989 30.5572 0.877675 31.0785L0.400304 31.3664L0.569694 31.8967C1.84782 36.003 3.24913 61.6408 3.24913 61.6408V62.8075C2.32245 63.7614 1.6104 64.8967 1.15935 66.1394C0.708296 67.3821 0.52837 68.7044 0.63129 70.0201C0.897754 72.1153 1.66276 74.1192 2.86415 75.8689C2.78716 77.2477 2.71016 78.5054 2.63317 79.6115H2.35598C0.816078 79.4903 -0.477443 80.3237 0.169318 81.354L0.107722 81.3237ZM4.61965 14.1078C3.83352 11.7006 3.31715 9.21599 3.07974 6.69833V6.28921L3.7111 6.09223C5.25101 5.63766 9.45495 3.80422 9.45495 1.45561V0.470703H72.4833V1.45561C72.4833 3.80422 76.7181 5.63766 78.2118 6.09223L78.8431 6.28921V6.69833C78.6429 9.21109 78.1679 11.6953 77.4264 14.1078L76.9952 7.74384C75.3629 7.1529 71.3592 5.42553 70.62 2.42536H11.3952C10.6561 5.45583 6.66772 7.1529 5.02002 7.74384L4.61965 14.1078ZM78.6121 30.9421C79.0192 31.3185 79.4513 31.6678 79.9057 31.9876C78.9971 35.2302 78.2734 43.7307 77.7344 49.3825C77.623 43.2235 77.9162 37.0639 78.6121 30.9421V30.9421ZM70.4814 83.9754C72.6063 82.608 74.9892 81.6753 77.488 81.2328C77.5804 82.3844 77.6728 83.3238 77.7344 83.9754H70.4814ZM77.2724 78.3539C77.2724 78.869 77.2724 79.3691 77.3802 79.8691C76.7613 79.9315 76.1484 80.0429 75.5477 80.2024C76.1175 79.657 76.7027 79.0509 77.2724 78.3842V78.3539ZM75.5477 23.1993C75.321 24.2146 75.3249 25.2666 75.5591 26.2803C75.7934 27.2939 76.2522 28.2442 76.9028 29.0632C75.2397 38.291 76.9028 71.2171 77.0722 75.0506C77.8366 73.9766 78.4576 72.8104 78.9201 71.5808C78.9201 69.5958 78.7969 67.4442 78.7661 65.2016C79.6586 66.5971 80.0641 68.2409 79.9211 69.8837C79.6744 71.8239 78.9502 73.6755 77.8114 75.2779L77.6574 75.5052L77.1954 76.1416C75.5332 78.2789 73.5797 80.1808 71.39 81.7934C70.1407 82.4467 68.9276 83.165 67.7558 83.9451V83.9451L67.5094 84.1269C66.7087 84.6724 65.9695 85.2179 65.1842 85.7785L64.9994 85.8997C64.9994 85.8997 63.0129 87.6574 63.675 88.809C64.3372 89.9606 68.2948 89.703 70.2658 87.2028C69.7203 87.6881 69.0499 88.0167 68.3276 88.153C67.6054 88.2892 66.859 88.2279 66.1697 87.9756C65.2304 87.5513 65.9695 86.7028 67.0628 85.8997H79.9211L79.7979 84.8239C79.7979 84.7482 79.6439 83.3087 79.4591 81.051C79.7463 81.0359 80.0342 81.0359 80.3214 81.051V81.051H80.7064C80.8758 81.1267 81.0144 81.2631 80.845 81.5662C80.6624 81.9018 80.4043 82.1921 80.0904 82.4147C80.4463 82.3594 80.7854 82.2276 81.0835 82.0285C81.3817 81.8294 81.6315 81.5681 81.8151 81.2631C82.4619 80.2328 81.1376 79.3994 79.6439 79.5206H79.3513C79.3513 78.4145 79.1973 77.1568 79.1203 75.778C80.3345 74.0348 81.1007 72.0278 81.3532 69.9291C81.4561 68.6134 81.2762 67.2912 80.8251 66.0485C80.3741 64.8058 79.662 63.6705 78.7353 62.7166V61.5499C78.7353 61.5499 80.1366 35.9121 81.4302 31.8058L81.5842 31.2755L81.1068 30.9876C80.3105 30.4931 79.572 29.9139 78.9047 29.2602C78.2354 28.6347 77.7103 27.8751 77.3648 27.0328C76.8447 25.9897 76.6982 24.8043 76.949 23.669C76.949 23.5629 77.5342 22.3204 78.0732 20.7294L78.3349 23.5629C78.0732 24.3508 77.8422 25.1842 77.6266 26.0479C77.9612 26.8354 78.4905 27.5282 79.1665 28.0632C79.441 26.6876 79.8062 25.3311 80.2598 24.0023V23.8053L79.0125 10.1682C78.7772 12.3772 78.3076 14.5559 77.6112 16.6686C77.1249 18.9022 76.4343 21.088 75.5477 23.1993V23.1993ZM24.315 85.8997C24.0367 85.6003 23.7746 85.2868 23.5297 84.9603V84.8694C23.3036 84.5771 23.0929 84.2737 22.8983 83.9602C21.9289 82.4471 21.3966 80.7028 21.3584 78.9145C21.3584 71.5656 30.1667 65.5956 41.0076 65.5956C51.8486 65.5956 60.6414 71.5656 60.6414 78.9145C60.6112 80.704 60.0782 82.4504 59.1015 83.9602C58.9167 84.2633 58.7011 84.5663 58.4856 84.8694L58.4086 84.9603C58.1637 85.2868 57.9015 85.6003 57.6232 85.8997C54.1584 89.6878 47.9834 92.2183 40.946 92.2183C33.9087 92.2183 27.7336 89.6878 24.2534 85.8997H24.315ZM57.0996 89.2333C58.3401 88.2769 59.4389 87.1549 60.3642 85.8997H63.8136L66.3237 83.9451H64.0446C64.5286 82.6116 64.829 81.2204 64.9378 79.8085C65.4702 80.6636 66.2885 81.3098 67.2523 81.636C68.2161 81.9623 69.2652 81.9483 70.2196 81.5965C69.6037 81.7631 67.1398 82.1268 64.907 77.5205C64.7493 75.5028 63.8388 73.6139 62.3507 72.2171C63.1905 73.7773 63.7085 75.4855 63.875 77.2434C64.0415 79.0012 63.8532 80.7741 63.3209 82.4602C63.1615 82.6596 62.958 82.8205 62.7258 82.9308C62.4936 83.0411 62.239 83.0978 61.9811 83.0965C62.5319 81.7578 62.8193 80.3284 62.8281 78.8842C62.8281 70.3686 53.0343 63.4439 41.023 63.4439C29.0118 63.4439 19.2026 70.3989 19.2026 78.9145C19.2012 80.3568 19.4782 81.7862 20.0187 83.1269C19.7613 83.1259 19.5074 83.0682 19.2755 82.9581C19.0437 82.848 18.8399 82.6882 18.679 82.4905C17.6125 79.0843 17.9613 75.401 19.6491 72.2475C18.161 73.6442 17.2505 75.5331 17.0929 77.5508V77.5508C14.86 82.0965 12.3808 81.7934 11.7802 81.6268C12.7324 81.9776 13.7791 81.991 14.7402 81.6647C15.7014 81.3384 16.517 80.6927 17.0467 79.8388C17.1705 81.2485 17.4705 82.6379 17.9398 83.9754H15.6146L18.1246 85.93H21.5586C22.4683 87.1883 23.5574 88.311 24.7924 89.2636C24.7154 89.2636 18.4018 92.9001 13.5511 89.809C13.5511 89.809 14.9678 92.688 19.6183 92.5062H19.8955C25.239 91.991 27.7182 94.2184 27.7182 94.2184C27.4176 93.5114 26.9338 92.8945 26.3149 92.4291C25.6961 91.9638 24.964 91.6664 24.1919 91.5667C24.7308 91.3697 25.2852 91.1576 25.8703 90.9C27.4303 91.2031 28.8194 92.0675 29.7663 93.3244L37.7584 94.2184C39.9318 94.4811 42.1297 94.4811 44.303 94.2184V94.2184L52.2951 93.3244C53.2376 92.077 54.6132 91.2141 56.1603 90.9C56.7455 91.1576 57.2998 91.3697 57.8388 91.5667C57.0654 91.6683 56.3321 91.9662 55.7111 92.4312C55.0902 92.8961 54.6028 93.512 54.297 94.2184C54.297 94.2184 56.7917 91.991 62.1351 92.5062H62.4123C67.032 92.688 68.4796 89.809 68.4796 89.809C63.7212 92.8395 57.5616 89.4454 57.2536 89.2636" fill="#666666"/>
</svg>
