<svg width="82" height="96" viewBox="0 0 82 96" fill="none" xmlns="http://www.w3.org/2000/svg">
<path d="M1.17029 31.9002C3.20666 42.8098 3.98169 53.9168 3.48015 65.003C3.48015 65.003 -1.33976 69.8154 3.86512 77.5953L3.43395 86.0055H78.5352L78.104 77.5953C83.3397 69.7693 78.5352 65.003 78.5352 65.003C78.0372 53.9322 78.8122 42.8408 80.845 31.9463L78.643 30.3165C79.3156 28.299 79.8759 26.2458 80.3215 24.1665L78.8432 6.31585C74.4544 8.11475 71.621 1.50342 71.621 1.50342H10.3789C10.3789 1.50342 7.5455 8.11475 3.15677 6.31585L1.69386 24.0742C2.13845 26.1553 2.70404 28.2088 3.38775 30.2243L1.17029 31.9002Z" fill="#1F1F1F"/>
<path d="M41.0077 67.3557C51.3713 67.3557 59.7946 73.0292 59.7946 80.0249C59.7946 87.0206 51.3713 92.6786 41.0077 92.6786C30.6441 92.6786 22.2054 86.9898 22.2054 80.0095C22.2054 73.0292 30.6287 67.3403 41.0077 67.3403" fill="#1F1F1F"/>
<path d="M41.0077 94.6003C52.4492 94.6003 61.7194 88.0813 61.7194 80.0247C61.7194 71.9681 52.48 65.4336 41.0077 65.4336C29.5354 65.4336 20.2805 71.9681 20.2805 80.0247C20.2805 88.0813 29.52 94.6003 41.0077 94.6003ZM41.0077 90.7565C31.8606 90.7565 24.0687 85.8365 24.0687 79.9939C24.0687 74.1513 31.7682 69.2313 41.0077 69.2313C50.2471 69.2313 57.9466 74.1513 57.9466 79.9939C57.9466 85.8365 50.2471 90.7565 41.0846 90.7565" fill="#1F1F1F"/>
<path d="M2.0942 32.4077C2.54851 32.0831 2.98065 31.7287 3.38772 31.3468C4.08801 37.5532 4.38635 43.7982 4.28087 50.043C3.7265 44.3234 3.07974 35.6979 2.0942 32.4077ZM4.51185 82.3463C7.01686 82.7904 9.40566 83.7371 11.5338 85.1292H4.28087C4.28087 84.4681 4.41946 83.5148 4.51185 82.3463V82.3463ZM4.72744 79.425C5.3126 80.1015 5.89777 80.7165 6.45213 81.27C5.85007 81.1107 5.23782 80.9925 4.61965 80.9164C4.61965 80.4551 4.61965 79.9478 4.72744 79.3789V79.425ZM0.107722 82.4539C0.29459 82.7607 0.545291 83.0238 0.842851 83.2254C1.14041 83.427 1.47788 83.5624 1.83242 83.6224C1.52295 83.3917 1.26582 83.0983 1.07786 82.7614C0.908473 82.4539 1.07786 82.3155 1.21645 82.2387C1.34981 82.2311 1.48348 82.2311 1.61683 82.2387V82.2387C1.89894 82.2233 2.18167 82.2233 2.46378 82.2387C2.27899 84.5757 2.1404 85.9902 2.125 86.0671L2.00181 87.1587H9.50115C11.734 88.0812 16.2459 90.4029 15.2296 93.6778C15.7091 93.0269 16.3374 92.4998 17.0621 92.1403C15.7333 90.1203 13.9579 88.4318 11.8726 87.2049H14.9524C16.2112 87.4607 17.3335 88.1658 18.1092 89.1883C18.0622 88.782 17.9345 88.3891 17.7335 88.0327C17.5326 87.6763 17.2624 87.3635 16.9389 87.1126L16.7695 86.9896C16.015 86.4207 15.2296 85.8672 14.4442 85.3137L14.1825 85.1292C13.046 84.3593 11.8688 83.651 10.6561 83.0074C8.47284 81.3806 6.52451 79.4611 4.86603 77.3032V77.3032C4.69151 77.088 4.53752 76.8727 4.40406 76.6575L4.25007 76.4268C3.10021 74.8054 2.37014 72.9249 2.125 70.9533C1.98195 69.2863 2.38744 67.6183 3.27993 66.2023C3.27993 68.4625 3.20293 70.6611 3.12594 72.6753C3.59471 73.9203 4.21535 75.1028 4.97382 76.1962C5.18941 72.3063 6.82171 38.896 5.14321 29.5325C5.7981 28.686 6.25659 27.7048 6.48561 26.6599C6.71463 25.615 6.70845 24.5323 6.46753 23.49C5.55109 21.3161 4.83966 19.0615 4.34246 16.7557C3.64608 14.6119 3.17641 12.4012 2.94115 10.1597L1.69382 24.0743V24.2742C2.13501 25.625 2.49496 27.001 2.77176 28.3947C3.44224 27.8466 3.97047 27.1452 4.31167 26.3498C4.09608 25.4734 3.86509 24.6278 3.58791 23.8283L3.84969 20.9531C4.38866 22.5675 4.92763 23.8283 4.97382 24.0282C5.22613 25.1439 5.10159 26.3116 4.61965 27.3492C4.27677 28.2142 3.7516 28.9955 3.07974 29.6401C2.41873 30.3371 1.67989 30.9562 0.877675 31.4851L0.400304 31.7773L0.569694 32.3154C1.84782 36.4667 3.24913 62.4969 3.24913 62.4969V63.6808C2.32165 64.6481 1.60907 65.8 1.15796 67.0612C0.706862 68.3223 0.527394 69.6643 0.63129 70.9994C0.890856 73.1272 1.65645 75.1621 2.86415 76.9342C2.78716 78.3334 2.71016 79.6095 2.63317 80.7319H2.35598C0.816078 80.6089 -0.477443 81.4392 0.169318 82.5L0.107722 82.4539ZM4.61965 14.2649C3.83352 11.8223 3.31715 9.30114 3.07974 6.74645V6.31595L3.7111 6.13144C5.25101 5.67019 9.45495 3.80979 9.45495 1.42663V0.427246H72.4833V1.42663C72.4833 3.80979 76.7181 5.67019 78.2118 6.13144L78.8431 6.31595V6.74645C78.6429 9.29617 78.1679 11.8169 77.4264 14.2649L76.9952 7.80734C75.3629 7.20771 71.3592 5.45494 70.62 2.41065H11.3952C10.6561 5.48569 6.66772 7.20771 5.02002 7.80734L4.61965 14.2649ZM78.6121 31.3468C79.0192 31.7287 79.4513 32.0831 79.9057 32.4077C78.9971 35.6979 78.2734 44.3234 77.7344 50.043C77.6234 43.7986 77.9166 37.5535 78.6121 31.3468V31.3468ZM70.4814 85.16C72.603 83.766 74.9872 82.819 77.488 82.377C77.5804 83.5456 77.6728 84.4988 77.7344 85.16H70.4814ZM77.2724 79.4558C77.2724 79.9785 77.2724 80.4859 77.3802 80.9933C76.762 81.0694 76.1498 81.1875 75.5477 81.3469C76.1175 80.7934 76.7027 80.1784 77.2724 79.5019V79.4558ZM75.5323 23.49C75.312 24.5216 75.3205 25.5888 75.5573 26.6168C75.794 27.6447 76.2533 28.6084 76.9028 29.4402C75.2397 38.8037 76.9028 72.214 77.0722 76.104C77.8353 75.0109 78.461 73.8284 78.9355 72.583C78.8431 70.5689 78.7969 68.3702 78.7661 66.1101C79.6586 67.5261 80.0641 69.1941 79.9211 70.861C79.6744 72.8298 78.9502 74.7086 77.8114 76.3346L77.6574 76.5652L77.1954 77.211C75.5332 79.3797 73.5797 81.3095 71.39 82.9459C70.1373 83.6028 68.9238 84.3318 67.7558 85.1292V85.1292L67.5094 85.3137C66.7087 85.8672 65.9695 86.4207 65.1842 86.9896L64.9994 87.1126C64.3725 87.6002 63.9587 88.3109 63.8444 89.096C64.6001 88.088 65.6929 87.3843 66.9242 87.1126H70.0041C67.925 88.3423 66.1552 90.0305 64.83 92.048C65.5547 92.4076 66.183 92.9347 66.6625 93.5856C65.9695 91.3408 67.879 89.5419 69.8655 88.3272C71.6261 87.5396 73.5266 87.111 75.4553 87.0665H79.8595L79.7363 85.9748C79.7363 85.898 79.5823 84.4373 79.3975 82.1464C79.6847 82.1311 79.9726 82.1311 80.2598 82.1464V82.1464C80.388 82.138 80.5166 82.138 80.6448 82.1464C80.8142 82.2233 80.9528 82.3617 80.7834 82.6692C80.6008 83.0098 80.3427 83.3043 80.0288 83.5302C80.3834 83.4701 80.7209 83.3347 81.0184 83.1331C81.316 82.9315 81.5667 82.6684 81.7535 82.3617C82.4003 81.3008 81.076 80.4705 79.5823 80.5935H79.3051C79.2127 79.4711 79.1357 78.195 79.0587 76.7958C80.2729 75.0271 81.0391 72.9905 81.2916 70.861C81.3955 69.5259 81.216 68.1839 80.7649 66.9228C80.3138 65.6617 79.6012 64.5098 78.6737 63.5424C78.6737 63.158 78.6737 62.7583 78.6737 62.3585C78.6737 62.3585 80.0596 36.3283 81.3378 32.177L81.5072 31.6389L81.0298 31.3468C80.2626 30.855 79.5502 30.2829 78.9047 29.6401C78.2354 29.0054 77.7103 28.2347 77.3648 27.38C76.8447 26.3271 76.6981 25.129 76.949 23.982C76.949 23.859 77.5342 22.5983 78.0732 20.907L78.3349 23.7822C78.0732 24.5817 77.8422 25.4273 77.6266 26.3037C77.9612 27.1028 78.4905 27.8057 79.1665 28.3486C79.441 26.9528 79.8062 25.5764 80.2598 24.2281V24.0282L79.0125 10.1905C78.7772 12.432 78.3076 14.6427 77.6112 16.7865C77.1426 19.0843 76.4462 21.3299 75.5323 23.49ZM24.3304 87.1126C24.0464 86.8096 23.7791 86.4914 23.5297 86.1593V86.0671C23.3 85.7678 23.0891 85.4546 22.8983 85.1292C21.9287 83.5996 21.3962 81.8345 21.3584 80.0246C21.3584 72.5677 30.1667 66.5098 41.0076 66.5098C51.8486 66.5098 60.6414 72.5677 60.6414 80.0246C60.6025 81.8391 60.0702 83.6089 59.1015 85.1446L58.4702 86.0671L58.3932 86.1593C58.1468 86.4822 57.885 86.8051 57.6078 87.1126C54.143 90.9564 47.968 93.5241 40.9306 93.5241C33.8933 93.5241 27.7182 90.9564 24.2534 87.1126H24.3304ZM60.3488 87.1126H62.6433C61.6098 87.9359 60.8567 89.0584 60.4874 90.326C61.0814 90.449 61.6563 90.6506 62.1967 90.9257C61.3036 88.8346 63.7366 87.1126 63.7366 87.1126L66.2467 85.1292H64.0446C64.5213 83.7741 64.8214 82.3634 64.9378 80.9318C65.4675 81.7983 66.2831 82.4534 67.2442 82.7845C68.2054 83.1157 69.2521 83.102 70.2042 82.7461C69.6037 82.9152 67.1244 83.2688 64.907 78.6101C64.7506 76.5657 63.8462 74.6502 62.3661 73.2288C64.0458 76.4312 64.3943 80.1653 63.3363 83.6224C63.1716 83.8226 62.9648 83.9842 62.7306 84.0958C62.4965 84.2074 62.2406 84.2663 61.9811 84.2682C62.5319 82.9098 62.8193 81.4593 62.8281 79.9939C62.8281 71.353 53.0343 64.3266 41.023 64.3266C29.0118 64.3266 19.2026 71.3838 19.2026 80.0246C19.2085 81.4875 19.4852 82.9366 20.0187 84.2989C19.7613 84.298 19.5074 84.2394 19.2755 84.1277C19.0437 84.016 18.8399 83.8538 18.679 83.6532C17.6125 80.1969 17.9613 76.4595 19.6491 73.2596C18.161 74.6768 17.2505 76.5936 17.0929 78.6409V78.6409C14.86 83.2534 12.3808 82.9459 11.7802 82.7768C12.7324 83.1328 13.7791 83.1464 14.7402 82.8153C15.7014 82.4842 16.517 81.829 17.0467 80.9625C17.1705 82.393 17.4705 83.8028 17.9398 85.16H15.6146L18.1092 87.128C18.1092 87.128 20.6039 88.85 19.6491 90.941C20.1896 90.666 20.7644 90.4643 21.3584 90.3414C20.9892 89.0738 20.2361 87.9513 19.2026 87.128H21.5586C22.4507 88.372 23.5134 89.4847 24.7154 90.4337C21.389 90.6985 18.236 92.0246 15.7224 94.2159C20.958 92.7707 23.2987 94.2159 23.2987 94.2159C23.2026 93.8556 23.0075 93.5293 22.7353 93.2739C22.4632 93.0185 22.125 92.8442 21.7588 92.7707C21.8666 91.0794 25.9165 92.1864 25.9165 92.1864C27.4777 92.5006 28.8662 93.3829 29.8125 94.6618L37.8046 95.569C39.978 95.8355 42.1759 95.8355 44.3492 95.569V95.569L52.3413 94.6618C53.2807 93.3928 54.6578 92.5164 56.2065 92.2018C56.2065 92.2018 60.2565 91.0948 60.3642 92.7861C59.9981 92.8596 59.6598 93.0339 59.3877 93.2893C59.1156 93.5447 58.9204 93.871 58.8243 94.2313C58.8243 94.2313 61.011 92.6784 66.2159 94.2159C63.7082 92.0293 60.5583 90.713 57.2382 90.4644C58.4364 89.5054 59.4984 88.3881 60.395 87.1434" fill="#666666"/>
</svg>
