<svg width="61" height="453" viewBox="0 0 61 453" fill="none" xmlns="http://www.w3.org/2000/svg">
<g clip-path="url(#clip0_121_4280)">
<path d="M15.72 445.36C16.3041 444.78 16.9254 444.239 17.58 443.74C14.4513 444.776 11.1392 445.141 7.86 444.81C8.96131 445.169 10.1117 445.354 11.27 445.36H15.72ZM1.17 433.41L0 429.05V438.31C0.25 438.69 0.53 439.11 0.87 439.55C0.491743 437.508 0.594457 435.406 1.17 433.41ZM38.78 448.87H37.87C35.7599 450.763 33.0249 451.81 30.19 451.81C27.3551 451.81 24.6201 450.763 22.51 448.87H21.6C21.87 449.14 22.16 449.4 22.46 449.65C22.5128 449.64 22.5672 449.64 22.62 449.65C22.6944 449.65 22.768 449.665 22.8366 449.694C22.9052 449.722 22.9674 449.764 23.0196 449.818C23.0717 449.871 23.1127 449.934 23.1403 450.003C23.1678 450.072 23.1813 450.146 23.18 450.22C25.2241 451.675 27.6709 452.457 30.18 452.457C32.6891 452.457 35.1359 451.675 37.18 450.22C37.1787 450.146 37.1922 450.072 37.2197 450.003C37.2473 449.934 37.2883 449.871 37.3404 449.818C37.3926 449.764 37.4548 449.722 37.5234 449.694C37.592 449.665 37.6656 449.65 37.74 449.65C37.7962 449.64 37.8538 449.64 37.91 449.65C38.21 449.4 38.49 449.14 38.77 448.87H38.78ZM60.37 439.64V441.47C56.9946 445.107 52.6284 447.676 47.81 448.86H39.45C39.1351 449.211 38.8012 449.545 38.45 449.86H43.4C43.64 449.86 43.87 449.86 44.1 449.86H52.18L52.9 448.86H49.75C53.7773 447.522 57.4233 445.234 60.38 442.19V444.72C60.38 444.72 56.73 446.89 55.8 448.86H53.85L52.57 450.58H45.27C42.45 450.93 38.89 451.58 37.2 452.76C37.2 452.76 36 453.49 36 452.3C36 451.57 38.74 450.95 40.87 450.58H38.14C38.0894 450.632 38.0287 450.673 37.9616 450.7C37.8945 450.728 37.8225 450.741 37.75 450.74C37.6382 450.734 37.5306 450.696 37.44 450.63C35.3185 452.126 32.786 452.929 30.19 452.929C27.594 452.929 25.0615 452.126 22.94 450.63C22.8456 450.696 22.7348 450.734 22.62 450.74C22.5477 450.74 22.476 450.726 22.4091 450.699C22.3421 450.671 22.2813 450.631 22.23 450.58H19.51C21.63 450.95 24.37 451.58 24.37 452.3C24.37 453.49 23.17 452.76 23.17 452.76C21.49 451.59 17.93 450.93 15.1 450.58H7.81L6.53 448.87H4.58C3.65 446.87 0 444.72 0 444.72V442.19C2.95662 445.237 6.60241 447.528 10.63 448.87H7.46L8.18 449.87H16.26H16.96H21.91C21.57 449.57 21.24 449.24 20.91 448.87H12.57C7.74795 447.682 3.37861 445.11 0 441.47L0 439.64C2 442.37 5.7 446.11 11.27 446.11H23.69C23.7563 446.233 23.8543 446.336 23.9739 446.408C24.0935 446.48 24.2303 446.519 24.37 446.52C24.5795 446.52 24.7805 446.437 24.9286 446.289C25.0768 446.14 25.16 445.94 25.16 445.73C25.16 445.52 25.0768 445.32 24.9286 445.171C24.7805 445.023 24.5795 444.94 24.37 444.94C24.2291 444.941 24.0911 444.981 23.9712 445.055C23.8513 445.129 23.7541 445.234 23.69 445.36H16.83C20.4768 442.022 25.2413 440.171 30.185 440.171C35.1287 440.171 39.8932 442.022 43.54 445.36H36.68C36.6168 445.234 36.5198 445.128 36.3997 445.053C36.2796 444.979 36.1412 444.94 36 444.94C35.7905 444.94 35.5895 445.023 35.4414 445.171C35.2932 445.32 35.21 445.52 35.21 445.73C35.21 445.94 35.2932 446.14 35.4414 446.289C35.5895 446.437 35.7905 446.52 36 446.52C36.1399 446.52 36.2771 446.482 36.3969 446.409C36.5167 446.337 36.6146 446.234 36.68 446.11H49.1C54.67 446.11 58.39 442.37 60.38 439.64H60.37ZM59.51 439.56C59.84 439.11 60.13 438.69 60.38 438.31V429L59.2 433.37C59.7779 435.368 59.884 437.474 59.51 439.52V439.56ZM49.1 445.32C50.2615 445.314 51.4151 445.128 52.52 444.77C49.2408 445.106 45.9275 444.742 42.8 443.7C43.4525 444.202 44.0736 444.743 44.66 445.32H49.1ZM49.1 7.59H44.66C44.0721 8.17516 43.4511 8.72606 42.8 9.24C45.9292 8.20614 49.2415 7.84492 52.52 8.18C51.4162 7.81719 50.2619 7.63156 49.1 7.63V7.59ZM59.2 19.57L60.38 23.94V14.67C60.13 14.29 59.84 13.87 59.51 13.43C59.8843 15.473 59.7781 17.5751 59.2 19.57ZM37.92 3.34C37.8635 3.34561 37.8065 3.34561 37.75 3.34C37.6015 3.34 37.459 3.281 37.354 3.17598C37.249 3.07096 37.19 2.92852 37.19 2.78C35.1459 1.32482 32.6991 0.542844 30.19 0.542844C27.6809 0.542844 25.2341 1.32482 23.19 2.78C23.19 2.92852 23.131 3.07096 23.026 3.17598C22.921 3.281 22.7785 3.34 22.63 3.34C22.5768 3.34563 22.5232 3.34563 22.47 3.34C22.1668 3.58122 21.8796 3.84176 21.61 4.12H22.52C24.627 2.22055 27.3632 1.1693 30.2 1.1693C33.0368 1.1693 35.773 2.22055 37.88 4.12H38.79C38.518 3.84424 38.2309 3.58384 37.93 3.34H37.92ZM49.76 4.11H52.92L52.2 3.11H44.11C43.88 3.11 43.65 3.11 43.41 3.11H38.46C38.8067 3.42333 39.14 3.75666 39.46 4.11H47.82C52.6405 5.30173 57.0088 7.87338 60.39 11.51V13.34C58.39 10.61 54.68 6.88 49.11 6.88H36.68C36.6168 6.75374 36.5198 6.64757 36.3997 6.57339C36.2796 6.49921 36.1412 6.45994 36 6.46C35.8257 6.49998 35.6701 6.59791 35.5587 6.73778C35.4473 6.87765 35.3866 7.05118 35.3866 7.23C35.3866 7.40882 35.4473 7.58235 35.5587 7.72221C35.6701 7.86208 35.8257 7.96001 36 8C36.1399 7.99988 36.2771 7.96164 36.3969 7.88941C36.5167 7.81717 36.6146 7.71366 36.68 7.59H43.54C39.8988 10.9338 35.1336 12.7863 30.19 12.78C25.2491 12.7958 20.4819 10.9582 16.83 7.63H23.69C23.7579 7.75161 23.8563 7.85341 23.9755 7.92532C24.0948 7.99723 24.2308 8.03675 24.37 8.04C24.5106 8.04318 24.6495 8.00878 24.7724 7.94033C24.8952 7.87189 24.9976 7.77189 25.0689 7.65067C25.1402 7.52944 25.1778 7.39139 25.1779 7.25075C25.178 7.11012 25.1405 6.97201 25.0694 6.85068C24.9983 6.72936 24.8961 6.62922 24.7733 6.5606C24.6506 6.49199 24.5117 6.45739 24.3711 6.46038C24.2305 6.46337 24.0932 6.50383 23.9735 6.5776C23.8538 6.65137 23.7559 6.75576 23.69 6.88H11.27C5.7 6.88 2 10.61 0 13.35V11.51C3.37535 7.87321 7.74161 5.30421 12.56 4.12H20.92C21.24 3.78 21.57 3.46 21.92 3.12H17H16.31H8.18L7.46 4.12H10.63C6.60155 5.45552 2.95496 7.74365 0 10.79L0 8.26C0 8.26 3.65 6.09 4.58 4.12H6.58L7.81 2.4H15.1C17.93 2.05 21.49 1.4 23.17 0.219996C23.17 0.219996 24.37 -0.510004 24.37 0.679996C24.37 1.41 21.63 2.03 19.51 2.4H22.23C22.3364 2.30125 22.4749 2.2444 22.62 2.24C22.7348 2.24628 22.8456 2.28437 22.94 2.35C25.0615 0.853883 27.594 0.0507502 30.19 0.0507502C32.786 0.0507502 35.3185 0.853883 37.44 2.35C37.5367 2.26492 37.6612 2.21799 37.79 2.21799C37.9188 2.21799 38.0433 2.26492 38.14 2.35H40.87C38.74 2 36 1.41 36 0.679996C36 -0.510004 37.2 0.219996 37.2 0.219996C38.89 1.39 42.45 2.05 45.27 2.4H52.57L53.85 4.11H55.8C56.73 6.11 60.38 8.26 60.38 8.26V10.79C57.4197 7.74797 53.7751 5.45766 49.75 4.11H49.76ZM58.75 19.49C59.399 17.2304 59.4369 14.8391 58.86 12.56C57.8932 11.408 56.7688 10.3981 55.52 9.56C50.65 7.21 43.52 9.47 41.52 10.21C38.183 12.3958 34.2791 13.5569 30.29 13.55C26.2827 13.5728 22.357 12.4184 19 10.23C16.94 9.49 9.8 7.23 4.94 9.59C3.69712 10.4281 2.57933 11.4381 1.62 12.59C1.04267 14.8685 1.07717 17.2591 1.72 19.52V19.59V19.66L0 25.86V427.12L1.69 433.42V433.49C1.04241 435.75 1.00789 438.142 1.59 440.42C2.55456 441.574 3.67929 442.584 4.93 443.42C9.79 445.78 16.93 443.51 18.93 442.77C22.2742 440.597 26.1768 439.44 30.165 439.44C34.1532 439.44 38.0558 440.597 41.4 442.77C43.46 443.52 50.6 445.77 55.47 443.41C56.7101 442.572 57.8246 441.562 58.78 440.41C59.3675 438.133 59.3329 435.739 58.68 433.48V433.41V433.34L60.36 427.11V25.86L58.66 19.56L58.75 19.49ZM0.87 13.43C0.53 13.87 0.25 14.29 0 14.67V23.94L1.17 19.57C0.594457 17.5744 0.491743 15.4722 0.87 13.43ZM7.87 8.18C8.97033 7.81708 10.1214 7.63143 11.28 7.63H15.72C16.3124 8.20157 16.9367 8.7391 17.59 9.24C14.4584 8.20116 11.1418 7.83984 7.86 8.18" fill="#353535"/>
</g>
<defs>
<clipPath id="clip0_121_4280">
<rect width="60.38" height="452.98" fill="white"/>
</clipPath>
</defs>
</svg>
