<svg width="82" height="96" viewBox="0 0 82 96" fill="none" xmlns="http://www.w3.org/2000/svg">
<path d="M1.17041 31.5173C3.20678 42.3195 3.98181 53.3171 3.48027 64.2941C3.48027 64.2941 -1.33964 69.0591 3.86525 76.7624L3.43407 85.0898H78.5353L78.1041 76.7624C83.3398 69.0135 78.5353 64.2941 78.5353 64.2941C78.0373 53.3323 78.8123 42.3502 80.8452 31.563L78.6431 29.9493C79.3157 27.9516 79.876 25.9186 80.3216 23.8598L78.8433 6.18496C74.4546 7.96614 71.6211 1.41992 71.6211 1.41992H10.379C10.379 1.41992 7.54562 7.96614 3.15689 6.18496L1.69398 23.7684C2.13857 25.829 2.70416 27.8623 3.38788 29.8579L1.17041 31.5173Z" fill="#1F1F1F"/>
<path d="M41.0077 66.6236C51.3713 66.6236 59.7946 72.2412 59.7946 79.168C59.7946 86.0948 51.3713 91.6972 41.0077 91.6972C30.6441 91.6972 22.2054 86.0644 22.2054 79.1528C22.2054 72.2412 30.6287 66.6084 41.0077 66.6084" fill="#1F1F1F"/>
<path d="M41.0078 93.6002C52.4493 93.6002 61.7195 87.1453 61.7195 79.1681C61.7195 71.1908 52.4801 64.7207 41.0078 64.7207C29.5355 64.7207 20.2806 71.1908 20.2806 79.1681C20.2806 87.1453 29.5201 93.6002 41.0078 93.6002ZM41.0078 89.7943C31.8607 89.7943 24.0688 84.9226 24.0688 79.1376C24.0688 73.3526 31.7683 68.481 41.0078 68.481C50.2472 68.481 57.9467 73.3526 57.9467 79.1376C57.9467 84.9226 50.2472 89.7943 41.0848 89.7943" fill="#1F1F1F"/>
<path d="M4.28096 49.4816C4.38645 43.2983 4.08811 37.1148 3.38782 30.9695C2.98074 31.3477 2.54861 31.6986 2.0943 32.0199C3.07984 35.2778 3.7266 43.8184 4.28096 49.4816ZM4.28096 84.2223H11.5339C9.40288 82.8463 7.01567 81.9044 4.51195 81.4515C4.41956 82.6238 4.34256 83.5676 4.28096 84.2223V84.2223ZM4.61974 80.0509C5.23792 80.1263 5.85017 80.2433 6.45223 80.4011C5.88247 79.853 5.3127 79.2441 4.72754 78.5742C4.72754 79.0918 4.72754 79.5942 4.61974 80.0966V80.0509ZM24.4229 89.2309C23.3482 88.3425 22.3956 87.3189 21.5895 86.1861H19.7878C20.6502 87.404 22.3441 89.2309 24.4075 89.2309H24.4229ZM21.3277 79.1832C21.3584 80.9763 21.8915 82.7259 22.8676 84.2375C23.0584 84.5597 23.2693 84.8698 23.499 85.1661V85.2575C23.7454 85.5772 24.0072 85.8969 24.2843 86.2013C27.7645 90.0073 33.9242 92.5497 40.9769 92.5497C48.0297 92.5497 54.1893 90.0073 57.6541 86.2013C57.9313 85.8969 58.1931 85.5772 58.4395 85.2575L58.5165 85.1509C58.732 84.8464 58.9476 84.542 59.1324 84.2223C60.1086 82.7107 60.6416 80.9611 60.6723 79.168C60.6723 71.7844 51.8641 65.7863 41.0385 65.7863C30.213 65.7863 21.3893 71.7844 21.3893 79.168L21.3277 79.1832ZM60.4567 86.1861C59.645 87.3192 58.6874 88.3427 57.6079 89.2309C59.6714 89.2309 61.3499 87.4192 62.2276 86.1861H60.4567ZM70.5123 84.2223H77.7653C77.7653 83.5676 77.6113 82.6238 77.5189 81.4515C75.0193 81.9019 72.6366 82.8442 70.5123 84.2223V84.2223ZM75.5786 80.4011C76.1807 80.2433 76.7929 80.1263 77.4111 80.0509C77.4111 79.5942 77.4111 79.0918 77.3033 78.5286C76.7335 79.1984 76.1484 79.8074 75.5786 80.3554V80.4011ZM77.7653 49.4359C78.3042 43.7727 79.028 35.2322 79.9365 31.9743C79.4822 31.6529 79.0501 31.302 78.643 30.9238C77.9475 37.0694 77.6543 43.253 77.7653 49.4359V49.4359ZM2.35608 79.853H2.63326C2.71026 78.7417 2.78726 77.4781 2.86425 76.0928C1.66285 74.3348 0.897851 72.3215 0.631387 70.2164C0.528724 68.8968 0.708823 67.5707 1.15992 66.3246C1.61101 65.0786 2.32295 63.9406 3.24923 62.9851V61.8129C3.24923 61.8129 1.84791 36.039 0.569791 31.9286L0.400401 31.3958L0.877772 31.1065C1.67573 30.5771 2.41397 29.9647 3.07984 29.2797C3.74807 28.6503 4.27302 27.8874 4.61974 27.0418C5.13986 25.9938 5.28638 24.8028 5.03552 23.6621C5.03552 23.5555 4.45035 22.3072 3.91139 20.7087L3.6496 23.5555C3.92679 24.3472 4.15777 25.1845 4.37336 26.0522C4.03217 26.8397 3.50394 27.5343 2.83345 28.077C2.55666 26.697 2.1967 25.3346 1.75552 23.997V23.7991L3.00284 10.0977C3.23811 12.3171 3.70777 14.506 4.40416 16.6287C4.88782 18.8736 5.57853 21.0699 6.46763 23.1902C6.68795 24.2116 6.67943 25.2683 6.44267 26.2861C6.2059 27.3039 5.74664 28.2581 5.09711 29.0818C6.76021 38.353 5.09711 71.4343 4.92772 75.2859C4.16338 74.2068 3.54235 73.0351 3.07984 71.7997C3.07984 69.8053 3.20303 67.6283 3.23383 65.3905C2.34134 66.7925 1.93585 68.4441 2.0789 70.0946C2.32404 72.0468 3.05411 73.9087 4.20397 75.5143C4.24637 75.5912 4.29808 75.6628 4.35796 75.7274C4.49426 75.9488 4.64337 76.1623 4.80453 76.3668V76.3668C6.47511 78.512 8.43338 80.4224 10.6254 82.0453C11.8381 82.6825 13.0153 83.3838 14.1518 84.1461V84.1461L14.4135 84.3288C15.2143 84.8617 15.9535 85.4249 16.7234 85.9882L16.9082 86.11H8.05373C7.93054 86.9016 7.94594 89.2461 12.0267 90.0986C12.0267 90.0986 12.6273 92.1234 18.6945 93.5392C24.7617 94.955 19.9418 87.5563 18.0939 86.11L15.5993 84.1614H17.9399C17.4706 82.8176 17.1706 81.4217 17.0468 80.0053C16.517 80.8632 15.7015 81.5119 14.7403 81.8398C13.7792 82.1676 12.7325 82.1542 11.7803 81.8017C12.3809 81.9691 14.8601 82.3193 17.093 77.7065C17.2506 75.6793 18.1611 73.7815 19.6492 72.3782C17.9614 75.5466 17.6126 79.2472 18.6791 82.6694C18.8423 82.8693 19.0488 83.0304 19.2833 83.1411C19.5178 83.2517 19.7744 83.309 20.0342 83.3088C19.4727 81.9665 19.1799 80.5292 19.1719 79.0766C19.1719 70.5209 28.9657 63.5484 40.9923 63.5484C53.019 63.5484 62.7974 70.5209 62.7974 79.0766C62.7871 80.5275 62.4997 81.9634 61.9504 83.3088C62.2099 83.3069 62.4658 83.2486 62.6999 83.1381C62.9341 83.0277 63.1409 82.8676 63.3056 82.6694C64.3636 79.2463 64.0151 75.549 62.3354 72.3782C63.8155 73.7856 64.7199 75.6822 64.8763 77.7065V77.7065C67.0937 82.2736 69.573 81.9691 70.1889 81.8017C69.2342 82.1522 68.1861 82.1647 67.2231 81.8372C66.2601 81.5096 65.4416 80.8623 64.9071 80.0053C64.7907 81.4227 64.4905 82.8196 64.0139 84.1614H66.3546L63.8445 86.1252C61.9966 87.5715 57.1767 94.955 63.244 93.5544C69.3112 92.1538 69.9272 90.1748 69.9272 90.1748C74.0233 89.3222 74.0387 86.9778 73.9155 86.1861H65.0149L65.1996 86.0643C65.9388 85.5011 66.7395 84.9378 67.5249 84.4049L67.7713 84.2223C68.9109 83.4565 70.0933 82.7551 71.3131 82.1214C73.5019 80.5066 75.4599 78.6067 77.1339 76.4734V76.4734L77.5959 75.834L77.7499 75.6208C78.8887 74.0109 79.6128 72.1505 79.8596 70.2012C80.0026 68.5506 79.5971 66.899 78.7046 65.497C78.7046 67.7349 78.7816 69.9119 78.874 71.9062C78.3995 73.1393 77.7738 74.3101 77.0107 75.3925C76.7951 71.5409 75.1782 38.4596 76.8413 29.1883C76.1869 28.3471 75.7299 27.3724 75.5035 26.335C75.2771 25.2976 75.287 24.2233 75.5324 23.1902C76.4563 21.0403 77.168 18.8073 77.6575 16.5221C78.3539 14.3995 78.8235 12.2105 79.0588 9.99114L80.3061 23.7687V23.9666C79.8525 25.3016 79.4873 26.6645 79.2128 28.0465C78.5368 27.509 78.0075 26.813 77.6729 26.0218C77.8885 25.154 78.1195 24.3167 78.3812 23.5251L78.1195 20.6782C77.5805 22.2767 77.0415 23.5251 76.9953 23.6316C76.7445 24.7723 76.891 25.9633 77.4111 27.0113C77.7566 27.8576 78.2817 28.6207 78.951 29.2492C79.6216 29.9442 80.3649 30.5668 81.1685 31.1065L81.6458 31.3958L81.4765 31.9286C80.1983 36.039 78.797 61.8129 78.797 61.8129V62.9851C79.7233 63.9406 80.4352 65.0786 80.8863 66.3246C81.3374 67.5707 81.5175 68.8968 81.4149 70.2164C81.1654 72.3303 80.3991 74.3524 79.182 76.108C79.182 77.4933 79.336 78.7569 79.413 79.8683H79.6902C81.2301 79.7465 82.5236 80.5686 81.8768 81.619C81.69 81.9227 81.4393 82.1832 81.1417 82.3828C80.8441 82.5825 80.5067 82.7165 80.1521 82.776C80.4686 82.5488 80.727 82.2517 80.9067 81.9082C81.0761 81.619 80.9067 81.482 80.7681 81.4059H80.3831C80.101 81.3909 79.8183 81.3909 79.5362 81.4059C79.7056 83.7199 79.8596 85.1205 79.8596 85.1966L79.9827 86.2775H75.979C74.1465 93.2195 61.3191 95.5183 61.3191 95.5183C60.6642 94.9083 59.8772 94.4541 59.0179 94.1903C58.1586 93.9265 57.2498 93.86 56.3606 93.9959C57.6612 93.2208 58.5973 91.9669 58.963 90.5097L56.068 91.1947C54.5193 91.5062 53.1422 92.374 52.2028 93.6305L44.2107 94.5287C42.0374 94.7927 39.8395 94.7927 37.6661 94.5287V94.5287L29.6894 93.6305C28.7323 92.3685 27.341 91.4966 25.7781 91.1795V91.1795L22.883 90.4944C23.2488 91.9516 24.1848 93.2056 25.4855 93.9807C24.5963 93.8448 23.6874 93.9113 22.8282 94.1751C21.9689 94.4389 21.1819 94.8931 20.527 95.5031C20.527 95.5031 7.69956 93.2043 5.86707 86.2622H2.0789L2.18669 85.1814C2.18669 85.1052 2.34068 83.659 2.52547 81.3906C2.24337 81.3753 1.96063 81.3753 1.67852 81.3906V81.3906H1.29355C1.12416 81.4668 0.985565 81.6038 1.15495 81.893C1.33466 82.2364 1.59304 82.5336 1.90951 82.7608C1.55497 82.7013 1.2175 82.5672 0.919943 82.3676C0.622383 82.168 0.371682 81.9075 0.184814 81.6038C-0.461946 80.5533 0.862373 79.7312 2.37148 79.853H2.35608ZM4.61974 14.0559C3.83362 11.6373 3.31725 9.14099 3.07984 6.61146V6.20042L3.7112 6.00251C5.2511 5.5458 9.45505 3.70372 9.45505 1.32881V0.354492H72.4834V1.32881C72.4834 3.70372 76.7181 5.5458 78.2119 6.00251L78.8432 6.20042V6.61146C78.643 9.13607 78.168 11.632 77.4265 14.0559L76.9953 7.6619C75.363 7.06818 71.3593 5.33267 70.6201 2.31836H11.3953C10.6562 5.36311 6.66782 7.06818 5.02012 7.6619L4.61974 14.0559Z" fill="#666666"/>
</svg>
