<svg width="82" height="97" viewBox="0 0 82 97" fill="none" xmlns="http://www.w3.org/2000/svg">
<path d="M1.17041 31.6313C3.20678 42.5959 3.98181 53.7588 3.48027 64.9008C3.48027 64.9008 -1.33964 69.7375 3.86525 77.5565L3.43407 86.009H78.5353L78.1041 77.5565C83.3398 69.6911 78.5353 64.9008 78.5353 64.9008C78.0373 53.7742 78.8123 42.6271 80.8452 31.6777L78.6431 30.0397C79.3157 28.012 79.876 25.9485 80.3216 23.8587L78.8433 5.91821C74.4546 7.72616 71.6211 1.08154 71.6211 1.08154H10.379C10.379 1.08154 7.54562 7.72616 3.15689 5.91821L1.69398 23.766C2.13857 25.8576 2.70416 27.9214 3.38788 29.947L1.17041 31.6313Z" fill="#1F1F1F"/>
<path d="M41.0077 67.265C51.3713 67.265 59.7946 72.967 59.7946 79.9979C59.7946 87.0288 51.3713 92.7154 41.0077 92.7154C30.6441 92.7154 22.2054 86.9979 22.2054 79.9825C22.2054 72.967 30.6287 67.2495 41.0077 67.2495" fill="#1F1F1F"/>
<path d="M41.0078 94.6471C52.4493 94.6471 61.7195 88.0952 61.7195 79.998C61.7195 71.9009 52.4801 65.3335 41.0078 65.3335C29.5355 65.3335 20.2806 71.9009 20.2806 79.998C20.2806 88.0952 29.5201 94.6471 41.0078 94.6471ZM41.0078 90.7839C31.8607 90.7839 24.0688 85.8391 24.0688 79.9671C24.0688 74.0951 31.7683 69.1503 41.0078 69.1503C50.2472 69.1503 57.9467 74.0951 57.9467 79.9671C57.9467 85.8391 50.2472 90.7839 41.0848 90.7839" fill="#1F1F1F"/>
<path d="M4.28096 49.8655C4.38645 43.5893 4.08811 37.3128 3.38782 31.0752C2.97674 31.4545 2.5449 31.8104 2.0943 32.1414C3.07984 35.4483 3.7266 44.1172 4.28096 49.8655ZM4.28096 85.1284H11.5339C9.40288 83.7317 7.01567 82.7756 4.51195 82.316C4.41956 83.5059 4.34256 84.4639 4.28096 85.1284V85.1284ZM4.61974 80.8944C5.23792 80.9709 5.85017 81.0896 6.45223 81.2498C5.88247 80.6935 5.3127 80.0754 4.72754 79.3955C4.72754 79.9209 4.72754 80.4308 4.61974 80.9407V80.8944ZM20.2498 91.7575C18.52 91.6989 16.7913 91.902 15.1219 92.3602C17.9245 93.5191 21.4355 94.5854 22.5135 93.9827H22.5904C22.1593 93.5655 21.3431 92.7929 20.2498 91.8194V91.7575ZM41.0077 93.6428C48.0451 93.6428 54.2201 91.0622 57.6849 87.199C57.9621 86.89 58.2239 86.5655 58.4703 86.241L58.5473 86.1328C58.7702 85.8359 58.9758 85.5263 59.1632 85.2056C60.1394 83.6713 60.6724 81.8955 60.7031 80.0754C60.7031 72.5809 51.8949 66.4925 41.0693 66.4925C30.2438 66.4925 21.4201 72.5809 21.4201 80.0754C21.4579 81.8943 21.9904 83.6683 22.96 85.2056C23.1508 85.5327 23.3616 85.8475 23.5914 86.1482V86.241C23.8378 86.5655 24.0996 86.89 24.3767 87.199C27.8569 91.0622 34.0166 93.6428 41.0693 93.6428H41.0077ZM59.5482 93.9827H59.6252C60.7031 94.5854 64.2449 93.5191 67.0321 92.3602C65.3573 91.903 63.6236 91.6999 61.8888 91.7575C60.7955 92.7311 59.9794 93.5037 59.5482 93.9209V93.9827ZM70.6201 85.1438H77.8731C77.8731 84.4794 77.7191 83.5213 77.6267 82.3315C75.1271 82.7886 72.7444 83.745 70.6201 85.1438V85.1438ZM75.6864 81.2652C76.2885 81.1051 76.9007 80.9863 77.5189 80.9098C77.5189 80.4462 77.5189 79.9363 77.4111 79.3646C76.8413 80.0445 76.2562 80.6626 75.6864 81.2189V81.2652ZM77.8731 49.8346C78.412 44.0863 79.1358 35.4174 80.0443 32.1105C79.5937 31.7795 79.1619 31.4235 78.7508 31.0443C78.0553 37.2822 77.7621 43.5588 77.8731 49.8346V49.8346ZM2.35608 80.6935H2.63326C2.71026 79.5654 2.78726 78.2829 2.86425 76.8767C1.65867 75.0945 0.893275 73.0499 0.631387 70.912C0.528724 69.5726 0.708823 68.2265 1.15992 66.9617C1.61101 65.6969 2.32295 64.5419 3.24923 63.572V62.3821C3.24923 62.3821 1.84791 36.2209 0.569791 32.0487L0.400401 31.5079L0.877772 31.2143C1.67734 30.6791 2.4158 30.0572 3.07984 29.3599C3.75776 28.7112 4.28371 27.9195 4.61974 27.0421C5.14107 25.9842 5.28772 24.7797 5.03552 23.627C5.03552 23.5189 4.45035 22.2517 3.91139 20.6292L3.6496 23.5189C3.92679 24.3224 4.15777 25.1723 4.37336 26.0531C4.03217 26.8524 3.50394 27.5574 2.83345 28.1083C2.55666 26.7075 2.1967 25.3246 1.75552 23.967V23.7661L3.00284 9.85876C3.23811 12.1115 3.70777 14.3333 4.40416 16.4879C4.87847 18.779 5.56942 21.0195 6.46763 23.1789C6.68795 24.2157 6.67943 25.2883 6.44267 26.3214C6.2059 27.3545 5.74664 28.323 5.09711 29.1591C6.76021 38.5697 5.09711 72.1482 4.92772 76.0577C4.16338 74.9624 3.54235 73.7731 3.07984 72.5191C3.07984 70.4948 3.20303 68.285 3.23383 66.0135C2.34134 67.4366 1.93585 69.113 2.0789 70.7884C2.32404 72.7699 3.05411 74.6598 4.20397 76.2895C4.24637 76.3676 4.29808 76.4402 4.35796 76.5058C4.49426 76.7306 4.64337 76.9473 4.80453 77.1548V77.1548C6.48171 79.3654 8.46215 81.3267 10.687 82.9805C11.8727 83.614 13.0584 84.3557 14.2134 85.1284L14.4751 85.3138C15.2759 85.8546 16.015 86.4264 16.785 86.9981L16.9698 87.1218C18.4019 88.2189 19.7108 89.316 20.7888 90.2123C22.1901 90.2123 23.576 90.3204 24.7925 90.4441C23.5653 89.4936 22.4768 88.3753 21.5587 87.1218H18.1247L15.6147 85.1284H17.9553C17.4843 83.7595 17.1843 82.3373 17.0622 80.8944C16.5348 81.768 15.7202 82.4296 14.7589 82.7653C13.7975 83.101 12.7496 83.0896 11.7957 82.7332C12.3963 82.9032 14.8755 83.2586 17.1084 78.5765C17.266 76.5189 18.1765 74.5925 19.6646 73.1681C17.9768 76.3841 17.628 80.1404 18.6945 83.614C18.8577 83.8169 19.0642 83.9804 19.2987 84.0927C19.5332 84.2051 19.7898 84.2632 20.0496 84.263C19.4881 82.9005 19.1953 81.4416 19.1873 79.9672C19.1873 71.2674 28.9811 64.2056 41.0077 64.2056C53.0344 64.2056 62.8128 71.2674 62.8128 79.9672C62.8025 81.4399 62.5151 82.8974 61.9658 84.263C62.2236 84.2643 62.4783 84.2065 62.7105 84.094C62.9427 83.9815 63.1462 83.8174 63.3056 83.614C63.841 81.8957 64.0324 80.0881 63.8685 78.2953C63.7047 76.5025 63.1888 74.7599 62.3508 73.1681C63.8309 74.5966 64.7353 76.5217 64.8917 78.5765V78.5765C67.1091 83.2123 69.5884 82.9032 70.1889 82.7332C69.235 83.0896 68.1871 83.101 67.2258 82.7653C66.2644 82.4296 65.4499 81.768 64.9225 80.8944C64.8079 82.3384 64.5077 83.7616 64.0293 85.1284H66.37L63.8599 87.1218H60.4259C59.5073 88.3929 58.4192 89.5315 57.1921 90.5059C58.4087 90.3823 59.7946 90.2895 61.1959 90.2741C62.2738 89.316 63.5827 88.2189 65.0303 87.1836L65.215 87.06C65.9542 86.4882 66.755 85.9165 67.5403 85.3756L67.7867 85.1902C68.9296 84.4134 70.1118 83.6965 71.3285 83.0423C73.518 81.3914 75.4713 79.4468 77.1339 77.263L77.5959 76.614L77.7499 76.3977C78.8887 74.7635 79.6128 72.8752 79.8596 70.8965C80.0026 69.2212 79.5971 67.5448 78.7046 66.1217C78.7046 68.3932 78.7816 70.6029 78.8586 72.6272C78.3961 73.8813 77.7751 75.0705 77.0107 76.1659C76.7951 72.2564 75.1782 38.6779 76.8413 29.2672C76.1869 28.4133 75.7299 27.424 75.5035 26.371C75.2771 25.318 75.287 24.2276 75.5324 23.1789C76.4563 20.9968 77.168 18.7302 77.6575 16.4107C78.3539 14.2561 78.8235 12.0342 79.0588 9.7815L80.3061 23.7661V23.967C79.8525 25.3221 79.4873 26.7055 79.2128 28.1083C78.5368 27.5627 78.0075 26.8562 77.6729 26.0531C77.8885 25.1723 78.1195 24.3224 78.3812 23.5189L78.1195 20.6292C77.5805 22.2517 77.0415 23.5189 76.9953 23.627C76.7431 24.7797 76.8898 25.9842 77.4111 27.0421C77.7518 27.9036 78.2775 28.6792 78.951 29.3136C79.6189 30.0264 80.3624 30.6638 81.1685 31.2143L81.6458 31.5079L81.4765 32.0487C80.1983 36.2209 78.8124 62.3821 78.8124 62.3821C78.8124 62.7839 78.8124 63.1857 78.8124 63.572C79.7387 64.5419 80.4506 65.6969 80.9017 66.9617C81.3528 68.2265 81.5329 69.5726 81.4303 70.912C81.1778 73.057 80.4117 75.1088 79.1974 76.8921C79.1974 78.2983 79.3514 79.5809 79.4284 80.7089H79.721C81.2609 80.5853 82.539 81.4198 81.8922 82.486C81.7054 82.7943 81.4547 83.0587 81.1571 83.2613C80.8595 83.4639 80.5221 83.6 80.1675 83.6604C80.484 83.4298 80.7424 83.1282 80.9221 82.7796C81.0915 82.486 80.9221 82.3469 80.7835 82.2696C80.6553 82.2612 80.5267 82.2612 80.3985 82.2696V82.2696C80.1113 82.254 79.8234 82.254 79.5362 82.2696C79.721 84.6184 79.8749 86.0401 79.8749 86.1173L79.9981 87.2145H67.5249C65.985 88.2807 64.6453 89.3933 63.4442 90.4132C65.9828 90.3524 68.4747 91.1047 70.5585 92.5611L67.7559 93.581C66.0082 94.3376 64.1933 94.9274 62.3354 95.3425V95.3425H61.9966H61.7503C51.9718 97.0423 50.9709 96.1152 50.9709 96.1152C53.5197 96.0867 55.965 95.0996 57.8235 93.3492L58.0699 93.1174C58.1777 93.0092 58.7012 92.4838 59.5328 91.6957L57.7157 91.8194H57.2691C56.864 91.8621 56.4626 91.9344 56.068 92.0357L55.1903 92.3138H55.0517C54.7174 92.432 54.393 92.5767 54.0815 92.7465L53.9737 92.8238C53.704 92.9846 53.4467 93.1654 53.2038 93.3646L52.9728 93.5655C52.6894 93.8243 52.4362 94.1146 52.2182 94.4308L44.2261 95.358C42.0528 95.6259 39.8549 95.6259 37.6815 95.358V95.358L29.6894 94.4308C29.4754 94.1115 29.2219 93.8207 28.9349 93.5655L28.7039 93.3646C28.4508 93.1552 28.1832 92.9641 27.9031 92.7929H27.8107C27.5033 92.6213 27.1843 92.4715 26.856 92.3447H26.6712L25.7935 92.0666C25.4129 91.9762 25.0272 91.9091 24.6385 91.8657H24.2073L22.3903 91.7421C23.2372 92.5302 23.7608 93.0556 23.9302 93.1637L24.1766 93.3955C26.0351 95.146 28.4804 96.133 31.0291 96.1615C31.0291 96.1615 30.0128 97.0887 20.2498 95.3889H20.0034H19.6646C17.811 94.9762 16.0011 94.3863 14.2596 93.6273V93.6273L11.4723 92.5147C13.5561 91.0584 16.048 90.306 18.5867 90.3668C17.3856 89.3469 15.9843 88.2343 14.5059 87.1681H2.0635L2.18669 86.071C2.18669 85.9937 2.34068 84.5257 2.52547 82.2233C2.24337 82.2077 1.96063 82.2077 1.67852 82.2233V82.2233H1.29355C1.12416 82.3006 0.985565 82.4396 1.15495 82.7332C1.33466 83.0818 1.59304 83.3834 1.90951 83.614C1.55497 83.5537 1.2175 83.4176 0.919943 83.215C0.622383 83.0123 0.371682 82.7479 0.184814 82.4396C-0.461946 81.3734 0.862373 80.539 2.37148 80.6626L2.35608 80.6935ZM4.61974 13.9073C3.83362 11.4524 3.31725 8.91857 3.07984 6.35102V5.91835L3.7112 5.73291C5.2511 5.26934 9.45505 3.39957 9.45505 0.988966V0H72.4834V0.988966C72.4834 3.39957 76.7181 5.26934 78.2119 5.73291L78.8432 5.91835V6.35102C78.643 8.91357 78.168 11.447 77.4265 13.9073L76.9953 7.41725C75.363 6.8146 71.3593 5.053 70.6201 1.99339H11.3953C10.6562 5.08391 6.66782 6.8146 5.02012 7.41725L4.61974 13.9073Z" fill="#666666"/>
</svg>
