<svg width="54" height="63" viewBox="0 0 54 63" fill="none" xmlns="http://www.w3.org/2000/svg">
<g clip-path="url(#clip0_121_4281)">
<path d="M0.76001 20.47C2.08241 27.5656 2.5857 34.7896 2.26001 42C2.26001 42 -0.86999 45.13 2.51001 50.19L2.23001 55.66H51L50.72 50.19C54.12 45.1 51 42 51 42C50.6766 34.7996 51.1799 27.5858 52.5 20.5L51.07 19.44C51.5068 18.1278 51.8707 16.7924 52.16 15.44L51.2 3.84001C48.35 5.00001 46.51 0.700012 46.51 0.700012H6.74001C6.74001 0.700012 4.90001 5.00001 2.05001 3.84001L1.10001 15.38C1.38872 16.7336 1.75601 18.0692 2.20001 19.38L0.76001 20.47Z" fill="#1F1F1F"/>
<path d="M26.6299 43.53C33.3599 43.53 38.8299 47.22 38.8299 51.77C38.8299 56.32 33.3599 60 26.6299 60C19.8999 60 14.4199 56.3 14.4199 51.76C14.4199 47.22 19.8999 43.52 26.6299 43.52" fill="#1F1F1F"/>
<path d="M26.6299 61.26C34.0599 61.26 40.0799 57.01 40.0799 51.77C40.0799 46.53 34.0799 42.28 26.6299 42.28C19.1799 42.28 13.1699 46.53 13.1699 51.77C13.1699 57.01 19.1699 61.26 26.6299 61.26ZM26.6299 58.76C20.6899 58.76 15.6299 55.56 15.6299 51.76C15.6299 47.96 20.6299 44.76 26.6299 44.76C32.6299 44.76 37.6299 47.96 37.6299 51.76C37.6299 55.56 32.6299 58.76 26.6799 58.76" fill="#1F1F1F"/>
<path d="M1.36001 20.8C1.65504 20.5889 1.93566 20.3584 2.20001 20.11C2.65501 24.15 2.84875 28.2151 2.78001 32.28C2.42001 28.55 2.00001 22.94 1.36001 20.8ZM2.93001 53.28C4.55674 53.5689 6.108 54.1846 7.49001 55.09H2.78001C2.78001 54.66 2.87001 54.04 2.93001 53.28ZM3.07001 51.38C3.45001 51.82 3.83001 52.22 4.19001 52.58C3.79904 52.4764 3.40145 52.3995 3.00001 52.35C3.00001 52.05 3.00001 51.72 3.07001 51.35V51.38ZM0.0700137 53.35C0.189285 53.5513 0.351507 53.7238 0.545106 53.8551C0.738705 53.9865 0.958911 54.0735 1.19001 54.11C0.986171 53.9631 0.818576 53.7715 0.700014 53.55C0.590014 53.35 0.700014 53.26 0.790014 53.21H1.04001C1.22321 53.2 1.40682 53.2 1.59001 53.21C1.47001 54.73 1.38001 55.65 1.37001 55.7L1.29001 56.41H9.51001C9.92048 56.6534 10.263 56.9963 10.5059 57.407C10.7489 57.8177 10.8844 58.2831 10.9 58.76C10.9 58.76 11.07 59.5 11.6 59.32C12.13 59.14 12.65 57.84 11.03 56.41C10.7753 56.1976 10.5082 56.0006 10.23 55.82L9.43001 55.24L9.26001 55.12C8.52201 54.6192 7.75757 54.1586 6.97001 53.74C5.53364 52.675 4.25149 51.4164 3.16001 50C3.04668 49.86 2.94668 49.72 2.86001 49.58L2.76001 49.43C2.0133 48.3754 1.53921 47.1524 1.38001 45.87C1.28712 44.7858 1.55044 43.7009 2.13001 42.78C2.13001 44.25 2.08001 45.68 2.03001 46.99C2.33036 47.8015 2.73366 48.5712 3.23001 49.28C3.37001 46.75 4.42001 25.02 3.34001 18.93C3.76529 18.3794 4.06303 17.7413 4.21175 17.0617C4.36047 16.382 4.35646 15.6779 4.20001 15C3.60489 13.5861 3.14289 12.1197 2.82001 10.62C2.36779 9.22568 2.06279 7.78784 1.91001 6.33L1.10001 15.38V15.51C1.3946 16.387 1.63177 17.2822 1.81001 18.19C2.24542 17.8335 2.58845 17.3773 2.81001 16.86C2.67001 16.29 2.51001 15.74 2.34001 15.22L2.51001 13.35C2.86001 14.4 3.21001 15.22 3.24001 15.29C3.41222 16.0359 3.32766 16.8181 3.00001 17.51C2.77735 18.0726 2.43631 18.5808 2.00001 19C1.57392 19.4567 1.0937 19.8596 0.570014 20.2L0.260014 20.39L0.370014 20.74C1.20001 23.45 2.11001 40.37 2.11001 40.37V41.14C1.50772 41.7692 1.04497 42.5183 0.752031 43.3386C0.45909 44.1588 0.342545 45.0316 0.410014 45.9C0.583053 47.2828 1.07984 48.6053 1.86001 49.76C1.81001 50.67 1.76001 51.5 1.71001 52.23H1.53001C0.530014 52.15 -0.309986 52.7 0.110014 53.38L0.0700137 53.35ZM3.00001 9C2.48951 7.4113 2.15419 5.77157 2.00001 4.11V3.84L2.41001 3.71C3.41001 3.41 6.14001 2.2 6.14001 0.65V0H47.07V0.65C47.07 2.2 49.82 3.41 50.79 3.71L51.2 3.84V4.11C51.07 5.76833 50.7615 7.4078 50.28 9L50 4.8C48.93 4.41 46.34 3.27 45.86 1.29H7.40001C6.92001 3.29 4.33001 4.41 3.26001 4.8L3.00001 9ZM51.05 20.11C51.3144 20.3584 51.595 20.5889 51.89 20.8C51.3 22.94 50.83 28.55 50.48 32.28C50.4077 28.2153 50.5981 24.1502 51.05 20.11ZM45.77 55.11C47.1477 54.2034 48.696 53.5875 50.32 53.3C50.38 54.06 50.44 54.68 50.48 55.11H45.77ZM50.18 51.4C50.18 51.74 50.18 52.07 50.25 52.4C49.8486 52.4495 49.451 52.5264 49.06 52.63C49.43 52.27 49.81 51.87 50.18 51.43V51.4ZM49.05 15C48.9069 15.6709 48.9125 16.365 49.0662 17.0336C49.22 17.7022 49.5182 18.329 49.94 18.87C48.86 24.96 49.94 46.69 50.05 49.22C50.5455 48.5091 50.9519 47.74 51.26 46.93C51.2 45.62 51.17 44.19 51.15 42.72C51.7296 43.6409 51.9929 44.7258 51.9 45.81C51.7398 47.0905 51.2695 48.3125 50.53 49.37L50.43 49.52L50.13 49.94C49.0458 51.3434 47.7778 52.5946 46.36 53.66C45.5463 54.0905 44.7583 54.5679 44 55.09L43.84 55.21C43.56 55.4 43.3 55.59 43.04 55.79C42.7695 55.9606 42.5121 56.1511 42.27 56.36C40.65 57.79 41.27 59.12 41.71 59.27C42.15 59.42 42.41 58.71 42.41 58.71C42.4209 58.232 42.5545 57.7649 42.7979 57.3534C43.0413 56.9418 43.3864 56.5998 43.8 56.36H51.96L51.88 55.65C51.88 55.6 51.78 54.65 51.66 53.16C51.8465 53.15 52.0335 53.15 52.22 53.16C52.3033 53.1545 52.3868 53.1545 52.47 53.16C52.58 53.21 52.67 53.3 52.56 53.5C52.4415 53.7215 52.2739 53.9131 52.07 54.06C52.3011 54.0235 52.5213 53.9365 52.7149 53.8051C52.9085 53.6738 53.0707 53.5013 53.19 53.3C53.61 52.62 52.75 52.07 51.77 52.15H51.59C51.59 51.42 51.49 50.59 51.44 49.68C52.2285 48.5296 52.7261 47.205 52.89 45.82C52.9575 44.9516 52.8409 44.0788 52.548 43.2586C52.2551 42.4383 51.7923 41.6892 51.19 41.06V40.29C51.19 40.29 52.1 23.37 52.93 20.66L53.04 20.31L52.73 20.12C52.1904 19.8075 51.6902 19.4315 51.24 19C50.8054 18.5872 50.4644 18.0859 50.24 17.53C49.9023 16.8416 49.8071 16.0593 49.97 15.31C49.97 15.24 50.35 14.42 50.7 13.37L50.87 15.24C50.7 15.76 50.55 16.31 50.41 16.88C50.6273 17.3997 50.9711 17.8569 51.41 18.21C51.5883 17.3022 51.8254 16.407 52.12 15.53V15.4L51.31 6.4C51.1572 7.85784 50.8522 9.29568 50.4 10.69C50.0875 12.1662 49.6355 13.6093 49.05 15ZM26.63 60.55C22.05 60.55 18.05 58.88 15.79 56.38C15.61 56.18 15.44 55.97 15.28 55.76V55.7C15.1308 55.5054 14.9939 55.3016 14.87 55.09C14.2361 54.0971 13.8899 52.9478 13.87 51.77C13.87 46.92 19.59 42.98 26.63 42.98C33.67 42.98 39.38 46.92 39.38 51.77C39.3601 52.9478 39.0139 54.0971 38.38 55.09C38.26 55.3 38.12 55.5 37.98 55.7L37.93 55.76C37.77 55.97 37.6 56.18 37.42 56.38C35.17 58.88 31.16 60.55 26.59 60.55H26.63ZM41.44 56.38L43.07 55.09H41.59C41.8995 54.2086 42.0945 53.2911 42.17 52.36C42.514 52.9236 43.0436 53.3497 43.6678 53.565C44.292 53.7804 44.9717 53.7715 45.59 53.54C45.2 53.65 43.59 53.88 42.15 50.85C42.0476 49.5184 41.4564 48.2718 40.49 47.35C41.0353 48.3797 41.3717 49.507 41.4799 50.6671C41.588 51.8272 41.4657 52.9973 41.12 54.11C41.0165 54.2416 40.8844 54.3478 40.7336 54.4206C40.5828 54.4934 40.4174 54.5308 40.25 54.53C40.6076 53.6465 40.7943 52.7031 40.8 51.75C40.8 46.13 34.44 41.56 26.64 41.56C18.84 41.56 12.46 46.15 12.46 51.77C12.4578 52.7229 12.6413 53.6672 13 54.55C12.8313 54.5501 12.6647 54.5125 12.5124 54.4398C12.3601 54.3671 12.226 54.2613 12.12 54.13C11.4274 51.8821 11.654 49.4512 12.75 47.37C11.7836 48.2918 11.1924 49.5384 11.09 50.87C9.64001 53.87 8.03001 53.67 7.64001 53.56C8.25836 53.7915 8.93805 53.8004 9.56222 53.585C10.1864 53.3697 10.716 52.9436 11.06 52.38C11.1404 53.3104 11.3352 54.2273 11.64 55.11H10.14L11.77 56.4C12.308 56.8166 12.7226 57.3717 12.9692 58.0059C13.2158 58.6401 13.2852 59.3294 13.17 60C13.17 60 12.89 60.79 13.59 60.91C14.29 61.03 15.05 59.48 12.9 56.35H14C14.3197 56.8063 14.6776 57.2345 15.07 57.63L15.12 57.72C17.41 61.12 15.51 61.72 15.5 61.72C15.4548 61.7342 15.4135 61.7585 15.3792 61.7912C15.3449 61.8238 15.3186 61.8639 15.3021 61.9083C15.2857 61.9527 15.2797 62.0003 15.2845 62.0474C15.2894 62.0945 15.3049 62.1398 15.33 62.18C15.69 62.76 17.89 62.53 16.95 59.71C17.9049 59.9275 18.7496 60.4812 19.33 61.27L24.52 61.86C25.9314 62.0334 27.3587 62.0334 28.77 61.86L33.96 61.27C34.5353 60.4758 35.3823 59.9207 36.34 59.71C35.4 62.53 37.6 62.71 37.96 62.18C37.9851 62.1398 38.0007 62.0945 38.0055 62.0474C38.0103 62.0003 38.0043 61.9527 37.9879 61.9083C37.9715 61.8639 37.9451 61.8238 37.9108 61.7912C37.8765 61.7585 37.8352 61.7342 37.79 61.72C37.79 61.72 35.88 61.17 38.17 57.72L38.23 57.63C38.6227 57.232 38.9838 56.8041 39.31 56.35H40.43C38.27 59.48 39.07 61.02 39.73 60.91C40.39 60.8 40.15 60 40.15 60C40.0274 59.3218 40.0931 58.6229 40.34 57.9794C40.5868 57.3358 41.0053 56.7723 41.55 56.35" fill="#666666"/>
</g>
<defs>
<clipPath id="clip0_121_4281">
<rect width="53.25" height="62.43" fill="white"/>
</clipPath>
</defs>
</svg>
