<svg width="83" height="95" viewBox="0 0 83 95" fill="none" xmlns="http://www.w3.org/2000/svg">
<path d="M70.3598 10.1415L41.5 1.34521L12.6402 10.1415C12.6402 10.1415 11.4644 25.1125 1.26233 27.1822V47.6034C1.26233 47.6034 10.8246 85.4792 41.5 93.6546C72.1927 85.4792 81.7377 47.6034 81.7377 47.6034V27.1822C71.5357 25.1125 70.3598 10.1415 70.3598 10.1415Z" fill="#353535"/>
<path d="M42.9698 87.1351C42.7945 86.9127 42.5715 86.7322 42.3172 86.6068C42.0628 86.4815 41.7836 86.4145 41.5 86.4107C41.2188 86.4146 40.9422 86.4817 40.6907 86.6071C40.4392 86.7326 40.2193 86.913 40.0475 87.1351C17.0496 78.9942 8.04062 50.5701 6.91667 46.8101V32.6153C7.28212 32.4694 7.59487 32.2167 7.81394 31.8905C8.03301 31.5643 8.14818 31.1797 8.14437 30.787C8.15411 30.6953 8.15411 30.6028 8.14437 30.5111C14.525 26.3199 16.9112 18.4377 17.724 14.6605L40.0129 7.86492C40.1874 8.09501 40.4118 8.28278 40.6693 8.4142C40.9269 8.54561 41.2108 8.61727 41.5 8.62382C41.7899 8.62115 42.0752 8.55118 42.3333 8.41946C42.5915 8.28774 42.8153 8.09788 42.9871 7.86492L65.3106 14.6605C66.1233 18.4377 68.5096 26.3199 74.8902 30.5111C74.8902 30.5111 74.8902 30.6835 74.8902 30.787C74.8859 31.1752 74.9969 31.556 75.2093 31.8813C75.4216 32.2067 75.7257 32.4621 76.0833 32.6153V46.8101C74.994 50.5701 65.9677 78.9942 42.9871 87.1351H42.9698ZM66.5902 13.9706V13.5566L43.3848 6.50236C43.3848 6.00375 43.1862 5.52557 42.8327 5.173C42.4793 4.82044 41.9999 4.62237 41.5 4.62237C41.0001 4.62237 40.5207 4.82044 40.1673 5.173C39.8138 5.52557 39.6152 6.00375 39.6152 6.50236L16.4963 13.5566V13.9706C15.8219 17.4201 13.6431 25.1988 7.48729 29.2692C7.15774 28.991 6.74307 28.8328 6.31146 28.8208C6.0505 28.8162 5.79127 28.8638 5.54905 28.9607C5.30683 29.0577 5.08654 29.2021 4.90119 29.3853C4.71583 29.5686 4.56916 29.7871 4.46984 30.0278C4.37052 30.2686 4.32057 30.5267 4.32292 30.787C4.32377 31.1786 4.44081 31.5612 4.65929 31.8865C4.87777 32.2119 5.18791 32.4655 5.55062 32.6153V46.9136V47.1033C6.53625 50.5528 15.7008 80.029 39.5633 88.4976C39.5897 88.9934 39.8049 89.4605 40.1648 89.8034C40.5247 90.1464 41.0023 90.3394 41.5 90.3431C42.006 90.3386 42.4898 90.1349 42.846 89.7763C43.2023 89.4178 43.4021 88.9334 43.4021 88.4286C53.1719 84.9791 61.5929 77.7868 68.4404 66.9208C72.3011 60.7481 75.3192 54.0893 77.4148 47.1205V32.6153C77.7789 32.4674 78.0903 32.2143 78.3091 31.8885C78.5278 31.5627 78.6439 31.1791 78.6425 30.787C78.6471 30.5319 78.6009 30.2784 78.5067 30.0412C78.4125 29.8039 78.2722 29.5877 78.0937 29.4049C77.9153 29.222 77.7022 29.0763 77.467 28.9761C77.2318 28.8758 76.9789 28.823 76.7231 28.8208C76.2915 28.8328 75.8768 28.991 75.5473 29.2692C69.4087 25.1988 67.2127 17.3339 66.5556 13.9706H66.5902ZM80.389 47.4483C79.7665 50.0182 69.8756 84.5134 41.5 92.3094C13.1244 84.5134 3.23354 50.0182 2.54187 47.4483V28.1999C11.2915 25.6472 13.3837 14.4018 13.7987 11.1592L41.4654 2.70788L69.1321 11.1592C69.5471 14.4535 71.6394 25.6472 80.4062 28.1999L80.389 47.4483ZM81.9798 25.8715C72.8498 24.026 71.6048 10.1589 71.6048 10.0209V9.14125L41.5 0L11.4471 9.17574V10.0554C11.4471 10.1934 10.2194 24.0605 1.07208 25.906L0 26.1129V47.6207V47.9312C0.138333 48.2934 10.1329 86.6521 41.1887 94.862H41.5H41.8112C72.9362 86.6004 82.8617 48.2934 82.9654 47.8794V26.0612L81.9798 25.8715Z" fill="#1F1F1F"/>
</svg>
