<svg width="175" height="38" viewBox="0 0 175 38" fill="none" xmlns="http://www.w3.org/2000/svg">
<g clip-path="url(#clip0_121_4448)">
<path d="M168.65 31.63L173.48 25.8V11.32L168.65 5.49H10.46V31.63H168.65Z" fill="#353535"/>
<path d="M3 30.54V6.58L5.7 4.04L15.92 12.9V24.22L5.7 33.08L3 30.54Z" fill="#333333"/>
<path d="M5.66 2L1.5 5.93V31.19L5.66 35.1L17.42 24.9V12.22L5.66 2ZM5.74 6L14.42 13.53V23.47L5.74 31.06L4.5 29.89V7.23L5.74 6Z" fill="#333333"/>
<path d="M172.79 25.52L167.36 30.94H162.14C164.411 30.2776 166.524 29.164 168.354 27.6656C170.184 26.1673 171.693 24.3151 172.79 22.22V25.52ZM172.79 20.36C171.502 23.6999 169.138 26.5151 166.07 28.36H30.6501C28.8752 27.7344 27.3473 26.5569 26.2901 25L28.8101 21.83V15.34L26.2901 12.16C27.3504 10.6105 28.878 9.4403 30.6501 8.82H166C169.103 10.6509 171.503 13.467 172.82 16.82L172.79 20.36ZM172.79 15C171.659 12.8543 170.099 10.964 168.207 9.44674C166.314 7.92944 164.13 6.8175 161.79 6.18H167.33L172.76 11.61L172.79 15ZM158.43 6.18C160.677 6.49672 162.858 7.17197 164.89 8.18H23.1601L21.5301 6.18H158.43ZM19.7801 6.18L25.1601 13C24.9718 13.3667 24.8048 13.744 24.6601 14.13L18.1701 6.23L19.7801 6.18ZM24.6601 23C24.8029 23.39 24.9699 23.7708 25.1601 24.14L19.7801 30.91H18.1701L24.6601 23ZM25.9201 25.39C26.7807 26.5944 27.9018 27.589 29.2001 28.3H23.6401L25.9201 25.39ZM23.6301 8.82H29.1901C27.9001 9.52578 26.7832 10.5095 25.9201 11.7L23.6301 8.82ZM27.4401 15.82V21.31L25.5601 23.67C24.9808 22.4105 24.6416 21.0539 24.5601 19.67C24.803 19.597 25.0159 19.4476 25.1672 19.2441C25.3185 19.0405 25.4003 18.7936 25.4003 18.54C25.4003 18.2864 25.3185 18.0395 25.1672 17.8359C25.0159 17.6324 24.803 17.483 24.5601 17.41C24.6416 16.0261 24.9808 14.6695 25.5601 13.41L27.4401 15.82ZM21.5401 30.94L23.1601 28.94H165.08C163.176 29.9075 161.136 30.5818 159.03 30.94H21.5401ZM174.16 26.09V11L167.93 4.8H8.87011L10.4501 6.18H17.4501L24.4501 14.75C24.2017 15.6172 24.0507 16.5094 24.0001 17.41C23.7318 17.4602 23.4896 17.6027 23.3153 17.8127C23.1409 18.0227 23.0455 18.2871 23.0455 18.56C23.0455 18.8329 23.1409 19.0973 23.3153 19.3073C23.4896 19.5173 23.7318 19.6597 24.0001 19.71C24.0614 20.6117 24.2224 21.5038 24.4801 22.37L17.4801 30.94H10.4501L8.86011 32.32H167.93L174.16 26.09Z" fill="#1F1F1F"/>
<path d="M5.62 0L4.62 0.93L0.47 4.84L0 5.29V31.83L0.47 32.28L4.63 36.19L5.63 37.12L6.63 36.23L18.4 26L18.92 25.55V11.55L18.4 11.1L6.64 0.89L5.62 0ZM5.62 2L17.38 12.2V24.9L5.66 35.1L1.5 31.18V5.93L5.62 2Z" fill="#1F1F1F"/>
</g>
<defs>
<clipPath id="clip0_121_4448">
<rect width="174.16" height="37.12" fill="white"/>
</clipPath>
</defs>
</svg>
