<?xml version="1.0" encoding="utf-8"?>
<svg width="180" height="28" viewBox="0 0 180 28" fill="none" xmlns="http://www.w3.org/2000/svg">
  <g clip-path="url(#clip0_121_4289)" style="" transform="matrix(-1, 0, 0, 1, 179.212006, 0)">
    <path d="M26.54 4.09C24.3045 3.58059 22.1166 2.88139 20 2H24.18C25.0382 2.60764 25.8263 3.30859 26.53 4.09H26.54ZM35.47 3.69C33.5963 4.55457 31.511 4.85346 29.47 4.55C29.27 4.26 29.06 3.97 28.84 3.69H35.47ZM177.83 8V9.47C176.02 6.78 172.29 4.8 169.69 3.69H174C174.987 5.35993 176.288 6.82341 177.83 8ZM174 23.4H169.7C172.3 22.29 176.03 20.32 177.84 17.62V19.11C176.296 20.2797 174.992 21.7364 174 23.4ZM29.45 22.54C31.4911 22.2418 33.5748 22.5405 35.45 23.4H28.82C29.04 23.12 29.25 22.84 29.45 22.54ZM24.19 25.09H20C22.1166 24.2086 24.3045 23.5094 26.54 23C25.8363 23.7814 25.0482 24.4824 24.19 25.09ZM31.49 5.4C33.0109 7.85198 33.8497 10.6655 33.92 13.55C33.8478 16.4342 33.0091 19.2472 31.49 21.7C31.0233 21.7 30.5133 21.7 29.96 21.7C31.4252 19.2229 32.1988 16.398 32.2 13.52C32.2049 10.6528 31.4455 7.83613 30 5.36C30.55 5.36 31.06 5.36 31.53 5.36L31.49 5.4ZM167.66 3.69C170.06 4.58 176.36 7.25 177.83 11.07V16C176.36 19.83 170.06 22.49 167.66 23.38H36.83C35.5485 22.3636 33.9747 21.7852 32.34 21.73C33.8117 19.2437 34.6144 16.4187 34.67 13.53C34.6162 10.6411 33.8133 7.81556 32.34 5.33C33.9769 5.27763 35.5526 4.69508 36.83 3.67L167.66 3.69ZM1.99997 13.55C1.99856 11.2844 2.54312 9.05179 3.58755 7.04128C4.63197 5.03076 6.1455 3.30152 7.99997 2H16.07C19.6965 3.39472 23.461 4.40036 27.3 5C29.1734 7.4459 30.1922 10.4391 30.2 13.52C30.1922 16.6009 29.1734 19.5941 27.3 22.04C23.4644 22.6403 19.7033 23.646 16.08 25.04H7.99997C6.15259 23.7455 4.64328 22.0261 3.59912 20.0265C2.55496 18.0269 2.00652 15.8058 1.99997 13.55ZM7.13997 0.17C4.94338 1.64185 3.14311 3.63205 1.8982 5.96476C0.653296 8.29747 0.0020752 10.9009 0.0020752 13.545C0.0020752 16.1891 0.653296 18.7925 1.8982 21.1252C3.14311 23.458 4.94338 25.4481 7.13997 26.92L7.39997 27.09H24.8L25.05 26.92C25.9804 26.3002 26.8419 25.5828 27.62 24.78H174.77L174.96 24.44C175.54 23.44 177.35 20.83 178.81 20.14L179.21 19.95V7.14L178.81 6.96C177.35 6.27 175.54 3.61 174.96 2.65L174.76 2.32H27.62C26.8461 1.5137 25.9878 0.792899 25.06 0.17L24.8 0H7.38997L7.13997 0.17Z" fill="#333333"/>
  </g>
  <defs>
    <clipPath id="clip0_121_4289">
      <rect width="179.21" height="27.09" fill="white"/>
    </clipPath>
  </defs>
</svg>