<svg width="205" height="51" viewBox="0 0 205 51" fill="none" xmlns="http://www.w3.org/2000/svg">
<path d="M195.535 43.3699H187.738C192.453 41.3401 199.216 37.7697 202.498 32.8763V35.5768C199.706 37.7123 197.343 40.3565 195.535 43.3699ZM51.0233 40.7964H190.005C188.068 41.7549 186.083 42.6139 184.058 43.3699H51.0233V40.7964ZM40.0535 47.8284C38.9514 46.5967 37.6017 45.6114 36.0926 44.9369C34.5835 44.2623 32.9489 43.9136 31.2958 43.9136H19.7276C18.0744 43.9136 16.4399 44.2623 14.9308 44.9369C13.4217 45.6114 12.0719 46.5967 10.9698 47.8284H8.86653C8.86653 47.8284 3.17309 47.8284 3.17309 40.1258V10.8742C3.17309 3.22601 8.86653 3.17164 8.86653 3.17164H10.9698C12.0719 4.40326 13.4217 5.38856 14.9308 6.06313C16.4399 6.73771 18.0744 7.08638 19.7276 7.08635H31.2958C32.9489 7.08638 34.5835 6.73771 36.0926 6.06313C37.6017 5.38856 38.9514 4.40326 40.0535 3.17164H42.1568C42.1568 3.17164 47.8503 3.17164 47.8503 10.8742V40.1258C47.8503 47.774 42.1568 47.8284 42.1568 47.8284H40.0535ZM26.6721 48.662C26.5493 48.4631 26.3789 48.2976 26.1764 48.1806C25.9739 48.0636 25.7455 47.9986 25.5117 47.9915C25.2771 47.9953 25.0475 48.0589 24.8444 48.1762C24.6413 48.2936 24.4716 48.4608 24.3512 48.662C22.0802 48.5492 19.8381 48.1035 17.6968 47.339C18.3622 47.1833 19.0443 47.1102 19.7276 47.1215H31.2958C31.9805 47.1232 32.6625 47.2084 33.3265 47.3753C31.1852 48.1397 28.9431 48.5855 26.6721 48.6983V48.662ZM24.3512 2.33795C24.4725 2.53702 24.6429 2.70158 24.8461 2.81584C25.0493 2.9301 25.2785 2.99021 25.5117 2.99041C25.7445 2.9885 25.973 2.92765 26.176 2.81356C26.3789 2.69947 26.5496 2.53584 26.6721 2.33795C28.9423 2.43025 31.1857 2.86405 33.3265 3.62473C32.6625 3.7916 31.9805 3.87681 31.2958 3.87846H19.7276C19.0428 3.8779 18.3607 3.79268 17.6968 3.62473C19.8357 2.85169 22.0791 2.40566 24.3512 2.30171V2.33795ZM184.058 7.59382C186.083 8.34987 188.068 9.20884 190.005 10.1674H51.0233V7.63006L184.058 7.59382ZM202.498 15.387V18.1237C199.216 13.2484 192.435 9.67804 187.738 7.64819H195.535C197.338 10.6656 199.701 13.3107 202.498 15.4414V15.387ZM51.0233 11.5629H53.2898V39.4371H51.0233V11.5629ZM192.58 39.4371H54.6497V11.5629H192.58C196.786 13.919 201.011 17.145 202.498 21.0235V29.9765C201.011 33.855 196.786 37.0629 192.58 39.4371ZM205 13.8827L204.275 13.5565C201.627 12.306 198.346 7.5032 197.294 5.7452L196.931 5.14712H51.0233V0H38.5486L38.0771 0.598081C37.2979 1.57543 36.3219 2.37815 35.2123 2.95416C32.5407 1.80552 29.6855 1.14268 26.7809 0.996802C26.6695 0.753875 26.4907 0.548018 26.2657 0.403695C26.0407 0.259371 25.779 0.182651 25.5117 0.182651C25.2443 0.182651 24.9826 0.259371 24.7576 0.403695C24.5326 0.548018 24.3538 0.753875 24.2424 0.996802C21.3379 1.14268 18.4826 1.80552 15.8111 2.95416C14.7015 2.37815 13.7254 1.57543 12.9462 0.598081L12.4748 0H0V51H12.4748L12.9462 50.4019C13.7203 49.4195 14.6975 48.6158 15.8111 48.0458C18.4804 49.2041 21.3363 49.8732 24.2424 50.0213C24.359 50.2584 24.5397 50.4581 24.7641 50.5977C24.9884 50.7373 25.2474 50.8113 25.5117 50.8113C25.776 50.8113 26.0349 50.7373 26.2593 50.5977C26.4836 50.4581 26.6643 50.2584 26.7809 50.0213C29.6868 49.8712 32.5424 49.2022 35.2123 48.0458C36.3259 48.6158 37.3031 49.4195 38.0771 50.4019L38.5486 51H51.0233V45.8529H196.949L197.312 45.2548C198.346 43.4424 201.627 38.694 204.275 37.4435L205 37.0991V13.8827Z" fill="#333333"/>
</svg>
