<svg width="55" height="23" viewBox="0 0 55 23" fill="none" xmlns="http://www.w3.org/2000/svg">
<g clip-path="url(#clip0_121_4442)">
<path d="M29.74 6.08C29.4561 6.35886 29.089 6.53756 28.6943 6.58903C28.2997 6.64049 27.8991 6.56191 27.5531 6.3652C27.2072 6.16848 26.9348 5.86435 26.7772 5.4989C26.6197 5.13344 26.5855 4.72659 26.68 4.34H7.68C7.80053 4.73684 7.7819 5.16294 7.62721 5.54775C7.47251 5.93256 7.19103 6.25299 6.82936 6.45599C6.4677 6.65899 6.04755 6.73237 5.63849 6.664C5.22942 6.59562 4.85598 6.38958 4.58 6.08L0.5 9.52V12.93L4.58 16.37C4.86113 16.0826 5.22951 15.8964 5.62762 15.8404C6.02573 15.7844 6.43117 15.8619 6.78064 16.0606C7.13012 16.2593 7.40397 16.5682 7.55943 16.9389C7.71489 17.3097 7.74322 17.7214 7.64 18.11H26.64C26.5455 17.7234 26.5797 17.3165 26.7372 16.9511C26.8948 16.5856 27.1672 16.2815 27.5131 16.0848C27.8591 15.8881 28.2597 15.8095 28.6543 15.861C29.049 15.9124 29.4161 16.0911 29.7 16.37L33.78 12.93V9.52L29.74 6.08Z" fill="#353535"/>
<path d="M8.19 17.61H26.13C26.1323 17.006 26.3731 16.4273 26.8 16C27.1854 15.6276 27.6849 15.3955 28.2181 15.3411C28.7513 15.2867 29.2873 15.4131 29.74 15.7L33.32 12.7V9.76L29.74 6.76C29.2873 7.04689 28.7513 7.17328 28.2181 7.11887C27.6849 7.06446 27.1854 6.83241 26.8 6.46C26.3779 6.03762 26.1375 5.46708 26.13 4.87H8.2C8.1888 5.46827 7.94487 6.03863 7.52 6.46C7.13707 6.8332 6.63919 7.06594 6.10726 7.1204C5.57533 7.17487 5.04062 7.04785 4.59 6.76L1 9.76V12.7L4.59 15.7C5.04118 15.4139 5.57551 15.2879 6.10698 15.3423C6.63845 15.3967 7.13616 15.6284 7.52 16C7.94299 16.4218 8.18357 16.9927 8.19 17.59V17.61ZM27.33 18.59H7L7.15 18C7.20943 17.7786 7.20928 17.5455 7.14957 17.3242C7.08986 17.103 6.97271 16.9014 6.81 16.74C6.55691 16.4979 6.2202 16.3628 5.87 16.3628C5.51979 16.3628 5.18309 16.4979 4.93 16.74L4.61 17.07L0 13.16V9.29L4.61 5.4L4.93 5.73C5.18424 5.96979 5.52051 6.10335 5.87 6.10335C6.21948 6.10335 6.55576 5.96979 6.81 5.73C6.9727 5.56647 7.08971 5.36317 7.14936 5.14034C7.20902 4.91751 7.20924 4.68294 7.15 4.46L7 3.84H27.33L27.17 4.46C27.1095 4.68128 27.1091 4.91469 27.1689 5.13616C27.2287 5.35764 27.3464 5.55917 27.51 5.72C27.7631 5.96205 28.0998 6.09714 28.45 6.09714C28.8002 6.09714 29.1369 5.96205 29.39 5.72L29.72 5.39L34.32 9.28V13.15L29.72 17.04L29.39 16.71C29.1369 16.4679 28.8002 16.3328 28.45 16.3328C28.0998 16.3328 27.7631 16.4679 27.51 16.71C27.3421 16.8742 27.2218 17.0809 27.1619 17.3081C27.102 17.5352 27.1048 17.7743 27.17 18L27.33 18.59Z" fill="#1F1F1F"/>
<path d="M53.94 13.66V8.79L47.4 0.559998H17.87L11.34 8.79L11.33 13.66L17.87 21.89H47.4L53.94 13.66Z" fill="#353535"/>
<path d="M18.15 21.33H47.15L53.4 13.46V9L47.13 1.13H18.13L11.9 9V13.47L18.15 21.33ZM47.67 22.45H17.6L10.77 13.85V8.6L17.6 0H47.67L54.5 8.6V13.85L47.67 22.45Z" fill="#1F1F1F"/>
<path d="M13.29 16L12.8 15.65C13.7115 14.3638 14.201 12.8264 14.201 11.25C14.201 9.67363 13.7115 8.13617 12.8 6.85L13.29 6.5C14.2719 7.8893 14.7992 9.54875 14.7992 11.25C14.7992 12.9513 14.2719 14.6107 13.29 16Z" fill="#1F1F1F"/>
<path d="M13.89 12.43C14.0558 12.4947 14.232 12.5286 14.41 12.53C14.5896 12.5458 14.7706 12.5241 14.9413 12.4662C15.1121 12.4083 15.269 12.3155 15.4019 12.1937C15.5349 12.0719 15.6411 11.9237 15.7137 11.7587C15.7864 11.5937 15.8239 11.4153 15.8239 11.235C15.8239 11.0547 15.7864 10.8763 15.7137 10.7113C15.6411 10.5462 15.5349 10.3981 15.4019 10.2763C15.269 10.1545 15.1121 10.0617 14.9413 10.0038C14.7706 9.94594 14.5896 9.9242 14.41 9.94C14.2308 9.93958 14.0536 9.97707 13.89 10.05H13.8L13.68 10.12L11.74 11.19L13.68 12.26L13.8 12.32L13.89 12.43Z" fill="#353535"/>
<path d="M12.26 11.24L14.01 12.24C14.1371 12.2904 14.2733 12.3143 14.41 12.31C14.6871 12.31 14.9529 12.1999 15.1489 12.0039C15.3449 11.8079 15.455 11.5421 15.455 11.265C15.455 10.9878 15.3449 10.722 15.1489 10.5261C14.9529 10.3301 14.6871 10.22 14.41 10.22C14.2651 10.2192 14.1218 10.2499 13.99 10.31H13.92L13.82 10.37L12.26 11.24ZM14.41 12.78C14.1964 12.7813 13.985 12.737 13.79 12.65L13.68 12.59L13.54 12.52L11.23 11.24L13.56 10L13.65 9.94L13.77 9.88C13.981 9.77983 14.2118 9.72863 14.4454 9.73023C14.6789 9.73183 14.9091 9.78618 15.1186 9.88922C15.3282 9.99226 15.5118 10.1413 15.6557 10.3253C15.7996 10.5092 15.9 10.7233 15.9495 10.9516C15.999 11.1798 15.9963 11.4163 15.9416 11.6433C15.8869 11.8704 15.7816 12.0821 15.6336 12.2627C15.4855 12.4434 15.2986 12.5882 15.0867 12.6864C14.8748 12.7847 14.6435 12.8337 14.41 12.83" fill="#1F1F1F"/>
<path d="M15 10.33C14.7601 9.20347 14.8048 8.03492 15.13 6.93C15.62 5.16 17 2.57 20.86 0.349998L21.11 0.779998C14.11 4.85 15.43 9.98 15.49 10.19L15 10.33Z" fill="#1F1F1F"/>
<path d="M20.86 22.11C17.01 19.88 15.62 17.29 15.14 15.52C14.8148 14.4151 14.7701 13.2465 15.01 12.12L15.5 12.26C15.43 12.47 14.07 17.6 21.11 21.67L20.86 22.11Z" fill="#1F1F1F"/>
<path d="M30.79 21.94L30.3 21.84C30.3425 21.6429 30.3375 21.4385 30.2853 21.2438C30.2331 21.049 30.1354 20.8695 30 20.72C29.57 20.31 28.53 19.95 26 20.61C20.69 22 17.66 19.66 17.54 19.56L17.85 19.17C17.85 19.17 20.85 21.45 25.85 20.17C28.04 19.59 29.54 19.67 30.3 20.4C30.501 20.6055 30.6496 20.8563 30.7331 21.1313C30.8167 21.4064 30.8328 21.6974 30.78 21.98" fill="#1F1F1F"/>
<path d="M52 16C51.0181 14.6107 50.4908 12.9513 50.4908 11.25C50.4908 9.54875 51.0181 7.8893 52 6.5L52.49 6.85C51.5785 8.13617 51.089 9.67363 51.089 11.25C51.089 12.8264 51.5785 14.3638 52.49 15.65L52 16Z" fill="#1F1F1F"/>
<path d="M51.38 12.43C51.2143 12.4947 51.038 12.5286 50.86 12.53C50.5362 12.5015 50.2348 12.3528 50.0153 12.113C49.7957 11.8733 49.674 11.5601 49.674 11.235C49.674 10.9099 49.7957 10.5967 50.0153 10.357C50.2348 10.1172 50.5362 9.96848 50.86 9.94C51.0392 9.93958 51.2164 9.97707 51.38 10.05H51.47C51.5133 10.0673 51.5537 10.0908 51.59 10.12L53.53 11.19L51.59 12.26C51.5533 12.2859 51.5128 12.3061 51.47 12.32L51.38 12.43Z" fill="#353535"/>
<path d="M50.8601 10.19C50.5829 10.19 50.3171 10.3001 50.1211 10.4961C49.9251 10.6921 49.815 10.9579 49.815 11.235C49.815 11.5122 49.9251 11.778 50.1211 11.9739C50.3171 12.1699 50.5829 12.28 50.8601 12.28C51.0042 12.2839 51.1475 12.2566 51.28 12.2L53.01 11.2L51.4701 10.35C51.4483 10.3265 51.4207 10.3093 51.39 10.3L51.26 10.23C51.1336 10.1761 50.9975 10.1489 50.8601 10.15V10.19ZM50.8601 12.74C50.4718 12.7087 50.1095 12.5324 49.8453 12.2461C49.5811 11.9598 49.4344 11.5846 49.4344 11.195C49.4344 10.8055 49.5811 10.4302 49.8453 10.1439C50.1095 9.85759 50.4718 9.68127 50.8601 9.65C51.0733 9.65158 51.2841 9.69578 51.48 9.78L51.59 9.84C51.6395 9.86156 51.6864 9.88838 51.73 9.92L54 11.24L51.67 12.53L51.5801 12.58L51.4701 12.64C51.266 12.7328 51.0443 12.7806 50.82 12.78" fill="#1F1F1F"/>
<path d="M50.26 10.33L49.78 10.19C49.84 10 51.2 4.85 44.16 0.779998L44.41 0.349998C48.26 2.57 49.65 5.16 50.13 6.93C50.4612 8.03393 50.506 9.204 50.26 10.33Z" fill="#1F1F1F"/>
<path d="M44.41 22.11L44.16 21.67C51.16 17.6 49.84 12.47 49.78 12.26L50.26 12.12C50.506 13.246 50.4612 14.4161 50.13 15.52C49.65 17.29 48.26 19.88 44.41 22.11Z" fill="#1F1F1F"/>
<path d="M34.48 21.94C34.4323 21.6542 34.4547 21.3611 34.5453 21.0859C34.6359 20.8107 34.7919 20.5616 35 20.36C35.77 19.63 37.26 19.55 39.45 20.13C44.51 21.45 47.45 19.19 47.45 19.13L47.77 19.52C47.64 19.62 44.61 21.96 39.31 20.57C36.8 19.91 35.76 20.27 35.31 20.68C35.1674 20.8333 35.0645 21.0192 35.0105 21.2214C34.9565 21.4236 34.9528 21.636 35 21.84L34.48 21.94Z" fill="#1F1F1F"/>
<path d="M17.84 3.29L17.53 2.89C17.65 2.79 20.68 0.450002 25.99 1.89C28.49 2.55 29.53 2.19 29.99 1.78C30.1336 1.62721 30.2378 1.44173 30.2936 1.2396C30.3493 1.03747 30.355 0.824803 30.31 0.620002L30.79 0.510002C30.8428 0.792552 30.8267 1.08364 30.7431 1.35866C30.6596 1.63368 30.511 1.88453 30.31 2.09C29.55 2.82 28.05 2.9 25.86 2.32C20.8 1 17.86 3.26 17.86 3.32" fill="#1F1F1F"/>
<path d="M47.43 3.29C47.43 3.29 44.43 1 39.43 2.29C37.24 2.87 35.75 2.79 34.98 2.06C34.78 1.85959 34.6304 1.61461 34.5435 1.34516C34.4566 1.07571 34.4348 0.789493 34.48 0.510002L34.97 0.610002C34.9327 0.810271 34.9441 1.01658 35.0032 1.21151C35.0624 1.40644 35.1676 1.58427 35.31 1.73C35.75 2.14 36.79 2.5 39.31 1.84C44.61 0.450002 47.64 2.84 47.77 2.89L47.43 3.29Z" fill="#1F1F1F"/>
</g>
<defs>
<clipPath id="clip0_121_4442">
<rect width="54.5" height="22.45" fill="white"/>
</clipPath>
</defs>
</svg>
