<svg width="206" height="63" viewBox="0 0 206 63" fill="none" xmlns="http://www.w3.org/2000/svg">
<g clip-path="url(#clip0_109_2118)">
<path d="M34.4391 10.1114C36.3626 11.8138 38.5721 13.1587 40.9644 14.0831C43.5701 15.0601 46.3417 15.512 49.121 15.413C52.7978 19.96 54.8049 25.6407 54.8049 31.5001C54.8049 37.3594 52.7978 43.0401 49.121 47.5871C46.3422 47.4975 43.5725 47.9491 40.9644 48.9171C38.5796 49.8321 36.3715 51.1576 34.4391 52.8341C29.8783 54.4162 25.1054 55.2946 20.2828 55.4393C15.4113 53.6197 11.2103 50.3456 8.24377 46.0566C5.27725 41.7676 3.68726 36.669 3.68726 31.4454C3.68726 26.2218 5.27725 21.1232 8.24377 16.8342C11.2103 12.5452 15.4113 9.2711 20.2828 7.45149C25.1072 7.62298 29.8789 8.51956 34.4391 10.1114ZM62.6066 11.7329H185.137C189.487 13.3725 200.907 18.2369 203.571 25.1964V37.8401C200.907 44.8179 189.487 49.6823 185.137 51.3037H62.5341C59.5923 49.8109 56.4651 48.7202 53.2356 48.0608C56.5716 43.1959 58.358 37.4268 58.358 31.5183C58.358 25.6097 56.5716 19.8407 53.2356 14.9758C56.4674 14.3247 59.5957 13.2337 62.5341 11.7329H62.6066ZM50.7523 11.7146H59.3259C57.1081 12.6471 54.7909 13.3196 52.4199 13.7187C51.8943 13.0264 51.3324 12.3705 50.7523 11.7146ZM196.629 11.7146C198.426 14.7516 200.79 17.4115 203.589 19.5487V22.2632C200.309 17.3442 193.529 13.7551 188.835 11.7146H196.629ZM203.589 43.4515C200.794 45.5933 198.431 48.2523 196.629 51.2855H188.835C193.529 49.2632 200.309 45.6559 203.589 40.7551V43.4515ZM50.7523 51.2855C51.3324 50.6478 51.8943 49.9737 52.4199 49.2814C54.7889 49.6891 57.1052 50.3613 59.3259 51.2855H50.7523ZM27.95 6.90761e-05C27.7857 0.0725234 27.655 0.205076 27.5843 0.37085C27.5136 0.536624 27.5083 0.723212 27.5694 0.892782C27.5694 0.892782 27.8232 1.45756 28.1857 2.16809C24.1633 2.30215 20.2127 3.27625 16.5852 5.02841C21.1847 4.67206 25.8114 4.97881 30.3245 5.93934H30.542C30.8079 6.30371 31.0979 6.66808 31.4121 7.03246C8.31978 1.56687 2.41076 13.3179 2.41076 13.3179C4.37209 11.328 6.7155 9.75981 9.29857 8.70857C10.0599 8.48995 10.8211 8.32598 11.5824 8.16201C8.01048 10.8897 5.1145 14.4106 3.1208 18.4497C1.12711 22.4888 0.0897217 26.9366 0.0897217 31.4454C0.0897217 35.9543 1.12711 40.402 3.1208 44.4411C5.1145 48.4802 8.01048 52.0012 11.5824 54.7288C10.8211 54.5831 10.0599 54.4009 9.29857 54.2005C6.7113 53.1489 4.36681 51.5737 2.41076 49.5729C2.41076 49.5729 8.41041 61.2875 31.4121 55.8584L30.542 56.9697H30.3245C25.8095 57.9165 21.1839 58.2171 16.5852 57.8624C20.2127 59.6146 24.1633 60.5887 28.1857 60.7227C27.8232 61.4515 27.6057 61.9252 27.5694 62.0163C27.5219 62.1022 27.4932 62.1973 27.4851 62.2952C27.477 62.3932 27.4898 62.4918 27.5225 62.5844C27.5553 62.677 27.6073 62.7615 27.6751 62.8324C27.7429 62.9032 27.8249 62.9587 27.9157 62.9952C28.0065 63.0317 28.104 63.0484 28.2017 63.0441C28.2994 63.0398 28.3951 63.0146 28.4823 62.9703C28.5696 62.9259 28.6465 62.8634 28.7078 62.7868C28.7692 62.7103 28.8136 62.6215 28.8382 62.5264C28.8382 62.5264 34.276 52.1053 41.3994 50.1377C43.4991 49.4651 45.6717 49.0492 47.8703 48.8989C44.1265 52.9741 39.1631 55.7116 33.7322 56.6964C32.5616 57.7579 31.7346 59.1476 31.3577 60.6863C35.3497 60.391 39.2378 59.2682 42.777 57.3887L46.674 54.8746C47.1453 54.5102 47.6166 54.1276 48.0697 53.7268H197.952L198.297 53.1256C199.348 51.3037 202.629 46.5304 205.275 45.2733L206 44.9454V18.0183L205.275 17.6721C202.629 16.3968 199.384 11.5871 198.297 9.83813L197.952 9.21869H48.0697C47.6166 8.81788 47.1453 8.43529 46.674 8.07092L42.777 5.57497C39.2391 3.68912 35.3511 2.56015 31.3577 2.25918C31.7261 3.80133 32.5546 5.19347 33.7322 6.24906C39.1586 7.24649 44.1184 9.98191 47.8703 14.0466C45.6682 13.8875 43.4945 13.453 41.3994 12.7531C34.2941 10.9312 28.8382 0.455535 28.8382 0.419097C28.8045 0.335891 28.7547 0.26029 28.6915 0.196735C28.6283 0.13318 28.5532 0.0829545 28.4704 0.0490087C28.3877 0.015063 28.299 -0.00191794 28.2097 -0.000936308C28.1203 4.5327e-05 28.032 0.0189697 27.95 0.0547249" fill="#333333"/>
</g>
<defs>
<clipPath id="clip0_109_2118">
<rect width="206" height="63" fill="white"/>
</clipPath>
</defs>
</svg>
