<svg width="201" height="455" viewBox="0 0 201 455" fill="none" xmlns="http://www.w3.org/2000/svg">
<path d="M197.659 364.695C196.718 346.602 196.355 328.344 196.575 310.102C197.013 327.225 197.96 344.24 199.408 360.999C198.794 362.133 198.21 363.367 197.659 364.695ZM197.222 387.405L196.854 397.691C196.155 392.169 195.42 387.805 195.385 387.583C195.033 383.603 195.25 379.435 195.997 375.827C196.326 379.738 196.735 383.602 197.222 387.405ZM187.916 449.078H181.566C193.461 436.788 195.56 413.721 195.822 400.407C196.085 402.634 196.347 404.86 196.522 407.22L195.647 432.424C193.653 434.294 188.826 439.682 187.916 449.078ZM5.33504 432.246L4.44296 407.042C4.61787 404.905 4.86276 402.589 5.12514 400.452C5.18843 405.757 5.55978 411.009 6.22713 416.037C7.67897 426.768 11.1599 440.35 19.4161 448.899H13.049C12.2444 439.504 7.31164 434.116 5.33504 432.246ZM5.63241 387.093C5.63241 387.494 4.81029 391.947 4.11061 397.513L3.74328 387.405C4.24639 383.566 4.66107 379.655 4.98521 375.693C5.74055 379.229 5.97031 383.339 5.63241 387.271V387.093ZM1.53929 360.999C2.99347 344.241 3.9466 327.226 4.39048 310.102C4.62406 328.343 4.26718 346.602 3.32347 364.695C2.7775 363.353 2.1928 362.118 1.57428 360.999H1.53929ZM3.32347 90.3053C4.26838 108.412 4.62526 126.687 4.39048 144.943C3.94775 127.803 2.99461 110.774 1.53929 94.0013C2.15782 92.8823 2.74252 91.6469 3.28849 90.3053H3.32347ZM3.70829 67.7735L4.07562 57.4873C4.7753 63.0089 5.50996 67.4173 5.56244 67.6399C5.91299 71.6047 5.69588 75.7578 4.95022 79.3511C4.62397 75.4344 4.2093 71.5688 3.70829 67.7735ZM13.049 6.14504H19.3986C7.50405 18.4351 5.33504 41.5013 5.24758 54.8155C4.96771 52.5445 4.72283 50.3626 4.53042 47.958L5.4225 22.7545C7.31164 20.9288 12.2444 15.4962 13.049 6.14504ZM195.647 22.7545L196.522 47.958C196.347 50.1399 196.102 52.4109 195.84 54.5483C195.784 49.2414 195.412 43.9868 194.738 38.9631C193.304 28.2316 189.805 14.6501 181.566 6.14504H187.916C188.826 15.4962 193.653 20.9288 195.647 22.7545ZM195.35 67.9071C195.35 67.5509 196.155 63.0534 196.854 57.4873L197.222 67.7735C196.721 71.6143 196.306 75.5243 195.98 79.4847C195.229 75.9447 195.005 71.8334 195.35 67.9071ZM199.408 94.0013C197.953 110.774 197 127.803 196.557 144.943C196.353 126.685 196.721 108.414 197.659 90.3053C198.209 91.6366 198.793 92.8714 199.408 94.0013ZM194.161 388.429C194.161 388.429 194.476 390.344 194.878 392.882C195.206 400.39 194.884 407.99 193.933 415.146C191.817 430.821 186.674 442.309 178.995 448.721H21.9349C5.45749 435.051 5.63241 402.723 6.0872 393.06C6.50701 390.121 6.85684 388.117 6.87434 387.983C7.1312 384.962 7.12981 381.836 6.87026 378.817C6.6107 375.797 6.09905 372.955 5.37003 370.483C7.78392 336.775 6.55948 293.849 6.50701 291.934V162.799C6.50701 160.662 7.80141 117.646 5.38752 83.8931C6.12163 81.3684 6.63295 78.47 6.88654 75.3959C7.14012 72.3218 7.13 69.1446 6.85684 66.0814C6.85684 66.0814 6.5245 64.1667 6.12218 61.6285C5.81109 54.1172 6.13922 46.5234 7.08424 39.3639C9.18327 23.6896 14.3434 12.201 22.0224 5.83333H179.048C195.525 19.4593 195.35 51.8321 194.895 61.4949C194.475 64.3893 194.143 66.3931 194.126 66.5267C193.866 69.5445 193.865 72.669 194.121 75.6884C194.378 78.7077 194.886 81.5514 195.612 84.0267C193.199 117.735 194.423 160.662 194.493 162.576V291.711C194.493 293.849 193.199 336.819 195.63 370.573C194.898 373.1 194.388 375.998 194.134 379.072C193.881 382.145 193.89 385.321 194.161 388.384V388.429ZM196.907 275.057V197.799C197.467 174.955 198.796 110.833 200.86 93.7786L201 92.5763L200.58 91.8639C199.615 90.2684 198.728 88.3848 197.939 86.2532C198.35 80.4483 198.935 74.7319 199.688 69.1539L199.776 68.5305L198.026 18.2125L197.134 17.8117C195.385 16.3868 190.137 10.687 190.137 3.29517V0H10.7925V3.07252C10.7925 10.4644 5.77234 16.0751 3.79575 17.5891L3.02611 18.2125L1.27691 68.5305V69.1539C2.03877 74.7102 2.62373 80.4135 3.02611 86.2087C2.23334 88.3268 1.35373 90.2227 0.402315 91.8639L0 92.5763L0.139936 93.7786C2.20399 110.789 3.49839 174.822 4.09312 197.71V275.057C3.49839 297.901 2.20399 344.167 0.139936 361.221L0 362.468L0.437299 363.136C1.39111 364.752 2.27115 366.634 3.06109 368.747C2.66698 374.561 2.08186 380.281 1.3119 385.846V386.469L3.06109 436.832L3.83074 437.411C5.75485 438.969 10.8275 444.536 10.8275 451.927V455H190.19V451.927C190.19 444.536 195.193 438.969 197.187 437.411L197.939 436.832L199.688 386.469L199.601 385.846C198.869 380.283 198.313 374.58 197.939 368.791C198.723 366.649 199.604 364.751 200.563 363.136L200.983 362.424L200.843 361.221C198.779 344.211 197.449 297.99 196.907 275.102" fill="#333333"/>
</svg>
