<svg width="201" height="246" viewBox="0 0 201 246" fill="none" xmlns="http://www.w3.org/2000/svg">
<path d="M197.693 197.176C196.752 187.393 196.39 177.522 196.609 167.659C197.047 176.917 197.994 186.116 199.443 195.177C198.829 195.791 198.245 196.458 197.693 197.176ZM197.256 209.454L196.889 215.015C196.189 212.03 195.454 209.671 195.419 209.55C195.067 207.399 195.284 205.145 196.031 203.194C196.36 205.309 196.769 207.398 197.256 209.454ZM187.949 242.798H181.598C193.495 236.153 195.594 223.682 195.856 216.484C196.119 217.688 196.381 218.891 196.556 220.167L195.682 233.794C193.687 234.805 188.858 237.718 187.949 242.798ZM5.33597 233.698L4.44373 220.071C4.61868 218.915 4.86361 217.664 5.12603 216.508C5.18933 219.376 5.56075 222.216 6.22822 224.934C7.6803 230.736 11.1618 238.079 19.4194 242.702H13.0513C12.2465 237.622 7.31291 234.709 5.33597 233.698ZM5.63339 209.285C5.63339 209.502 4.81112 211.91 4.11132 214.919L3.74393 209.454C4.24713 207.378 4.66188 205.264 4.98607 203.122C5.74155 205.034 5.97135 207.256 5.63339 209.382V209.285ZM1.53956 195.177C2.99399 186.117 3.94729 176.918 4.39124 167.659C4.62486 177.522 4.26792 187.394 3.32405 197.176C2.77799 196.45 2.19318 195.782 1.57455 195.177H1.53956ZM3.32405 48.8244C4.26912 58.6141 4.62606 68.4943 4.39124 78.3647C3.94843 69.0979 2.99513 59.8908 1.53956 50.8227C2.15819 50.2177 2.743 49.5497 3.28906 48.8244H3.32405ZM3.70894 36.6424L4.07633 31.081C4.77613 34.0664 5.51092 36.4498 5.56341 36.5702C5.91402 38.7137 5.69688 40.9592 4.95108 42.9019C4.62477 40.7843 4.21004 38.6943 3.70894 36.6424ZM13.0513 3.32237H19.402C7.50535 9.96712 5.33597 22.4381 5.2485 29.6365C4.96858 28.4087 4.72365 27.229 4.5312 25.929L5.42345 12.3024C7.31291 11.3153 12.2465 8.37816 13.0513 3.32237ZM195.682 12.3024L196.556 25.929C196.381 27.1086 196.136 28.3365 195.874 29.4921C195.818 26.6228 195.446 23.7819 194.772 21.0658C193.337 15.2637 189.838 7.92073 181.598 3.32237H187.949C188.858 8.37816 193.687 11.3153 195.682 12.3024ZM195.384 36.7146C195.384 36.522 196.189 34.0904 196.889 31.081L197.256 36.6424C196.755 38.7189 196.341 40.8329 196.014 42.9742C195.263 41.0602 195.039 38.8374 195.384 36.7146ZM199.443 50.8227C197.987 59.8908 197.034 69.0979 196.591 78.3647C196.387 68.4932 196.755 58.6151 197.693 48.8244C198.243 49.5442 198.828 50.2118 199.443 50.8227ZM194.194 210.008C194.194 210.008 194.509 211.043 194.912 212.415C195.24 216.474 194.918 220.584 193.967 224.453C191.85 232.927 186.707 239.139 179.026 242.605H21.9387C5.45844 235.214 5.63339 217.736 6.08826 212.511C6.50814 210.922 6.85804 209.839 6.87553 209.767C7.13245 208.134 7.13105 206.443 6.87145 204.811C6.61185 203.178 6.10011 201.642 5.37096 200.305C7.78527 182.08 6.56062 158.872 6.50814 157.837V88.0188C6.50814 86.8632 7.80277 63.6066 5.38846 45.3576C6.12269 43.9926 6.63411 42.4255 6.88774 40.7635C7.14137 39.1015 7.13124 37.3837 6.85804 35.7275C6.85804 35.7275 6.52563 34.6923 6.12325 33.32C5.8121 29.259 6.14029 25.1533 7.08547 21.2824C9.18487 12.808 14.3459 6.59659 22.0262 3.15385H179.079C195.559 10.5208 195.384 28.0235 194.929 33.2478C194.509 34.8127 194.177 35.8961 194.159 35.9683C193.9 37.5999 193.899 39.2892 194.155 40.9216C194.412 42.5541 194.92 44.0915 195.647 45.4298C193.232 63.6547 194.457 86.8632 194.527 87.8984V157.716C194.527 158.872 193.232 182.105 195.664 200.354C194.932 201.72 194.422 203.287 194.168 204.949C193.915 206.61 193.924 208.327 194.194 209.984V210.008ZM196.941 148.712V106.942C197.501 94.5913 198.831 59.9231 200.895 50.7023L201.035 50.0523L200.615 49.6671C199.65 48.8045 198.763 47.7861 197.973 46.6336C198.385 43.4951 198.969 40.4045 199.723 37.3887L199.81 37.0517L198.061 9.84674L197.169 9.63006C195.419 8.85966 190.171 5.77804 190.171 1.78156V0H10.7944V1.66119C10.7944 5.65766 5.77335 8.69113 3.79641 9.50969L3.02663 9.84674L1.27713 37.0517V37.3887C2.03913 40.3928 2.62418 43.4763 3.02663 46.6095C2.23373 47.7547 1.35396 48.7798 0.402385 49.6671L0 50.0523L0.13996 50.7023C2.20437 59.899 3.499 94.5191 4.09383 106.894V148.712C3.499 161.063 2.20437 186.077 0.13996 195.298L0 195.972L0.437375 196.333C1.39135 197.207 2.27154 198.224 3.06162 199.366C2.66744 202.51 2.08222 205.602 1.31212 208.611V208.948L3.06162 236.177L3.8314 236.49C5.75585 237.333 10.8294 240.342 10.8294 244.339V246H190.223V244.339C190.223 240.342 195.227 237.333 197.221 236.49L197.973 236.177L199.723 208.948L199.635 208.611C198.903 205.604 198.347 202.52 197.973 199.39C198.757 198.232 199.638 197.206 200.598 196.333L201.018 195.948L200.878 195.298C198.813 186.101 197.484 161.111 196.941 148.736" fill="#333333"/>
</svg>
