<svg width="76" height="34" viewBox="0 0 76 34" fill="none" xmlns="http://www.w3.org/2000/svg">
<g clip-path="url(#clip0_121_4490)">
<path d="M68.56 0.690002H7.03L0.690002 8.66V25.26L7.02 33.24H68.56L74.9 25.26V8.66L68.56 0.690002Z" fill="#353535"/>
<path d="M68.56 0.690002H7.03L0.690002 8.66V25.26L7.02 33.24H68.56L74.9 25.26V8.66L68.56 0.690002Z" stroke="#1F1F1F" stroke-width="1.38" stroke-miterlimit="10"/>
<path d="M2.60001 6.26V28M9.31001 0.690002L2.60001 9L9.31001 0.690002ZM2.60001 24.92L9.31001 33.24L2.60001 24.92Z" stroke="#1F1F1F" stroke-width="0.6" stroke-miterlimit="10"/>
<path d="M1.64999 17C1.71575 17.2001 1.843 17.3743 2.01359 17.4978C2.18417 17.6212 2.3894 17.6877 2.59999 17.6877C2.81059 17.6877 3.01581 17.6212 3.1864 17.4978C3.35699 17.3743 3.48423 17.2001 3.54999 17C3.54999 16.748 3.4499 16.5064 3.27175 16.3282C3.09359 16.1501 2.85195 16.05 2.59999 16.05C2.34804 16.05 2.1064 16.1501 1.92824 16.3282C1.75008 16.5064 1.64999 16.748 1.64999 17Z" fill="#1F1F1F"/>
<path d="M73.94 17C73.9302 17.1859 73.866 17.3648 73.7554 17.5145C73.6448 17.6642 73.4927 17.7781 73.3179 17.8421C73.1431 17.9061 72.9533 17.9173 72.7722 17.8744C72.5911 17.8314 72.4266 17.7362 72.2991 17.6006C72.1716 17.465 72.0868 17.2949 72.0552 17.1115C72.0235 16.9281 72.0464 16.7394 72.1211 16.5689C72.1958 16.3984 72.3189 16.2536 72.4751 16.1525C72.6314 16.0513 72.8139 15.9983 73 16C73.1289 15.9932 73.2578 16.0128 73.3789 16.0574C73.5 16.1021 73.6107 16.171 73.7043 16.2599C73.7979 16.3488 73.8724 16.4559 73.9232 16.5745C73.9741 16.6932 74.0002 16.8209 74 16.95" fill="#1F1F1F"/>
<path d="M73 6.26V28M66.27 0.690002L73 9L66.27 0.690002ZM73 24.92L66.28 33.24L73 24.92Z" stroke="#1F1F1F" stroke-width="0.6" stroke-miterlimit="10"/>
</g>
<defs>
<clipPath id="clip0_121_4490">
<rect width="75.59" height="33.92" fill="white"/>
</clipPath>
</defs>
</svg>
