<svg width="175" height="38" viewBox="0 0 175 38" fill="none" xmlns="http://www.w3.org/2000/svg">
<g clip-path="url(#clip0_121_4449)">
<path d="M168.65 31.63L173.48 25.8V11.32L168.65 5.49H10.46V31.63H168.65Z" fill="#353535"/>
<path d="M3 30.54V6.58L5.7 4.04L15.92 12.9V24.22L5.7 33.08L3 30.54Z" fill="#333333"/>
<path d="M5.66 2L1.5 5.93V31.19L5.66 35.1L17.42 24.9V12.22L5.66 2ZM5.74 6L14.42 13.53V23.47L5.74 31.06L4.5 29.89V7.23L5.74 6Z" fill="#333333"/>
<path d="M172.79 25.52L167.36 30.94H162.14C164.41 30.2777 166.524 29.164 168.354 27.6656C170.184 26.1673 171.693 24.3151 172.79 22.22V25.52ZM172.79 20.36C171.502 23.6999 169.137 26.5151 166.07 28.36H72.7699C70.995 27.7344 69.4671 26.5569 68.4099 25L70.9299 21.83V15.34L68.4099 12.16C69.4702 10.6105 70.9978 9.4403 72.7699 8.82H166C169.102 10.6509 171.503 13.467 172.82 16.82L172.79 20.36ZM172.79 15C171.659 12.8543 170.099 10.964 168.207 9.44674C166.314 7.92944 164.13 6.8175 161.79 6.18H167.33L172.76 11.61L172.79 15ZM158.43 6.18C160.676 6.49672 162.857 7.17198 164.89 8.18H65.2799L63.6499 6.18H158.43ZM67.2799 13C67.0916 13.3667 66.9247 13.744 66.7799 14.13L60.2899 6.23H61.8999L67.2799 13ZM66.7799 23C66.9228 23.39 67.0898 23.7708 67.2799 24.14L61.8999 30.94H60.2799L66.7799 23ZM67.9999 25.42C68.863 26.6105 69.98 27.5942 71.2699 28.3H65.7599L67.9999 25.42ZM65.7499 8.82H71.3099C70.0055 9.52091 68.8745 10.505 67.9999 11.7L65.7499 8.82ZM69.5599 15.82V21.31L67.6799 23.67C67.1006 22.4105 66.7615 21.0539 66.6799 19.67C66.9228 19.597 67.1357 19.4476 67.287 19.2441C67.4384 19.0405 67.5201 18.7936 67.5201 18.54C67.5201 18.2864 67.4384 18.0395 67.287 17.836C67.1357 17.6324 66.9228 17.4831 66.6799 17.41C66.7615 16.0261 67.1006 14.6695 67.6799 13.41L69.5599 15.82ZM63.6599 30.94L65.2799 28.94H165.08C163.175 29.9075 161.136 30.5818 159.03 30.94H63.6599ZM174.16 26.09V11L167.93 4.8H9.18994L10.7799 6.18H59.5099L66.5099 14.75C66.2526 15.6168 66.0883 16.5085 66.0199 17.41C65.7517 17.4603 65.5094 17.6027 65.3351 17.8127C65.1608 18.0227 65.0653 18.2871 65.0653 18.56C65.0653 18.8329 65.1608 19.0973 65.3351 19.3073C65.5094 19.5173 65.7517 19.6598 66.0199 19.71C66.0812 20.6117 66.2422 21.5038 66.4999 22.37L59.4999 30.94H10.7799L9.18994 32.32H167.93L174.16 26.09Z" fill="#1F1F1F"/>
<path d="M5.62 0L4.62 0.93L0.47 4.84L0 5.29V31.83L0.47 32.28L4.63 36.19L5.63 37.12L6.63 36.23L18.4 26L18.92 25.55V11.55L18.4 11.1L6.64 0.89L5.62 0ZM5.62 2L17.38 12.2V24.9L5.66 35.1L1.5 31.18V5.93L5.62 2Z" fill="#1F1F1F"/>
</g>
<defs>
<clipPath id="clip0_121_4449">
<rect width="174.16" height="37.12" fill="white"/>
</clipPath>
</defs>
</svg>
