<svg width="588" height="100" viewBox="0 0 588 100" fill="none" xmlns="http://www.w3.org/2000/svg">
<g clip-path="url(#clip0_121_4244)">
<path d="M337.78 32.07L360.06 30.4L332.58 28.35L374.63 25.2L337.19 22.4L389.06 18.53L300.72 11.92L324.46 10.14L281.12 6.89999L242.62 9.77999L225.3 7.52999L267.79 4.34999L233.74 1.80999L210.01 3.57999L182.46 1.51999L156.71 3.44999L182.87 5.40999L154.04 7.55999L125.22 5.40999L141.93 4.15999L121.97 2.65999L58.15 7.42999L80.77 9.11999L9.05 14.48L51.29 17.64L29 19.31L56.48 21.36L14.43 24.5L51.88 27.31L0 31.18L71.29 36.52L38.65 38.96L73.11 41.53L82.02 40.87L107.94 42.81L146.44 39.93L163.74 42.18L118.87 45.53L180.47 50.14L193.94 49.13L169.69 47.32L204.32 44.73L228.58 46.54L244.47 45.36L267.09 47.05L330.91 42.28L308.3 40.59L380.01 35.23L337.78 32.07Z" fill="#282828"/>
<path d="M223.49 49.06L246.74 50.8L270 49.06L246.74 47.32L223.49 49.06Z" fill="#282828"/>
<path d="M84.29 42.54L107.54 44.28L84.29 46.02L61.03 44.28L84.29 42.54Z" fill="#282828"/>
<path d="M388.92 84.3L407.02 82.94L384.7 81.27L418.86 78.72L388.44 76.44L430.58 73.3L358.82 67.93L378.1 66.49L342.9 63.85L311.62 66.19L297.56 64.36L332.07 61.78L304.41 59.71L285.13 61.16L262.76 59.48L241.84 61.05L263.09 62.64L239.68 64.39L216.26 62.64L229.83 61.62L213.62 60.41L161.78 64.28L180.15 65.66L121.9 70.01L156.2 72.58L138.1 73.93L160.42 75.6L126.27 78.15L156.68 80.43L114.54 83.58L172.46 87.91L145.94 89.89L173.93 91.98L181.17 91.44L202.22 93.02L233.5 90.68L247.55 92.51L211.1 95.23L261.14 98.97L272.08 98.16L252.38 96.68L280.51 94.58L300.22 96.05L313.13 95.09L331.5 96.46L383.34 92.59L364.98 91.22L423.23 86.86L388.92 84.3Z" fill="#282828"/>
<path d="M296.08 98.1L314.97 99.51L333.86 98.1L314.97 96.68L296.08 98.1Z" fill="#282828"/>
<path d="M183.01 92.8L201.9 94.22L183.01 95.63L164.12 94.22L183.01 92.8Z" fill="#282828"/>
<path d="M553.09 38.29L568.02 37.18L549.61 35.8L577.78 33.69L552.69 31.82L587.44 29.22L528.26 24.79L544.16 23.61L515.13 21.43L489.33 23.36L477.73 21.85L506.2 19.73L483.38 18.02L467.49 19.21L449.03 17.83L431.78 19.12L449.31 20.43L430 21.87L410.69 20.43L421.88 19.59L408.51 18.59L365.75 21.79L380.9 22.92L332.86 26.51L361.15 28.63L346.22 29.74L364.63 31.12L336.46 33.23L361.55 35.1L326.79 37.7L374.56 41.27L352.69 42.91L375.77 44.63L381.74 44.19L399.11 45.49L424.9 43.56L436.49 45.07L406.43 47.31L447.7 50.4L456.72 49.73L440.48 48.51L463.67 46.77L479.93 47.99L490.57 47.2L505.73 48.33L548.49 45.13L533.34 44L581.38 40.41L553.09 38.29Z" fill="#282828"/>
<path d="M476.52 49.67L492.1 50.84L507.68 49.67L492.1 48.51L476.52 49.67Z" fill="#282828"/>
<path d="M383.26 45.31L398.84 46.47L383.26 47.64L367.68 46.47L383.26 45.31Z" fill="#282828"/>
<path d="M45.5601 39.36V27.13H53.1201C53.1201 27.13 56.9201 28.93 62.7601 20.64H75.4401L80.4401 17.1C80.4401 17.1 84.7601 10.93 88.7201 10.93C92.6801 10.93 108.44 3.72 108.44 3.72L125.44 0L145.6 5.89L156.32 10.21C156.32 10.21 172.69 16.29 170.44 26.21C170.44 26.21 172.44 17.99 156.32 12.41C156.32 12.41 165.04 18.78 163.24 22.49C163.24 22.49 172.6 28.95 174.04 34.18C174.04 34.18 194.92 40.37 203.2 26.18C203.2 26.18 200.2 32.88 197.44 34.18C197.44 34.18 216.88 45.77 235.6 26.18C235.6 26.18 222.12 37.95 223 42.81L169.72 41.19C169.72 41.19 170.28 17.67 137.06 15.62C103.84 13.57 100.28 30.18 103 36.48L45.5601 39.36Z" fill="#572124"/>
<path d="M140.28 37.93C140.28 37.93 146.36 15.61 167.28 41.17C167.28 41.17 152.71 12.73 137.14 37.17L140.28 37.93Z" fill="#BE161D"/>
<path d="M159.47 26.28C159.69 26.42 160.06 26.69 160.54 27.06C159.87 26.56 159.47 26.28 159.47 26.28ZM179.75 38.28C178.702 37.6574 177.612 37.1062 176.49 36.63C177.716 39.2462 178.661 41.9848 179.31 44.8C178.471 41.7953 177.24 38.914 175.65 36.23C171.397 34.2436 167.319 31.9019 163.46 29.23C168.4 33.07 176.08 39.55 175.34 42.08C175.34 42.08 174.96 41.08 174.24 41.41C173.52 41.74 171.51 44.25 169.06 42.9C169.031 42.9644 169.007 43.0314 168.99 43.1L169.05 42.89C168.716 42.7108 168.41 42.4853 168.14 42.22C168.459 42.3863 168.794 42.5203 169.14 42.62C169.51 40.81 168.96 37.1 160.86 32.95C160.86 32.95 158.11 32.63 157.96 34.82C157.96 34.82 149.31 30.4 148.82 33.69C148.33 36.98 153.09 38.19 153.09 38.19L143.97 38.52C143.589 35.5223 144.393 32.4942 146.21 30.08C146.21 30.08 146.06 32.08 147.87 31.52C149.68 30.96 153.64 26.86 152.5 24.32C154.752 25.1053 156.865 26.2427 158.76 27.69C160.85 29.54 170.92 36.59 169.18 42.63C170.32 42.96 172.07 43.06 172.48 40.63C172.97 37.63 165.25 30.74 161.4 27.63L161.07 27.36L160.57 26.97L160.79 27.13C158.345 25.1899 156.19 22.9102 154.39 20.36C159.704 25.3088 165.906 29.2073 172.67 31.85C170.132 28.7314 167.151 26.0022 163.82 23.75C163.693 24.0473 163.518 24.3211 163.3 24.56C163.423 24.2379 163.507 23.9022 163.55 23.56C155.31 17.99 143.13 13.56 125.16 12.06C125.16 12.06 109.22 11.71 110.08 19.69C110.08 19.69 109.81 21.91 113.21 22.86C111.298 22.809 109.393 22.5881 107.52 22.2C107.52 22.2 107.94 21.2 106.98 21.2C106.02 21.2 92.98 29.66 93.58 35.75C93.58 35.75 96.87 35.75 99.94 29.61C99.94 29.61 98.44 34.05 97.6 36.07C97.6 36.07 93.39 37.55 92.47 41.07C92.0742 42.8088 91.4557 44.4894 90.63 46.07C90.63 46.07 75.26 59 61.94 60.62C61.94 60.62 56 61.36 51.84 58.62L54.24 58.52C54.24 58.52 45 57.1 41.07 51.35C37.14 45.6 33 33.25 34.41 25.42C34.41 25.42 35.3 32.56 38 36.42C38 36.42 40.58 13.57 59.88 0.499995C59.88 0.499995 54.63 6.79 54.75 9.39C54.75 9.39 52.67 8.84999 50.24 13.57C47.81 18.29 48.03 26.57 54.57 25.71C61.11 24.85 62.67 18.06 61.57 14.37C61.57 14.37 62.71 17.3 65.38 16.45C67.2751 15.7363 69.0238 14.6824 70.54 13.34C70.54 13.34 69.01 19.18 79.18 16.68L76.26 16.33C76.26 16.33 91 5.16 99.55 1.74C95.4085 4.11651 91.4448 6.79018 87.69 9.74C87.69 9.74 110.78 -4.00001 134 1.16999C134.66 1.31999 135.28 1.49 135.92 1.64999H135.84L136.37 1.79999L138.19 2.28999C142.11 3.28999 149.96 5.1 153.96 4.2C153.96 4.2 150.53 5.44 150.96 6.63C151.39 7.82 158.55 10.34 158.55 10.34C158.55 10.34 156.48 10.96 158.4 12.89C161.65 15.89 163.54 18.89 163.99 21.21C168.01 24.3774 171.463 28.2052 174.2 32.53C182.71 35.2 192.66 34.98 201.34 25.91C201.34 25.91 196.98 31.77 197.34 33C197.7 34.23 200.69 34.4 200.69 34.4L201.55 36.2C201.55 36.2 194.28 32.47 187.47 36.86C187.47 36.86 187.99 38.16 191.8 37.41C190.865 37.8826 189.845 38.1648 188.8 38.24C186.4 38.63 184.35 38.97 187.26 41.88C184.39 41.2604 181.561 40.4622 178.79 39.49C178.79 39.49 180.86 39.41 179.74 38.37L179.75 38.28ZM85.65 13.25L86.33 13.61L86.71 14.28L87.07 13.59L87.74 13.21L87.06 12.85L86.68 12.18L86.32 12.87L85.65 13.25ZM86.87 15C86.6976 15 86.5323 15.0685 86.4104 15.1904C86.2885 15.3123 86.22 15.4776 86.22 15.65C86.22 15.8224 86.2885 15.9877 86.4104 16.1096C86.5323 16.2315 86.6976 16.3 86.87 16.3C87.0424 16.3 87.2077 16.2315 87.3296 16.1096C87.4515 15.9877 87.52 15.8224 87.52 15.65C87.52 15.4776 87.4515 15.3123 87.3296 15.1904C87.2077 15.0685 87.0424 15 86.87 15ZM84.87 17C84.8726 17.1149 84.9201 17.2243 85.0023 17.3047C85.0846 17.385 85.195 17.43 85.31 17.43C85.4161 17.4179 85.5142 17.3676 85.586 17.2884C85.6577 17.2093 85.6983 17.1068 85.7 17C85.7014 16.9423 85.691 16.8849 85.6692 16.8314C85.6475 16.7779 85.615 16.7295 85.5737 16.6891C85.5324 16.6488 85.4832 16.6174 85.4292 16.5969C85.3753 16.5764 85.3177 16.5672 85.26 16.57C85.145 16.5726 85.0357 16.6201 84.9553 16.7024C84.8749 16.7846 84.83 16.895 84.83 17.01L84.87 17ZM83.5 15.71C83.5052 15.8842 83.5781 16.0495 83.7032 16.1709C83.8283 16.2922 83.9957 16.3601 84.17 16.36C84.3433 16.3548 84.5076 16.2815 84.6273 16.1562C84.7471 16.0308 84.8127 15.8633 84.81 15.69C84.8087 15.6046 84.7906 15.5204 84.7567 15.442C84.7228 15.3636 84.6739 15.2927 84.6126 15.2333C84.5513 15.1739 84.4789 15.1271 84.3995 15.0956C84.3201 15.0642 84.2354 15.0487 84.15 15.05C83.9767 15.0526 83.8114 15.1233 83.6898 15.2468C83.5681 15.3703 83.5 15.5367 83.5 15.71ZM80.5 18.27C80.502 18.357 80.5297 18.4414 80.5797 18.5127C80.6297 18.5839 80.6997 18.6387 80.7808 18.6701C80.862 18.7016 80.9506 18.7083 81.0355 18.6894C81.1205 18.6704 81.1979 18.6268 81.258 18.5639C81.3181 18.5009 81.3582 18.4216 81.3733 18.3359C81.3883 18.2502 81.3776 18.162 81.3425 18.0824C81.3074 18.0027 81.2494 17.9353 81.176 17.8886C81.1026 17.8419 81.017 17.818 80.93 17.82C80.8141 17.8251 80.7048 17.8748 80.6246 17.9587C80.5445 18.0425 80.4999 18.154 80.5 18.27ZM82.63 45.21C76.85 51.6 71.47 49.09 71.47 49.09C76.89 53.93 82.63 45.21 82.63 45.21ZM88.31 22.9C89.41 21.8 96.24 15.06 96.24 15.06C96.24 15.06 88.66 20.73 83.74 21.41C81.56 21.72 77.35 21.41 72.28 22.07C69.16 23.63 64.42 25.89 64.28 25.25C64.17 24.88 64.57 24.25 65.11 23.61C59.9523 25.1822 55.2495 27.9744 51.4 31.75C51.4 31.75 49 33.28 49.58 33.62L50.76 34.29C50.76 34.29 47.76 36.29 48.56 37.58C49.36 38.87 56.67 33.42 56.67 33.42C54.8661 35.3871 52.8917 37.1908 50.77 38.81C49.7787 39.5139 49.0409 40.5187 48.6662 41.6753C48.2915 42.8319 48.2998 44.0785 48.69 45.23C48.69 45.23 49.69 49.23 54.61 48.15L54.31 47.63L53.31 47.13L54.25 46.59L54.75 45.59L55.28 46.53L56.28 47.03L55.34 47.56L55.12 47.97C55.4 47.89 55.68 47.81 55.98 47.7C62.14 45.43 69.76 47.22 72.98 47.91C76.2 48.6 80.28 43.85 82.29 39.08C82.29 39.08 83.29 39.23 84.57 37.56C84.57 37.56 83.57 40.16 84.19 41.17C84.81 42.18 86.42 41.44 86.74 40.71L86.02 39.3C87.7324 38.279 89.1143 36.7861 90 35C90.5537 33.7691 90.7397 32.4043 90.5357 31.0701C90.3317 29.7359 89.7463 28.4892 88.85 27.48C89.4282 28.0068 89.9601 28.5823 90.44 29.2C90.44 29.2 91.12 23.7 94.04 21.28C94.04 21.28 88.7 24.62 87.86 25C87.02 25.38 87.19 24 88.28 22.89L88.31 22.9ZM142 7.59C142 7.59 131.13 2.20999 113.84 3.78999C111.099 5.94016 107.791 7.24348 104.32 7.54C104.32 7.54 92.8 11.64 87.12 17.4C87.12 17.4 89.7 15.07 92.22 15.79C92.22 15.79 116.53 -2.79 141.96 7.59H142ZM131.66 10.18L131.18 9.93L130.92 9.47L130.67 9.93999L130.2 10.21L130.68 10.45L130.94 10.92L131.19 10.45L131.66 10.18ZM134.11 9.56L133.64 9.31L133.38 8.85L133.13 9.31999L132.66 9.59L133.14 9.84L133.4 10.3L133.65 9.83L134.11 9.56ZM136.66 9.74C136.655 9.59497 136.594 9.45761 136.489 9.35688C136.385 9.25615 136.245 9.1999 136.1 9.2C135.956 9.20521 135.82 9.26683 135.72 9.37157C135.621 9.47632 135.567 9.61581 135.57 9.76C135.57 9.83131 135.584 9.9019 135.612 9.96755C135.64 10.0332 135.681 10.0925 135.732 10.142C135.784 10.1915 135.844 10.2301 135.911 10.2555C135.978 10.281 136.049 10.2927 136.12 10.29C136.264 10.2874 136.401 10.2283 136.502 10.1254C136.603 10.0225 136.66 9.88415 136.66 9.74ZM139.19 11.55C139.187 11.4059 139.128 11.2685 139.025 11.1675C138.923 11.0665 138.784 11.01 138.64 11.01C138.495 11.0152 138.358 11.0765 138.257 11.1809C138.156 11.2854 138.1 11.4249 138.1 11.57C138.105 11.7141 138.167 11.8504 138.272 11.9496C138.376 12.0487 138.516 12.1027 138.66 12.1C138.731 12.1 138.802 12.0857 138.868 12.0578C138.933 12.03 138.993 11.9891 139.042 11.9378C139.091 11.8864 139.13 11.8256 139.156 11.759C139.181 11.6923 139.193 11.6213 139.19 11.55ZM140.37 10.33C140.37 10.2587 140.356 10.1881 140.328 10.1224C140.3 10.0568 140.259 9.99746 140.208 9.94798C140.156 9.89849 140.096 9.85988 140.029 9.83445C139.962 9.80902 139.891 9.7973 139.82 9.8C139.676 9.80262 139.539 9.86172 139.438 9.96458C139.337 10.0674 139.28 10.2058 139.28 10.35C139.269 10.4278 139.276 10.5069 139.298 10.582C139.321 10.6572 139.359 10.7267 139.411 10.7858C139.462 10.8449 139.526 10.8923 139.597 10.9247C139.669 10.9572 139.747 10.974 139.825 10.974C139.903 10.974 139.981 10.9572 140.052 10.9247C140.124 10.8923 140.188 10.8449 140.239 10.7858C140.291 10.7267 140.329 10.6572 140.352 10.582C140.374 10.5069 140.381 10.4278 140.37 10.35V10.33ZM145.52 12.45C145.52 12.4071 145.511 12.3647 145.495 12.3252C145.478 12.2857 145.454 12.25 145.423 12.2201C145.392 12.1903 145.356 12.1669 145.316 12.1514C145.276 12.1359 145.233 12.1287 145.19 12.13C145.114 12.1435 145.044 12.1834 144.994 12.2428C144.945 12.3023 144.917 12.3774 144.917 12.455C144.917 12.5326 144.945 12.6077 144.994 12.6671C145.044 12.7266 145.114 12.7665 145.19 12.78C145.233 12.78 145.275 12.7714 145.315 12.7547C145.354 12.738 145.39 12.7135 145.42 12.6828C145.45 12.652 145.473 12.6155 145.489 12.5755C145.504 12.5355 145.511 12.4929 145.51 12.45H145.52ZM146.61 13.3C146.599 13.2509 146.572 13.2069 146.533 13.1754C146.494 13.1438 146.445 13.1266 146.395 13.1266C146.345 13.1266 146.296 13.1438 146.257 13.1754C146.218 13.2069 146.191 13.2509 146.18 13.3C146.191 13.3491 146.218 13.3931 146.257 13.4246C146.296 13.4562 146.345 13.4734 146.395 13.4734C146.445 13.4734 146.494 13.4562 146.533 13.4246C146.572 13.3931 146.599 13.3491 146.61 13.3ZM163.2 20.55C161.67 15.91 154.4 8.66 125.04 6.01C130.917 6.7191 136.706 8.02244 142.32 9.89999C142.233 10.1001 142.197 10.3189 142.217 10.5363C142.236 10.7538 142.31 10.9628 142.431 11.1442C142.553 11.3255 142.718 11.4733 142.912 11.5739C143.106 11.6746 143.322 11.7248 143.54 11.72C143.825 11.7118 144.1 11.6092 144.321 11.4282C144.541 11.2472 144.696 10.9982 144.76 10.72C151.37 13.0323 157.588 16.3404 163.2 20.53V20.55ZM147.4 17.23L147.06 17.87L146.44 18.22L147.07 18.56L147.43 19.18L147.76 18.54L148.39 18.19L147.75 17.85L147.4 17.23ZM149.54 21.11L150 20.23L150.85 19.75L149.98 19.29L149.49 18.43L149.03 19.3L148.18 19.79L149.05 20.25L149.54 21.11ZM182.24 32.57L182.78 31.57L183.78 31L182.78 30.46L182.21 29.46L181.68 30.46L180.68 31.03L181.68 31.56L182.24 32.57ZM185.41 30.67L185.81 29.91L186.56 29.48L185.8 29.08L185.37 28.33L184.97 29.09L184.22 29.52L184.98 29.92L185.41 30.67ZM186.07 31.96L186.41 32.14L186.6 32.47L186.78 32.13L187.11 31.94L186.77 31.76L186.58 31.43L186.4 31.77L186.07 31.96ZM189.22 32.83L189.49 32.32L190 32L189.49 31.73L189.2 31.23L188.93 31.74L188.43 32.03L188.94 32.29L189.22 32.83ZM194.54 29.9L195.08 28.9L196.08 28.33L195.08 27.8L194.51 26.8L193.98 27.8L192.98 28.37L193.98 28.91L194.54 29.9ZM201.1 31.39L200.89 31.79L200.49 32.02L200.9 32.23L201.12 32.62L201.33 32.22L201.73 32L201.32 31.78L201.1 31.39ZM174.47 27.65L174.82 26.98L175.48 26.61L174.81 26.26L174.44 25.6L174.08 26.27L173.43 26.64L174.1 27L174.47 27.65ZM97.24 36.74L96.79 37.58L95.96 38.06L96.81 38.5L97.28 39.33L97.72 38.49L98.55 38.01L97.71 37.57L97.24 36.74ZM100.24 35.57L99.95 36.1L99.43 36.4L99.96 36.68L100.26 37.21L100.54 36.67L101.07 36.38L100.54 36.09L100.24 35.57ZM102.9 38.46L102.58 39.07L101.98 39.41L102.59 39.73L102.93 40.32L103.25 39.72L103.84 39.38L103.24 39.06L102.9 38.46ZM168.9 43.25C168.819 43.449 168.725 43.6427 168.62 43.83C168.733 43.6467 168.827 43.4524 168.9 43.25ZM168.9 43.15V43.23V43.15ZM243.99 10.65C243.99 10.65 246.3 18.28 245.11 23.77C245.11 23.77 245.21 18.66 243.22 19.97C241.23 21.28 233.14 28.53 239.4 32.08C239.4 32.08 225.4 32.49 224.4 41.45C224.4 41.45 221.21 40.78 216.73 40.17C216.036 40.6471 215.304 41.0652 214.54 41.42C206.21 45.42 185.02 49.92 191.12 41.34C188.33 42.91 187.06 45.48 188.57 49.51C188.57 49.51 183.68 41.01 196.42 38.43C196.42 38.43 193.48 37.2 195.1 36.08C195.1 36.08 206.95 40.38 217.68 38.29C218.77 36.88 218.56 35.29 216.24 33.55C216.24 33.55 219.84 35.46 218.66 38.08C221.631 37.4379 224.421 36.1433 226.83 34.29C226.83 34.29 223.02 35.45 221.2 35.84C223.964 34.7177 226.582 33.2673 229 31.52L228.71 31.02L227.33 30.29L228.69 29.51L229.42 28.13L230.2 29.49L231.06 29.94C237.251 24.9874 241.786 18.2654 244.06 10.67L243.99 10.65ZM215.68 40C209.34 39.18 200.91 38.57 195.03 39.93C193.6 40.62 191.18 42.12 192.4 43.93C193.62 45.74 209.25 43.83 215.68 39.93V40ZM247.83 17.65L247.47 18.34L246.78 18.73L247.48 19.09L247.87 19.78L248.23 19.08L248.91 18.7L248.22 18.33L247.83 17.65ZM250 16.63L249.83 16.97L249.5 17.15L249.83 17.33L250.02 17.66L250.2 17.32L250.53 17.14L250.19 16.96L250 16.63ZM247.77 13.81L247.24 14.81L246.24 15.37L247.24 15.9L247.81 16.9L248.34 15.9L249.34 15.34L248.34 14.81L247.77 13.81ZM252.44 12L252.11 11.41L251.8 12.01L251.21 12.34L251.81 12.65L252.14 13.24L252.45 12.64L253.04 12.31L252.44 12ZM230.84 28.18L231.16 27.59L231.74 27.26L231.15 26.94L230.81 26.36L230.5 26.95L229.92 27.29L230.51 27.6L230.84 28.18ZM228.26 26.49L228.54 25.95L229.06 25.66L228.53 25.38L228.23 24.85L227.95 25.39L227.43 25.68L228 26L228.26 26.49ZM227.55 28C227.555 28.1211 227.607 28.2356 227.695 28.3195C227.782 28.4033 227.899 28.4501 228.02 28.45C228.14 28.4474 228.255 28.3978 228.339 28.3118C228.423 28.2258 228.47 28.1103 228.47 27.99C228.465 27.8688 228.413 27.7544 228.325 27.6705C228.238 27.5866 228.121 27.5399 228 27.54C227.88 27.5426 227.765 27.5922 227.681 27.6782C227.597 27.7642 227.55 27.8797 227.55 28ZM231.06 24.75C231.325 24.75 231.58 24.6446 231.767 24.4571C231.955 24.2696 232.06 24.0152 232.06 23.75C232.06 23.4848 231.955 23.2304 231.767 23.0429C231.58 22.8554 231.325 22.75 231.06 22.75C230.795 22.75 230.54 22.8554 230.353 23.0429C230.165 23.2304 230.06 23.4848 230.06 23.75C230.06 24.0152 230.165 24.2696 230.353 24.4571C230.54 24.6446 230.795 24.75 231.06 24.75ZM234.65 21C234.715 21.0097 234.782 21.0052 234.846 20.9868C234.909 20.9684 234.968 20.9365 235.018 20.8934C235.068 20.8502 235.108 20.7967 235.136 20.7366C235.163 20.6765 235.178 20.6111 235.178 20.545C235.178 20.4789 235.163 20.4135 235.136 20.3534C235.108 20.2933 235.068 20.2398 235.018 20.1966C234.968 20.1534 234.909 20.1216 234.846 20.1032C234.782 20.0848 234.715 20.0803 234.65 20.09C234.541 20.1062 234.441 20.1611 234.369 20.2446C234.297 20.3281 234.258 20.4347 234.258 20.545C234.258 20.6553 234.297 20.7619 234.369 20.8454C234.441 20.9289 234.541 20.9838 234.65 21ZM205.26 38.13C205.443 38.13 205.621 38.0755 205.773 37.9734C205.925 37.8714 206.043 37.7266 206.112 37.5573C206.181 37.388 206.198 37.202 206.161 37.023C206.123 36.844 206.034 36.6802 205.903 36.5523C205.772 36.4245 205.607 36.3385 205.427 36.3053C205.247 36.2721 205.062 36.2932 204.894 36.3659C204.726 36.4386 204.584 36.5596 204.485 36.7135C204.387 36.8674 204.336 37.0472 204.34 37.23C204.345 37.4705 204.444 37.6994 204.616 37.8676C204.788 38.0359 205.019 38.1301 205.26 38.13ZM208.61 35.88C208.669 35.8801 208.728 35.868 208.783 35.8447C208.838 35.8213 208.887 35.7871 208.928 35.7441C208.97 35.7011 209.002 35.6502 209.022 35.5945C209.043 35.5388 209.053 35.4794 209.05 35.42C209.05 35.3282 209.022 35.2385 208.971 35.1625C208.919 35.0865 208.846 35.0276 208.761 34.9934C208.676 34.9593 208.582 34.9514 208.493 34.9709C208.403 34.9903 208.321 35.0361 208.258 35.1025C208.194 35.1688 208.152 35.2526 208.137 35.3431C208.121 35.4337 208.133 35.5267 208.171 35.6103C208.209 35.694 208.271 35.7643 208.349 35.8124C208.427 35.8604 208.518 35.884 208.61 35.88ZM202.93 40.54C202.935 40.685 202.996 40.8224 203.101 40.9231C203.205 41.0238 203.345 41.0801 203.49 41.08C203.599 41.078 203.704 41.0438 203.794 40.9817C203.883 40.9197 203.952 40.8325 203.992 40.7313C204.032 40.63 204.04 40.5193 204.017 40.413C203.994 40.3067 203.94 40.2097 203.862 40.1342C203.783 40.0587 203.684 40.0081 203.577 39.9888C203.47 39.9695 203.36 39.9824 203.26 40.0258C203.161 40.0693 203.076 40.1413 203.017 40.2328C202.958 40.3243 202.928 40.4312 202.93 40.54ZM57.19 45.43L57.04 45.71L56.76 45.87L57.05 46.02L57.21 46.3L57.36 46.02L57.64 45.86L57.35 45.71L57.19 45.43ZM57.5 44L57.3 44.38L56.92 44.59L57.3 44.79L57.51 45.17L57.72 44.79L58.09 44.58L57.71 44.37L57.5 44ZM55.63 43L55.36 43.51L54.86 43.8L55.37 44.06L55.65 44.57L55.92 44.06L56.43 43.77L55.92 43.5L55.63 43ZM80 30.34L79.84 30.64L79.54 30.81L79.84 30.96L80.01 31.26L80.17 30.96L80.46 30.79L80.16 30.63L80 30.34ZM83 27.14L82.59 27.93L81.81 28.37L82.6 28.79L83.04 29.57L83.46 28.78L84.24 28.33L83.45 27.92L83 27.14ZM61 42.75L60.7 43.32L60.14 43.64L60.71 43.94L61.03 44.5L61.33 43.93L61.89 43.61L61.32 43.31L61 42.75ZM81 29.31L80.83 29.63L80.52 29.81L81 30L81.17 30.31L81.34 29.99L81.65 29.81L81.34 29.64L81 29.31ZM179.2 44.83C180.033 48.5171 180.423 52.2905 180.36 56.07C180.664 52.2839 180.271 48.4742 179.2 44.83Z" fill="#BE161D"/>
<path d="M57.32 26.64C57.32 26.64 50.78 31.28 52.58 32.89C54.38 34.5 57.22 31.47 57.22 31.47C57.22 31.47 56.37 33.65 57.22 33.93C58.07 34.21 61.22 30.81 66.41 32.32C66.41 32.32 61.68 32.51 62.72 35.45L46 36.49L46.19 32.13C46.19 32.13 52.73 26.83 57.37 26.64" fill="#BE161D"/>
<path d="M80.85 34.56C80.85 34.56 84.5 34.65 85.85 31.95C85.8932 32.1001 85.9663 32.24 86.0649 32.3612C86.1636 32.4824 86.2856 32.5824 86.4238 32.6552C86.5621 32.7281 86.7136 32.7722 86.8693 32.7851C87.025 32.7979 87.1817 32.7792 87.33 32.73C88.0769 32.4579 88.6891 31.9067 89.0379 31.1924C89.3867 30.4781 89.4448 29.6563 89.2 28.9C89.5657 29.4952 89.7806 30.1707 89.8259 30.8678C89.8712 31.5649 89.7456 32.2625 89.46 32.9C89.46 32.9 87.81 33.77 87.89 34.81L80.85 34.56Z" fill="#BE161D"/>
<path d="M52.32 32.48C52.32 32.48 51.32 30.48 53.1 27.48C53.1 27.48 52.05 30.39 53.47 31.04L52.32 32.48Z" fill="#BE161D"/>
<path d="M72.28 22.07L76.97 19.07L72.91 22.51L72.28 22.07Z" fill="#BE161D"/>
<path d="M182.77 18.28H180.77V9.28H182.77C185.35 9.28 186.77 10.93 186.77 13.8C186.77 16.67 185.3 18.28 182.77 18.28ZM210.36 10.28V9.75C210.016 9.8429 209.681 9.96674 209.36 10.12C209.696 10.1177 210.032 10.1546 210.36 10.23V10.28ZM188.88 18.1L188.33 18.86L188.53 16.71C188.711 15.2672 189.424 13.944 190.53 13C190.38 13 190.21 13 190.03 13.08L188.1 13.47L189.49 12.08C190.01 11.6197 190.592 11.2358 191.22 10.94L191.43 10.82C190.758 8.78839 189.324 7.09654 187.43 6.1C186.094 5.4361 184.622 5.09365 183.13 5.1H179.62C177.926 5.18133 176.227 5.09424 174.55 4.84C173.991 4.69606 173.458 4.46668 172.97 4.16L172.72 4V4.25C172.862 4.98785 173.153 5.68883 173.576 6.30971C173.999 6.93059 174.545 7.45821 175.18 7.86C175.61 8.17 175.92 8.48 175.92 9.59V19.64C175.92 20.72 175.7 21.02 175.2 21.32L173.54 22.32L173.15 22.55H182.29C184.378 22.6805 186.451 22.1219 188.19 20.96C188.427 20.7977 188.655 20.6207 188.87 20.43C188.755 19.6643 188.755 18.8857 188.87 18.12L188.88 18.1ZM206.37 18.36C206.424 18.2783 206.458 18.1848 206.468 18.0873C206.479 17.9899 206.466 17.8913 206.43 17.8L205.87 16.25L207.29 17.1C207.422 17.1812 207.546 17.2749 207.66 17.38L208.52 17.32C209.14 17.2562 209.767 17.3384 210.35 17.56V13.13C210.107 13.2029 209.878 13.3143 209.67 13.46L209.31 13.79L208.92 13.49C208.625 13.2906 208.276 13.1859 207.92 13.19C207.596 13.1884 207.275 13.2552 206.979 13.3862C206.682 13.5172 206.417 13.7093 206.2 13.95C205.95 14.24 205.72 14.55 205.5 14.85V18.35C205.85 18.62 206.21 18.61 206.4 18.35L206.37 18.36ZM217 6.1C215.664 5.4361 214.192 5.09365 212.7 5.1H209.18C207.489 5.18146 205.794 5.09437 204.12 4.84C203.559 4.69252 203.024 4.4634 202.53 4.16L202.27 4V4.25C202.411 4.98682 202.701 5.68707 203.122 6.30782C203.544 6.92857 204.087 7.45676 204.72 7.86C205.16 8.17 205.46 8.48 205.46 9.59V10.32C205.97 10.0086 206.509 9.74737 207.07 9.54C206.831 9.75205 206.614 9.98646 206.42 10.24C206.931 9.92204 207.504 9.71429 208.1 9.63C208.84 9.49288 209.6 9.49288 210.34 9.63V9.28H212.34C214.92 9.28 216.39 10.93 216.39 13.8C216.39 16.67 214.92 18.28 212.34 18.28H211.57C211.914 18.5814 212.19 18.9518 212.381 19.367C212.572 19.7822 212.674 20.2329 212.68 20.69C212.674 21.3505 212.465 21.993 212.08 22.53C214.101 22.6225 216.099 22.0653 217.78 20.94C218.487 20.4691 219.118 19.8924 219.65 19.23C220.849 17.6567 221.49 15.7283 221.47 13.75C221.506 12.1861 221.107 10.6428 220.318 9.29215C219.529 7.94148 218.38 6.8364 217 6.1Z" fill="#BE161D"/>
<path d="M191.82 7.16001C191.736 6.52829 191.799 5.88578 192.004 5.28229C192.208 4.67879 192.549 4.13053 193 3.68001C193.516 3.15677 194.144 2.75722 194.837 2.51129C195.53 2.26537 196.269 2.17946 197 2.26001C197.57 2.24487 198.137 2.346 198.667 2.55724C199.197 2.76848 199.678 3.0854 200.081 3.48868C200.485 3.89195 200.802 4.37314 201.013 4.9029C201.224 5.43266 201.325 5.99989 201.31 6.57001C201.236 7.80906 200.806 9.00032 200.07 10C200.032 9.95182 199.988 9.9082 199.94 9.87001L199.46 9.42001C198.944 8.98254 198.478 8.48956 198.07 7.95001C198.87 6.5 198.42 4.44001 196.73 4.44001C196.476 4.45576 196.228 4.52339 196.002 4.63869C195.775 4.754 195.575 4.91455 195.412 5.11041C195.25 5.30628 195.13 5.53331 195.059 5.77747C194.988 6.02164 194.968 6.27776 195 6.53001C194.728 7.20548 194.612 7.93349 194.66 8.66001C194.197 8.41146 193.82 8.02779 193.58 7.56001L193 6.07001L192.51 7.60001C192.398 7.97949 192.371 8.37884 192.43 8.77001C192.111 8.28981 191.921 7.73515 191.88 7.16001H191.82ZM189.9 12.5C190.73 11.67 192.43 11.15 192.55 10.7C192.67 10.25 191.78 9.49001 191.45 9.35001C192.063 9.29896 192.679 9.35996 193.27 9.53C193.103 9.27447 192.992 8.98609 192.946 8.68424C192.899 8.38239 192.918 8.07408 193 7.78001C193.66 9.37001 196 9.62001 196.6 10.93C196.51 10.5982 196.354 10.2881 196.14 10.0183C195.927 9.74852 195.662 9.52459 195.36 9.36C195.219 8.88109 195.175 8.37902 195.23 7.88291C195.285 7.38681 195.438 6.90655 195.68 6.47001C195.54 8.76 198.8 10.06 199.48 11.72C199.08 10.3 197.56 9.40001 196.84 8.55001C196.744 8.24444 196.713 7.92247 196.747 7.60417C196.782 7.28588 196.881 6.97809 197.04 6.70001C196.97 8.23001 198.62 9.42001 199.5 10.28C199.904 10.5809 200.225 10.9786 200.435 11.4365C200.645 11.8944 200.736 12.3977 200.7 12.9C200.846 12.9333 200.976 13.0185 201.064 13.1399C201.152 13.2613 201.193 13.4105 201.18 13.56C201.347 13.5021 201.5 13.4111 201.63 13.2925C201.761 13.174 201.866 13.0303 201.94 12.87C202.01 13.392 201.928 13.9229 201.704 14.3998C201.481 14.8766 201.126 15.2793 200.68 15.56C200.747 15.3959 200.77 15.2168 200.745 15.041C200.721 14.8653 200.65 14.6993 200.54 14.56C200.21 14.15 199.25 14.14 198.93 14.17C198.93 14.17 199.32 13.58 199.17 13.28C199.02 12.98 197.1 13.08 196.27 13.38C196.672 13.3593 197.074 13.4066 197.46 13.52C197.33 13.72 196.99 14.52 197.23 14.79C197.47 15.06 197.76 14.62 197.76 14.62C197.76 14.62 197.47 15.52 197.68 15.73C197.89 15.94 198.33 15.79 198.33 15.79C198.114 16.1537 197.809 16.456 197.443 16.6679C197.077 16.8797 196.663 16.9941 196.24 17C196.6 16.8235 196.879 16.5158 197.02 16.14C196.73 16.25 196.419 16.2911 196.11 16.26C196.337 16.1031 196.513 15.883 196.616 15.627C196.719 15.371 196.745 15.0905 196.69 14.82C196.47 13.82 195.02 13.65 194.29 14.15C194.564 13.4554 195.099 12.8956 195.78 12.59C195.423 12.4638 195.054 12.3701 194.68 12.31C195.344 11.8868 196.113 11.6581 196.9 11.65C196.307 11.538 195.696 11.5704 195.118 11.7445C194.54 11.9185 194.013 12.2291 193.58 12.65C193.953 12.6778 194.321 12.7448 194.68 12.85C193.608 13.1413 192.625 13.6945 191.82 14.46C191.994 13.9942 192.055 13.4941 192 13C191.8 12.49 191.18 12.27 190 12.53L189.9 12.5ZM199.4 12.64C199.31 12.3869 199.166 12.1566 198.977 11.9649C198.789 11.7732 198.561 11.6248 198.31 11.53C198.48 12.11 198.7 12.64 199.4 12.64ZM212.17 20.72C212.149 20.2984 212.039 19.8859 211.847 19.5097C211.656 19.1335 211.387 18.8019 211.059 18.5367C210.73 18.2714 210.349 18.0785 209.941 17.9705C209.533 17.8625 209.107 17.8419 208.69 17.91C209.032 17.9813 209.341 18.1626 209.571 18.4263C209.8 18.6899 209.937 19.0214 209.96 19.37C209.96 20.68 208.32 21.09 207.42 20.88C207.646 20.6595 207.82 20.3908 207.928 20.094C208.036 19.7971 208.075 19.4797 208.044 19.1654C208.012 18.8511 207.91 18.5481 207.745 18.2788C207.579 18.0095 207.356 17.7809 207.09 17.61C207.196 17.8612 207.209 18.1419 207.128 18.4019C207.046 18.662 206.874 18.8846 206.644 19.0299C206.413 19.1753 206.138 19.234 205.868 19.1955C205.598 19.1571 205.351 19.024 205.17 18.82C204.54 18.3 203.07 17.07 202.42 16.55C201.77 16.03 201 16.33 200.69 16.1C200.38 15.87 200.57 15.1 200.1 14.83C199.63 14.56 199.32 14.73 198.86 14.58C198.659 14.535 198.481 14.4195 198.358 14.2543C198.235 14.0892 198.175 13.8854 198.19 13.68C198.091 13.8733 198.049 14.0913 198.07 14.3077C198.091 14.5241 198.175 14.7298 198.31 14.9C198.63 15.26 199.15 15.48 199.31 15.9C199.47 16.32 199.12 17.13 200.37 18.11C200.96 18.57 201.88 19.34 202.48 19.86C203.48 20.75 202.95 21.86 203.08 22.86C203.148 23.3053 203.341 23.7221 203.637 24.0619C203.932 24.4018 204.318 24.6508 204.75 24.78C204.446 24.4542 204.277 24.0254 204.277 23.58C204.277 23.1346 204.446 22.7058 204.75 22.38C204.808 23.0094 205.053 23.6068 205.455 24.0953C205.856 24.5837 206.394 24.9407 207 25.12C207.668 25.2888 208.369 25.2739 209.029 25.0767C209.69 24.8796 210.284 24.5075 210.75 24C210.35 24.1057 209.931 24.1165 209.527 24.0314C209.122 23.9463 208.743 23.7678 208.42 23.51C208.846 23.5949 209.286 23.5879 209.709 23.4896C210.133 23.3913 210.53 23.204 210.876 22.94C211.221 22.676 211.506 22.3415 211.712 21.9587C211.918 21.5759 212.04 21.1536 212.07 20.72H212.17ZM202.07 20.29C201.56 19.83 200.79 19.19 200.2 18.73C199.54 19.86 198.14 21.33 196.71 21.33C194.09 21.33 192.77 17.62 195.71 14.58C195.584 14.5386 195.452 14.5183 195.32 14.52C195.087 14.511 194.856 14.5739 194.66 14.7L193.5 15.5L193.76 14.02L193.85 13.79C193.277 14.071 192.748 14.4349 192.28 14.87L191.14 16.11L191.27 14.36C191.27 14.23 191.27 14.09 191.34 13.97C191.415 13.7241 191.446 13.4667 191.43 13.21C191.412 13.1732 191.385 13.142 191.35 13.12C190.159 14.0043 189.364 15.3232 189.14 16.79C189.28 16.5848 189.465 16.4139 189.68 16.29C189.85 16.23 189.99 16.29 189.83 16.79C189.77 16.98 188.34 20.86 191.16 23.55C191.16 23.55 190.85 22.76 191.04 22.55C191.23 22.34 191.25 22.42 191.41 22.63C191.57 22.84 191.66 22.95 191.79 23.1C192.292 23.6842 192.917 24.1489 193.621 24.4603C194.326 24.7718 195.09 24.922 195.86 24.9C199.35 24.9 201.2 22.49 202.23 20.47L202.07 20.32V20.29ZM208.07 11.89C205.47 12.02 203.23 14.23 202.07 15.79C202.295 15.8626 202.504 15.9743 202.69 16.12L203.69 16.92C204.225 15.7277 204.925 14.6168 205.77 13.62C206.202 13.1248 206.796 12.7988 207.446 12.7C208.096 12.6011 208.76 12.7357 209.32 13.08C210.387 12.4151 211.66 12.1626 212.9 12.37C211.996 11.4103 210.757 10.8371 209.44 10.77C208.22 10.77 207.52 11.37 207.35 11.1C207.18 10.83 208.18 10.24 208.18 10.24C206.73 10.3 205.68 12 205.24 11.79C204.98 11.66 205.63 10.79 205.63 10.79C204.375 11.5748 203.434 12.7741 202.97 14.18C203.595 13.4352 204.377 12.8388 205.261 12.4341C206.145 12.0293 207.108 11.8264 208.08 11.84L208.07 11.89ZM208.52 18.47C208.726 18.5155 208.913 18.6251 209.053 18.7832C209.193 18.9413 209.28 19.1397 209.3 19.35C209.3 19.4924 209.26 19.632 209.186 19.7536C209.112 19.8752 209.006 19.9743 208.88 20.04C208.75 20.123 208.608 20.187 208.46 20.23C208.552 19.9391 208.592 19.6347 208.58 19.33C208.58 18.78 208.52 18.47 208.52 18.47Z" fill="#BE161D"/>
<path d="M56.85 42.2096V78.7011L22.35 83.2104V46.7189L56.85 42.2096Z" fill="#353535" stroke="#1F1F1F"/>
<path d="M21.85 46.28V83.78L57.35 79.14V41.64L21.85 46.28Z" fill="#353535" stroke="#1F1F1F" stroke-width="1.38" stroke-miterlimit="10"/>
<path d="M22.63 81L57.35 76.07M22.63 48.79L57.35 44.37L22.63 48.79Z" stroke="#1F1F1F" stroke-width="0.75" stroke-miterlimit="10"/>
<path d="M56.85 78.5607L33.63 75.1285V38.6393L56.85 42.0715V78.5607Z" fill="#353535" stroke="#1F1F1F"/>
<path d="M57.35 41.64L33.13 38.06V75.56L57.35 79.14V41.64Z" fill="#353535" stroke="#1F1F1F" stroke-width="1.38" stroke-miterlimit="10"/>
<path d="M251.67 38.6582V75.1423C220.933 80.6544 181.855 77.8628 142.691 75.0613L142.634 75.0572C103.606 72.2654 64.4958 69.4678 33.67 74.9618V38.4777C64.4072 32.9656 103.485 35.7572 142.649 38.5587L142.706 38.5628C181.734 41.3546 220.844 44.1523 251.67 38.6582Z" fill="#353535" stroke="#1F1F1F"/>
<path d="M252.17 41C252.17 41 232.3 49 138.17 40.71C71.62 34.8 38.41 40 33.28 40.86L252.17 41ZM253.05 71.94C253.05 71.94 232.55 80.6 138.38 72.27C71.87 66.38 38.66 71.54 33.53 72.44" fill="#353535"/>
<path d="M253.05 71.94C253.05 71.94 232.55 80.6 138.38 72.27C71.87 66.38 38.66 71.54 33.53 72.44M252.17 41C252.17 41 232.3 49 138.17 40.71C71.62 34.8 38.41 40 33.28 40.86L252.17 41Z" stroke="#1F1F1F" stroke-miterlimit="10"/>
<path d="M252.17 75.56C190.42 86.81 94.88 64.31 33.17 75.56V38.06C94.92 26.81 190.46 49.31 252.17 38.06V75.56Z" stroke="#1F1F1F" stroke-miterlimit="10"/>
</g>
<defs>
<clipPath id="clip0_121_4244">
<rect width="587.44" height="99.51" fill="white"/>
</clipPath>
</defs>
</svg>
