<svg width="309" height="93" viewBox="0 0 309 93" fill="none" xmlns="http://www.w3.org/2000/svg">
<path d="M9.36698 92.0643H299.745C299.745 87.3114 308.082 84.7291 308.082 84.7291V0.935547H303.249C303.249 0.935547 299.296 8.42046 286.575 0.935547H22.4808C9.74167 8.42046 5.78877 0.935547 5.78877 0.935547H0.936646V84.7291C0.936646 84.7291 9.36698 87.3114 9.36698 92.0643Z" fill="#1F1F1F"/>
<path d="M5.26428 1.87123C5.97023 2.7772 6.85495 3.52869 7.86362 4.07911C8.87228 4.62953 9.98338 4.96714 11.128 5.07103C11.2699 5.34592 11.4848 5.5765 11.7491 5.73747C12.0135 5.89845 12.3172 5.9836 12.6268 5.9836C12.9364 5.9836 13.24 5.89845 13.5044 5.73747C13.7688 5.5765 13.9837 5.34592 14.1255 5.07103C17.1698 4.58372 20.0866 3.49599 22.7057 1.87123H286.294C288.919 3.47358 291.835 4.54194 294.874 5.01489C295.016 5.28979 295.231 5.52036 295.496 5.68134C295.76 5.84231 296.064 5.92747 296.373 5.92747C296.683 5.92747 296.986 5.84231 297.251 5.68134C297.515 5.52036 297.73 5.28979 297.872 5.01489C299.013 4.92009 300.122 4.59212 301.131 4.05135C302.139 3.51057 303.026 2.76851 303.736 1.87123H307.127V18.7123C305.428 28.4289 304.507 38.2652 304.373 48.128V77.5998C300.926 83.2135 294.5 91.1288 285.995 91.1288H23.0055C14.5189 91.1288 8.01819 83.1573 4.62732 77.5998V48.128C4.49301 38.2652 3.57213 28.4289 1.87341 18.7123V1.87123H5.26428ZM307.127 72.5475C306.921 72.9779 306.321 74.2877 305.253 76.028V48.128C305.349 40.3414 305.975 32.5703 307.127 24.8686V72.5475ZM298.865 91.1288H293.544C300.101 87.8354 304.785 80.9119 307.127 76.6642V84.1491C305.253 84.8602 299.633 87.2179 298.865 91.2223V91.1288ZM10.1164 91.1288C9.36704 87.1244 3.74682 84.7666 1.87341 84.0555V76.7203C4.25264 80.968 8.89869 87.9477 15.4556 91.1849L10.1164 91.1288ZM3.74682 76.028C2.75391 74.2877 2.13569 72.9779 1.87341 72.5475V24.8686C3.02532 32.5703 3.65123 40.3414 3.74682 48.128V76.028ZM0.655693 85.6274C2.79138 86.2823 8.33667 88.7336 8.33667 92.0644V93H300.588V92.0644C300.588 88.7523 306.209 86.2823 308.269 85.6274L308.925 85.4215V0H302.612L302.331 0.486519C301.81 1.25837 301.122 1.90312 300.318 2.37285C299.513 2.84259 298.613 3.12524 297.685 3.1998C297.53 2.98719 297.327 2.81417 297.093 2.69486C296.858 2.57556 296.599 2.51336 296.336 2.51336C296.073 2.51336 295.813 2.57556 295.579 2.69486C295.344 2.81417 295.142 2.98719 294.987 3.1998C292.157 2.7078 289.452 1.6651 287.025 0.130986L286.8 0H22.1999L21.9938 0.130986C19.532 1.65238 16.795 2.67598 13.9382 3.14366C13.7791 2.93421 13.5727 2.76534 13.3357 2.65086C13.0988 2.53639 12.8381 2.47957 12.575 2.48504C12.3118 2.49052 12.0537 2.55814 11.8218 2.68237C11.5898 2.8066 11.3906 2.98391 11.2404 3.1998C10.3117 3.12524 9.41171 2.84259 8.60736 2.37285C7.80301 1.90312 7.11498 1.25837 6.5944 0.486519L6.33212 0H0V85.4215L0.655693 85.6274Z" fill="#333333"/>
</svg>
