<svg width="308" height="119" viewBox="0 0 308 119" fill="none" xmlns="http://www.w3.org/2000/svg">
<path d="M298.775 0.931152H9.33677C9.33677 5.58759 0.933716 8.23245 0.933716 8.23245V118.124H5.75147C5.75147 118.124 9.69157 110.674 22.3895 118.124H285.704C298.383 110.674 302.323 118.124 302.323 118.124H307.141V8.23245C307.141 8.23245 298.775 5.58759 298.775 0.931152Z" fill="#1F1F1F"/>
<path d="M302.753 117.137C302.052 116.234 301.171 115.486 300.164 114.941C299.158 114.396 298.049 114.066 296.908 113.971C296.767 113.697 296.552 113.468 296.289 113.308C296.025 113.147 295.723 113.063 295.414 113.063C295.105 113.063 294.803 113.147 294.539 113.308C294.276 113.468 294.062 113.697 293.92 113.971C290.894 114.443 287.988 115.499 285.368 117.082H22.6322C20.0129 115.497 17.1072 114.44 14.0798 113.971C13.9384 113.697 13.7242 113.468 13.4607 113.308C13.1972 113.147 12.8945 113.063 12.5859 113.063C12.2773 113.063 11.9746 113.147 11.7111 113.308C11.4476 113.468 11.2334 113.697 11.092 113.971C9.95144 114.068 8.84328 114.399 7.83736 114.944C6.83144 115.489 5.94955 116.236 5.24724 117.137H1.86735V100.374C3.55794 90.7085 4.47583 80.924 4.61234 71.1132V15.329C8.04826 9.79715 14.4533 1.86258 22.931 1.86258H285.069C293.528 1.86258 300.008 9.81578 303.388 15.329V71.2063C303.523 81.0233 304.441 90.8141 306.133 100.486V117.249L302.753 117.137ZM1.86735 20.358C2.07275 19.9296 2.68898 18.6258 3.73469 16.8936V71.1132C3.63932 78.8576 3.01543 86.5865 1.86735 94.2464V20.358ZM10.1023 1.86258H15.4056C8.86989 5.14071 4.23887 12.0322 1.86735 16.2603V8.90312C3.73469 8.19534 9.33673 5.84849 10.1023 1.86258ZM297.916 1.86258C298.682 5.84849 304.191 8.19534 306.133 8.90312V16.3534C303.761 12.1254 299.13 5.17796 292.594 1.95571L297.916 1.86258ZM304.377 16.8936C305.367 18.6258 305.983 19.9296 306.245 20.358V94.2464C305.097 86.5865 304.473 78.8576 304.377 71.1132V16.8936ZM307.402 7.33855C305.274 6.68665 299.746 4.24667 299.746 0.931288V0H8.30969V0.931288C8.30969 4.22805 2.70765 6.68665 0.653571 7.33855L0 7.54343V119H6.31163L6.57306 118.516C7.09781 117.755 7.78543 117.119 8.58629 116.655C9.38714 116.192 10.2813 115.911 11.2041 115.834C11.3616 116.048 11.5665 116.223 11.8029 116.346C12.0393 116.469 12.3008 116.536 12.5672 116.541C12.8245 116.536 13.0771 116.473 13.3066 116.357C13.5361 116.241 13.7365 116.075 13.8931 115.871C16.7414 116.344 19.4693 117.369 21.9226 118.888L22.128 119H285.872L286.096 118.888C288.542 117.367 291.264 116.342 294.107 115.871C294.263 116.075 294.464 116.241 294.693 116.357C294.923 116.473 295.176 116.536 295.433 116.541C295.699 116.536 295.961 116.469 296.197 116.346C296.434 116.223 296.638 116.048 296.796 115.834C297.719 115.911 298.613 116.192 299.414 116.655C300.215 117.119 300.902 117.755 301.427 118.516L301.688 119H308V7.54343L307.402 7.33855Z" fill="#333333"/>
</svg>
