<svg width="53" height="50" viewBox="0 0 53 50" fill="none" xmlns="http://www.w3.org/2000/svg">
<g clip-path="url(#clip0_121_4304)">
<path d="M51.6099 5.00999V44.08L47.4099 48.28H5.12992L0.919922 44.08V5.00999L5.12992 0.799988H47.4099L51.6099 5.00999Z" fill="#353535"/>
<path d="M46.66 47.9H44C46.0478 47.005 47.7868 45.5269 49 43.65V43.58C49.7594 42.4108 50.3613 41.1466 50.79 39.82V43.7L46.66 47.9ZM1.38 43.7V39.82C1.80871 41.1466 2.41057 42.4108 3.17 43.58V43.65H3.22C4.45184 45.5375 6.21642 47.0167 8.29 47.9H5.58L1.38 43.7ZM5.58 1.38H8.29C6.21418 2.25968 4.44863 3.73967 3.22 5.63H3.17V5.7C2.41057 6.86915 1.80871 8.1334 1.38 9.46V5.58L5.58 1.38ZM49.07 6.84C49.23 7.14 49.41 7.42 49.56 7.74C50.149 8.99675 50.5854 10.3195 50.86 11.68V37.55C50.5105 39.2538 49.9071 40.8954 49.07 42.42V6.84ZM1.38 11.73C1.72948 10.0262 2.33288 8.38456 3.17 6.86V42.44C3.01 42.14 2.83 41.86 2.68 41.54C2.0924 40.2827 1.65602 38.9601 1.38 37.6V11.73ZM42 47.9H10.2C7.64687 47.3048 5.40757 45.7787 3.92 43.62V5.68C5.42156 3.51804 7.66863 1.98676 10.23 1.38H42C44.5492 1.978 46.7865 3.49923 48.28 5.65V43.65C46.777 45.7871 44.5427 47.2992 42 47.9ZM50.86 5.58V9.46C50.4313 8.1334 49.8294 6.86915 49.07 5.7V5.63C47.8414 3.73967 46.0758 2.25968 44 1.38H46.71L50.86 5.58ZM47.23 0H5L0 5V44.27L5 49.27H47.23L52.23 44.27V5L47.23 0Z" fill="#1F1F1F"/>
</g>
<defs>
<clipPath id="clip0_121_4304">
<rect width="52.24" height="49.28" fill="white"/>
</clipPath>
</defs>
</svg>
